<?xml version="1.0" encoding="UTF-8"?>
<svg xmlns="http://www.w3.org/2000/svg" viewBox="0 0 833.12 646.37">
  <defs>
    <style>
      .cls-1, .cls-2, .cls-3 {
        fill: none;
      }

      .cls-1, .cls-2, .cls-3, .cls-4, .cls-5, .cls-6, .cls-7, .cls-8, .cls-9, .cls-10 {
        stroke: #231f20;
        stroke-miterlimit: 10;
      }

      .cls-2 {
        stroke-width: .75px;
      }

      .cls-3, .cls-7 {
        stroke-width: .5px;
      }

      .cls-4 {
        stroke-width: .74px;
      }

      .cls-4, .cls-5, .cls-6, .cls-7, .cls-8, .cls-9, .cls-10 {
        fill: #fff;
      }

      .cls-5 {
        stroke-width: .7px;
      }

      .cls-6 {
        stroke-width: .51px;
      }

      .cls-8 {
        stroke-width: .53px;
      }

      .cls-9 {
        stroke-width: .35px;
      }

      .cls-10 {
        stroke-width: .29px;
      }
    </style>
  </defs>
  <g id="Bookblock">
    <line class="cls-3" x1="832.87" y1="303.61" x2="831.04" y2="302.51"/>
    <path class="cls-1" d="M474.39,628.1c-4.69-5.36-3.02-11.21,0-17.17-4.14-5.01-2.97-10.93,0-17.17-4.33-5.36-2.79-11.21,0-17.17-3.48-3.82-4.21-9.14,0-17.17-3.89-5.14-3.22-10.97,0-17.17-3.58-5.08-3.52-10.82,0-17.17-3.89-4.82-3.22-10.7,0-17.17-4.55-4.97-4.32-10.73,0-17.17-3.2-2.65-5.35-12.59,0-17.1,5.23-4.41,350.34-202.53,350.34-202.53L353.82.58,3.72,201.87c-5.12,4.03-3.39,10.33,0,17.18-4.74,4.34-3.75,10.35,0,17.17-4.45,3.91-4.05,9.8,0,17.17-4.14,3.6-3.77,9.52,0,17.17-4.34,3.18-3.56,9.36,0,17.17-4,5.2-2.74,11.09,0,17.17-4.21,4.71-3.7,10.56,0,17.17-4.1,4.07-3.22,10.15,0,17.17-4.21,4.09-3.7,10.01,0,17.17-3.58,3.46-4.06,14.83,0,17.17s470.67,271.65,470.67,271.65"/>
    <polyline class="cls-1" points="3.72 356.45 474.39 628.1 824.73 426.3 822.65 425.07"/>
    <polyline class="cls-1" points="3.72 339.27 474.39 610.92 824.73 408.8 822.36 407.4"/>
    <polyline class="cls-1" points="3.72 322.1 474.39 593.75 824.73 391.62 822.43 390.41"/>
    <polyline class="cls-1" points="3.72 304.92 474.39 576.58 824.73 374.78 822.24 373.48"/>
    <polyline class="cls-1" points="3.72 287.75 474.39 559.4 824.73 357.19 823 356.2"/>
    <polyline class="cls-1" points="3.72 270.58 474.39 542.23 824.73 341.42 822.33 340.21"/>
    <polyline class="cls-1" points="3.72 253.4 474.39 525.05 824.73 322.92 822.16 321.58"/>
    <polyline class="cls-1" points="3.72 236.23 474.39 507.88 824.73 305.42 822.28 303.99"/>
    <polyline class="cls-1" points="3.72 219.05 474.39 490.7 824.73 287.09 821.62 285.27"/>
    <path class="cls-3" d="M822.49,272.36l4.39,2.68-350.53,203.23c-2.42,1.65-2.53,6.17,0,5.94s350.53-204.11,350.53-204.11l-1.54-.77"/>
    <path class="cls-3" d="M823.44,271.81l2.14,1.24s-347.58,201.25-350.34,203.12-3.25,12.46,0,10.57,350.34-203.78,350.34-203.78l-2.04-.91"/>
    <path class="cls-3" d="M823.85,271.57l5.45,3.46-350.97,204.11c-1.39.75-1.72,3.2,0,2.2s350.97-204.33,350.97-204.33l-1.77-.95"/>
    <path class="cls-3" d="M823.36,287.88l2.65,1.49s-347.71,201.12-351.03,203.97c-3.32,2.85-2.58,11.56,0,11.23s350.34-202.35,350.34-202.35l-1.56-.73"/>
    <path class="cls-3" d="M824.51,290.24l2.38,1.31s-346.94,201.69-349.72,203.01c-2.77,1.32-1.64,7.33,0,6.39s349.72-201.25,349.72-201.25l-2.57-1.3"/>
    <path class="cls-3" d="M824.73,289.98l4.58,2.67s-348,201.47-350.09,202.57-1.9,3.52,0,2.42,350.09-202.13,350.09-202.13l-2.55-1.39"/>
    <path class="cls-3" d="M822.34,306.8l3.04,1.7s-346.42,199.58-349.24,201.47c-2.83,1.89-2.71,12.79,0,11.23s348.1-200.81,348.1-200.81l-2.1-1.14"/>
    <path class="cls-3" d="M823.82,309.4l2.19,1.31s-346.27,199.27-348.3,201.03-3.15,6.05,0,5.72c3.15-.33,347.01-199.71,347.01-199.71l-1.87-1.04"/>
    <path class="cls-1" d="M474.39,628.1c-2.63,5.71-3.05,11.54.25,17.59l350.08-202.37-2.54-1.33"/>
    <path class="cls-3" d="M823.14,323.84l2.83,1.52s-345.98,199.99-349.24,202.13c-3.26,2.13-4.14,12.49,0,10.13s349.24-199.49,349.24-199.49l-1.71-.89"/>
    <path class="cls-3" d="M823.44,326.83l2.58,1.27s-346.6,199.9-348.3,201.03-3.55,7.53,0,5.5,348.3-198.38,348.3-198.38l-2.67-1.12"/>
    <path class="cls-3" d="M825.52,328.39l2.69,1.25-348.55,200.15c-1,1.19-.77,1.73,0,1.98l348.55-199.43-2.54-1.24"/>
    <path class="cls-3" d="M822.49,342.7l3.16,1.4s-346.44,198.33-349.26,200.11-4.06,13.82,0,11.49c4.06-2.34,349.26-201.03,349.26-201.03l-2.01-1.23"/>
    <path class="cls-3" d="M824.9,344.53l1.98.96s-345.9,198.38-349.17,200.37-3.13,9.15,0,7.34c3.13-1.81,348.3-201.13,348.3-201.13l-1.28-.86"/>
    <path class="cls-3" d="M825.24,344.34l4.07,2.04s-347.34,199.21-349.65,200.59-2.28,4.18,0,2.86,349.65-201.25,349.65-201.25l-2.04-1.03"/>
    <path class="cls-3" d="M824.46,357.34l2.43,1.3s-347.44,199.71-350.54,202.35c-3.1,2.64-3.65,13.77,0,11.67,3.65-2.1,349.26-201.11,349.26-201.11l-2.26-.96"/>
    <path class="cls-3" d="M825.81,359.26l2.39,1.43s-349.38,201.55-350.53,201.91c-2.31,1.43-3.11,8.42.04,6.61,3.15-1.81,348.3-200.15,348.3-200.15l-2.29-1.16"/>
    <path class="cls-3" d="M826.01,361.95l2.19,1.16s-346.07,198.91-348.55,200.37-2.13,4.09,0,2.86,348.55-201.03,348.55-201.03l-2.08-1"/>
    <path class="cls-3" d="M824.4,374.97l2.49,1.35s-348.27,199.49-350.97,202.35-3.5,13.02,0,11.01c3.5-2.01,348.82-200.59,348.82-200.59l-2.2-1.08"/>
    <path class="cls-3" d="M825.73,376.98l2.48,1.33s-347.67,199.34-350.09,201.24-2.5,7.82,0,6.39,347.9-199.93,347.9-199.93l-1.28-.68"/>
    <path class="cls-3" d="M826.43,379.33l2.87,1.4s-347.28,198.3-349.21,199.93-2.3,3.74,0,2.42,349.21-200.37,349.21-200.37l-1.98-.85"/>
    <path class="cls-3" d="M822.79,390.21l4.69,2.49s-348.96,200.81-351.19,202.62-3.34,13.99,0,12.05c3.34-1.93,349.04-201.69,349.04-201.69l-1.88-1.11"/>
    <path class="cls-3" d="M825.45,393.86l2.75,1.43s-348.25,200.03-350.09,201.44-3.64,8.92,0,6.83,347.9-200.45,347.9-200.45l-1.21-.7"/>
    <path class="cls-3" d="M826.21,396.43l3.1,1.47-349.21,199.49c-1.42,1.34-1.92,3.97,0,2.86s346.79-199.05,346.79-199.05l-1.63-.99"/>
    <path class="cls-3" d="M822.41,410.13l2.31,1.2s-345.51,198.4-348.82,201.47c-3.03,2.82-3.24,13.97,0,11.67,3.74-2.65,348.82-200.59,348.82-200.59l-1.79-1.11"/>
    <path class="cls-3" d="M824.42,408.98l3.79,2.35s-347.86,201.02-349.16,201.71-3.79,8.31,0,6.14c3.79-2.17,346.96-198.16,346.96-198.16l-1.84-1.24"/>
    <path class="cls-3" d="M827.69,411.63l2.72,1.64-349.24,201c-1.32,1.58-1.85,3.11,0,2.05s348.14-199.49,348.14-199.49l-2.51-1.48"/>
    <path class="cls-3" d="M823.55,424.56l4.47,2.54s-347.45,200.04-350.97,202.13-3.54,13.71,0,11.67,348.82-201.03,348.82-201.03l-1.94-.91"/>
    <path class="cls-3" d="M827.04,427.66l2.27,1.28s-347.15,199.73-350.09,201.47-2.86,8.25,0,6.61,346.8-199.27,346.8-199.27l-1.57-.7"/>
    <path class="cls-3" d="M828.76,429.26l2.53,1.45s-347.83,198.85-349.65,200.15-1.8,3.45,0,2.42,349.65-200.15,349.65-200.15l-2.12-1.21"/>
    <path class="cls-3" d="M479.05,513.16l348.55-201.22-348.55,201.22Z"/>
    <path class="cls-3" d="M479.05,513.16c-1.93,1.21-1.12,2.74,0,2.09s348.48-201.25,348.48-201.25l-1.71-1.04"/>
    <line class="cls-3" x1="827.35" y1="311.94" x2="825.52" y2="310.84"/>
    <ellipse class="cls-2" cx="119.8" cy="294.61" rx=".66" ry="2.42" transform="translate(-193.08 237.57) rotate(-57.54)"/>
    <ellipse class="cls-2" cx="119.8" cy="310.88" rx=".66" ry="2.42" transform="translate(-206.81 245.11) rotate(-57.54)"/>
    <ellipse class="cls-2" cx="119.8" cy="328.7" rx=".66" ry="2.42" transform="translate(-221.84 253.36) rotate(-57.54)"/>
    <ellipse class="cls-2" cx="119.8" cy="346.51" rx=".66" ry="2.42" transform="translate(-236.87 261.62) rotate(-57.54)"/>
    <ellipse class="cls-2" cx="119.8" cy="363.69" rx=".66" ry="2.42" transform="translate(-251.36 269.57) rotate(-57.54)"/>
    <ellipse class="cls-2" cx="119.45" cy="380.86" rx=".66" ry="2.42" transform="translate(-266.02 277.23) rotate(-57.54)"/>
    <ellipse class="cls-2" cx="119.8" cy="397.28" rx=".66" ry="2.42" transform="translate(-279.71 285.14) rotate(-57.54)"/>
    <ellipse class="cls-2" cx="119.8" cy="414.79" rx=".66" ry="2.42" transform="translate(-294.48 293.25) rotate(-57.54)"/>
    <ellipse class="cls-2" cx="119.8" cy="431.63" rx=".66" ry="2.42" transform="translate(-308.69 301.05) rotate(-57.54)"/>
    <ellipse class="cls-2" cx="119.8" cy="277.06" rx=".66" ry="2.42" transform="translate(-178.27 229.44) rotate(-57.54)"/>
    <ellipse class="cls-2" cx="57.21" cy="258.85" rx=".66" ry="2.42" transform="translate(-191.9 168.19) rotate(-57.54)"/>
    <ellipse class="cls-2" cx="57.21" cy="275.12" rx=".66" ry="2.42" transform="translate(-205.63 175.73) rotate(-57.54)"/>
    <ellipse class="cls-2" cx="57.21" cy="292.93" rx=".66" ry="2.42" transform="translate(-220.66 183.98) rotate(-57.54)"/>
    <ellipse class="cls-2" cx="57.21" cy="310.75" rx=".66" ry="2.42" transform="translate(-235.69 192.24) rotate(-57.54)"/>
    <ellipse class="cls-2" cx="57.21" cy="327.92" rx=".66" ry="2.42" transform="translate(-250.18 200.19) rotate(-57.54)"/>
    <ellipse class="cls-2" cx="56.86" cy="345.1" rx=".66" ry="2.42" transform="translate(-264.84 207.85) rotate(-57.54)"/>
    <ellipse class="cls-2" cx="57.21" cy="361.52" rx=".66" ry="2.42" transform="translate(-278.53 215.76) rotate(-57.54)"/>
    <ellipse class="cls-2" cx="57.21" cy="379.02" rx=".66" ry="2.42" transform="translate(-293.3 223.87) rotate(-57.54)"/>
    <ellipse class="cls-2" cx="57.21" cy="395.87" rx=".66" ry="2.42" transform="translate(-307.51 231.67) rotate(-57.54)"/>
    <ellipse class="cls-2" cx="57.21" cy="241.3" rx=".66" ry="2.42" transform="translate(-177.09 160.06) rotate(-57.54)"/>
    <ellipse class="cls-2" cx="416.66" cy="466.28" rx=".66" ry="2.42" transform="translate(-200.4 567.57) rotate(-57.54)"/>
    <ellipse class="cls-2" cx="416.66" cy="482.55" rx=".66" ry="2.42" transform="translate(-214.13 575.11) rotate(-57.54)"/>
    <ellipse class="cls-2" cx="416.66" cy="500.36" rx=".66" ry="2.42" transform="translate(-229.16 583.36) rotate(-57.54)"/>
    <ellipse class="cls-2" cx="416.66" cy="518.18" rx=".66" ry="2.42" transform="translate(-244.19 591.62) rotate(-57.54)"/>
    <ellipse class="cls-2" cx="416.66" cy="535.35" rx=".66" ry="2.42" transform="translate(-258.68 599.57) rotate(-57.54)"/>
    <ellipse class="cls-2" cx="416.3" cy="552.52" rx=".66" ry="2.42" transform="translate(-273.33 607.23) rotate(-57.54)"/>
    <ellipse class="cls-2" cx="416.66" cy="568.95" rx=".66" ry="2.42" transform="translate(-287.03 615.14) rotate(-57.54)"/>
    <ellipse class="cls-2" cx="416.66" cy="586.45" rx=".66" ry="2.42" transform="translate(-301.8 623.25) rotate(-57.54)"/>
    <ellipse class="cls-2" cx="416.66" cy="603.3" rx=".66" ry="2.42" transform="translate(-316.01 631.05) rotate(-57.54)"/>
    <ellipse class="cls-2" cx="416.66" cy="448.73" rx=".66" ry="2.42" transform="translate(-185.59 559.44) rotate(-57.54)"/>
    <ellipse class="cls-2" cx="234.81" cy="361.07" rx=".66" ry="2.42" transform="translate(-195.87 365.4) rotate(-57.54)"/>
    <ellipse class="cls-2" cx="234.81" cy="377.34" rx=".66" ry="2.42" transform="translate(-209.6 372.94) rotate(-57.54)"/>
    <ellipse class="cls-2" cx="234.81" cy="395.15" rx=".66" ry="2.42" transform="translate(-224.63 381.19) rotate(-57.54)"/>
    <ellipse class="cls-2" cx="234.81" cy="412.97" rx=".66" ry="2.42" transform="translate(-239.66 389.44) rotate(-57.54)"/>
    <ellipse class="cls-2" cx="234.81" cy="430.14" rx=".66" ry="2.42" transform="translate(-254.15 397.4) rotate(-57.54)"/>
    <ellipse class="cls-2" cx="234.46" cy="447.31" rx=".66" ry="2.42" transform="translate(-268.81 405.06) rotate(-57.54)"/>
    <ellipse class="cls-2" cx="234.81" cy="463.74" rx=".66" ry="2.42" transform="translate(-282.5 412.96) rotate(-57.54)"/>
    <ellipse class="cls-2" cx="234.81" cy="481.24" rx=".66" ry="2.42" transform="translate(-297.27 421.07) rotate(-57.54)"/>
    <ellipse class="cls-2" cx="234.81" cy="498.08" rx=".66" ry="2.42" transform="translate(-311.48 428.88) rotate(-57.54)"/>
    <ellipse class="cls-2" cx="234.81" cy="343.52" rx=".66" ry="2.42" transform="translate(-181.06 357.27) rotate(-57.54)"/>
    <ellipse class="cls-2" cx="352.52" cy="429.59" rx=".66" ry="2.42" transform="translate(-199.15 496.46) rotate(-57.54)"/>
    <ellipse class="cls-2" cx="352.52" cy="445.86" rx=".66" ry="2.42" transform="translate(-212.88 504) rotate(-57.54)"/>
    <ellipse class="cls-2" cx="352.52" cy="463.67" rx=".66" ry="2.42" transform="translate(-227.91 512.25) rotate(-57.54)"/>
    <ellipse class="cls-2" cx="352.52" cy="481.49" rx=".66" ry="2.42" transform="translate(-242.94 520.51) rotate(-57.54)"/>
    <ellipse class="cls-2" cx="352.52" cy="498.66" rx=".66" ry="2.42" transform="translate(-257.43 528.46) rotate(-57.54)"/>
    <ellipse class="cls-2" cx="352.17" cy="515.83" rx=".66" ry="2.42" transform="translate(-272.09 536.12) rotate(-57.54)"/>
    <ellipse class="cls-2" cx="352.52" cy="532.26" rx=".66" ry="2.42" transform="translate(-285.78 544.03) rotate(-57.54)"/>
    <ellipse class="cls-2" cx="352.52" cy="549.76" rx=".66" ry="2.42" transform="translate(-300.55 552.14) rotate(-57.54)"/>
    <ellipse class="cls-2" cx="352.52" cy="566.6" rx=".66" ry="2.42" transform="translate(-314.76 559.94) rotate(-57.54)"/>
    <ellipse class="cls-2" cx="352.52" cy="412.04" rx=".66" ry="2.42" transform="translate(-184.34 488.33) rotate(-57.54)"/>
  </g>
  <g id="Layer_2" data-name="Layer 2">
    <path class="cls-9" d="M346.37,391.45c1.44,2.89,1.03,5.74.6,6.31,0,0,5.48,9.79,5.07,9.07s1.21-4.99-.06-7.5l-5.6-7.88Z"/>
    <path class="cls-9" d="M346.76,419.76c-.48-2.3,1.02,6.3.07,7.4-.53-1.27,4.38,9.89,4.96,11.04.39.78-1.31-5.93-.53-6.6l-4.5-11.83Z"/>
    <path class="cls-9" d="M346.33,450.71c.41.71,1.15,6.61.66,7.65l4.7,8.87c-.37-.87-.48-2.56.32-4.6-1.41-4.85-3.44-8.57-5.68-11.91Z"/>
    <path class="cls-9" d="M347.34,482.79s.19,2.83-.22,3.56l5.11,10.64c-.07-.97-.26-2.78.06-4.13-1.2-3.79-2.93-7.07-4.95-10.07Z"/>
    <path class="cls-9" d="M346.5,510.07c.1,1.37.61,2.91.43,3.61l5.58,8.58c.01-1.19-.31-3.22.07-4.05-1.55-3.51-3.71-6.01-6.08-8.14Z"/>
    <path class="cls-9" d="M346.93,536.56s.37,2.1.09,5.29c1.13,2.56,3.07,5.25,5.3,7.98.19-2.36.51-2.53.77-3.92.73-4.22-3.17-6.6-6.16-9.35Z"/>
    <path class="cls-9" d="M346.94,564.8c.45.98-.15,2.72-.67,3.18l5.77,9.51c-.45-.99,0-2,1.12-3.51,1.28-1.92-2.06-5.41-6.22-9.18Z"/>
    <path class="cls-6" d="M346.09,515c0,1.07.71,13.04.49,19.36-.04,1.17.25,2.32.84,3.27,1.72,2.76,6.42,7.37,5.89,8.11.1-1.31.03-19.64,0-19.62.76-2.83-6.01-10.03-6.39-12.57-.23-1.57-.86-1.76-.83,1.46Z"/>
    <path class="cls-6" d="M346.97,457.77c-1.59,4.41-.25,19.94-.21,23.59,0,0,5.08,9.43,5.53,11.5.81-1.32.47-22.94-.72-26.02-.99-2.57-3.11-6.39-4.08-7.88-.29-.44-.5-1.27-.53-1.2Z"/>
    <path class="cls-6" d="M346.83,427.16c-2.02,2.29-1.05,16.07-.76,23.19,0,0,6.3,10.88,6.13,12.65,1.06.55,1.09-22.79.25-23.64-.56-.56-5.43-12.42-5.62-12.2Z"/>
    <path class="cls-6" d="M346.94,397.28c-.88,1.15-1.06,15.88-1.07,19.93,0,0,4.61,14.9,5.39,14.38,2.16-5.07,1.11-25.24.69-24.68-.22.15-3.69-6.79-4.91-8.81-.23-.38-.06-.85-.09-.81Z"/>
    <path class="cls-6" d="M345.02,377.61c-.86.6.9,7.03.64,12.72,0,0,5.6,9.54,6.38,9.18-.72-10.94.43-13.84.43-14.49-.26.12-7.24-7.55-7.45-7.4Z"/>
    <path class="cls-6" d="M346.42,567.75c-.86.6-.49,11.16-.76,16.84,0,0,5.6,9.54,6.38,9.18-.05-1.23,0-16.28,0-16.28-.26.12-5.41-9.89-5.62-9.74Z"/>
    <path class="cls-6" d="M346.28,542.06c-.61,1.24-.8,17.38.67,22.74,0,0,6.16,6.77,6.41,8.8.56-.63.31-20.69.26-20.72-1.28-3.35-5.42-7.21-6.56-10.32-.51-1.38-.09-1.92-.78-.5Z"/>
    <path class="cls-6" d="M346.44,486.03c-1.65,1.83.14,27.35.05,23.7,0,0,5.59,5.98,6.25,8.46.8-1.26.33-19.18,0-19.92-.23-.53-4.37-8.84-5.81-11.46-.29-.53.44-1.8-.49-.78Z"/>
    <path class="cls-10" d="M346.26,406.34c.75-.34,7.9,2.74,8.11,3.48s-.94,2.59-1.06,2.18c-.29-.98-7.65-4.07-7.83-3.29-.11.48.03-2.04.78-2.37Z"/>
    <path class="cls-10" d="M345.76,405c.79-.32,8.56,3.02,8.8,3.77s-.93,2.59-1.07,2.18c-.34-1-8.33-4.36-8.5-3.57-.1.48-.03-2.06.76-2.38Z"/>
    <path class="cls-10" d="M346.27,408.24c.75-.33,8.02,2.79,8.23,3.53s-.94,2.59-1.06,2.18c-.3-.98-7.76-4.12-7.94-3.34-.11.48.02-2.04.78-2.37Z"/>
    <path class="cls-10" d="M346.49,429.57c.74-.34,7.81,2.7,8.01,3.44s-.94,2.59-1.06,2.18c-.28-.98-7.55-4.03-7.73-3.25-.11.48.04-2.03.78-2.37Z"/>
    <path class="cls-10" d="M346.28,410.95c.77-.33,8.23,2.88,8.45,3.63s-.93,2.59-1.06,2.18c-.31-.99-7.98-4.21-8.16-3.43-.11.48,0-2.05.77-2.38Z"/>
    <path class="cls-10" d="M346.5,423.06c.75-.34,7.9,2.74,8.11,3.48s-.94,2.59-1.06,2.18c-.29-.98-7.65-4.07-7.83-3.29-.11.48.03-2.04.78-2.37Z"/>
    <path class="cls-10" d="M346.68,415.57c.73-.34,7.65,2.63,7.84,3.37s-.94,2.58-1.05,2.18c-.27-.97-7.39-3.96-7.57-3.18-.11.48.06-2.03.79-2.37Z"/>
    <path class="cls-10" d="M346.29,413.6c.77-.33,8.23,2.88,8.45,3.62s-.93,2.59-1.06,2.18c-.31-.99-7.98-4.21-8.15-3.43-.11.48,0-2.05.77-2.38Z"/>
    <path class="cls-10" d="M346.5,425.64c.74-.34,7.81,2.7,8.01,3.44s-.94,2.59-1.06,2.18c-.28-.98-7.55-4.03-7.73-3.25-.11.48.04-2.03.78-2.37Z"/>
    <path class="cls-10" d="M346.66,419.87c.71-.35,7.43,2.54,7.6,3.26s-.95,2.58-1.05,2.19c-.25-.97-7.15-3.86-7.34-3.08-.12.48.08-2.02.79-2.37Z"/>
    <path class="cls-10" d="M346.26,417.4c.75-.34,7.9,2.74,8.11,3.48s-.94,2.59-1.06,2.18c-.29-.98-7.65-4.07-7.83-3.29-.11.48.03-2.04.78-2.37Z"/>
    <path class="cls-10" d="M346.05,421.13c.78-.32,8.43,2.96,8.66,3.72s-.93,2.59-1.07,2.18c-.33-1-8.19-4.3-8.36-3.52-.11.48-.02-2.06.77-2.38Z"/>
    <path class="cls-10" d="M346.24,427.24c.77-.33,8.27,2.9,8.49,3.64s-.93,2.59-1.06,2.18c-.32-.99-8.02-4.23-8.2-3.45-.11.48,0-2.05.77-2.38Z"/>
    <path class="cls-10" d="M346.48,432.3c.72-.34,7.59,2.61,7.77,3.34s-.94,2.58-1.05,2.18c-.26-.97-7.32-3.93-7.5-3.15-.11.48.06-2.02.79-2.37Z"/>
    <path class="cls-10" d="M346,453.13c.75-.34,7.9,2.74,8.11,3.48s-.94,2.59-1.06,2.18c-.29-.98-7.65-4.07-7.83-3.29-.11.48.03-2.04.78-2.37Z"/>
    <path class="cls-10" d="M345.49,451.79c.79-.32,8.56,3.02,8.8,3.77s-.93,2.59-1.07,2.18c-.34-1-8.33-4.36-8.5-3.57-.1.48-.03-2.06.76-2.38Z"/>
    <path class="cls-10" d="M346,455.03c.75-.33,8.02,2.79,8.23,3.53s-.94,2.59-1.06,2.18c-.3-.98-7.76-4.12-7.94-3.34-.11.48.02-2.04.78-2.37Z"/>
    <path class="cls-10" d="M346.23,476.36c.74-.34,7.81,2.7,8.01,3.44s-.94,2.59-1.06,2.18c-.28-.98-7.55-4.03-7.73-3.25-.11.48.04-2.03.78-2.37Z"/>
    <path class="cls-10" d="M346.02,457.75c.77-.33,8.23,2.88,8.45,3.63s-.93,2.59-1.06,2.18c-.31-.99-7.98-4.21-8.16-3.43-.11.48,0-2.05.77-2.38Z"/>
    <path class="cls-10" d="M346.23,469.85c.75-.34,7.9,2.74,8.11,3.48s-.94,2.59-1.06,2.18c-.29-.98-7.65-4.07-7.83-3.29-.11.48.03-2.04.78-2.37Z"/>
    <path class="cls-10" d="M346.41,462.36c.73-.34,7.65,2.63,7.84,3.37s-.94,2.58-1.05,2.18c-.27-.97-7.39-3.96-7.57-3.18-.11.48.06-2.03.79-2.37Z"/>
    <path class="cls-10" d="M346.02,460.39c.77-.33,8.23,2.88,8.45,3.62s-.93,2.59-1.06,2.18c-.31-.99-7.98-4.21-8.15-3.43-.11.48,0-2.05.77-2.38Z"/>
    <path class="cls-10" d="M346.23,472.43c.74-.34,7.81,2.7,8.01,3.44s-.94,2.59-1.06,2.18c-.28-.98-7.55-4.03-7.73-3.25-.11.48.04-2.03.78-2.37Z"/>
    <path class="cls-10" d="M346.39,466.66c.71-.35,7.43,2.54,7.6,3.26s-.95,2.58-1.05,2.19c-.25-.97-7.15-3.86-7.34-3.08-.12.48.08-2.02.79-2.37Z"/>
    <path class="cls-10" d="M345.99,464.19c.75-.34,7.9,2.74,8.11,3.48s-.94,2.59-1.06,2.18c-.29-.98-7.65-4.07-7.83-3.29-.11.48.03-2.04.78-2.37Z"/>
    <path class="cls-10" d="M345.78,467.92c.78-.32,8.43,2.96,8.66,3.72s-.93,2.59-1.07,2.18c-.33-1-8.19-4.3-8.36-3.52-.11.48-.02-2.06.77-2.38Z"/>
    <path class="cls-10" d="M345.97,474.03c.77-.33,8.27,2.9,8.49,3.64s-.93,2.59-1.06,2.18c-.32-.99-8.02-4.23-8.2-3.45-.11.48,0-2.05.77-2.38Z"/>
    <path class="cls-10" d="M346.32,442.04c.75-.34,7.9,2.74,8.11,3.48s-.94,2.59-1.06,2.18c-.29-.98-7.65-4.07-7.83-3.29-.11.48.03-2.04.78-2.37Z"/>
    <path class="cls-10" d="M346.49,434.55c.73-.34,7.65,2.63,7.84,3.37s-.94,2.58-1.05,2.18c-.27-.97-7.39-3.96-7.57-3.18-.11.48.06-2.03.79-2.37Z"/>
    <path class="cls-10" d="M346.31,444.62c.74-.34,7.81,2.7,8.01,3.44s-.94,2.59-1.06,2.18c-.28-.98-7.55-4.03-7.73-3.25-.11.48.04-2.03.78-2.37Z"/>
    <path class="cls-10" d="M346.48,438.85c.71-.35,7.43,2.54,7.6,3.26s-.95,2.58-1.05,2.19c-.25-.97-7.15-3.86-7.34-3.08-.12.48.08-2.02.79-2.37Z"/>
    <path class="cls-10" d="M346.08,436.38c.75-.34,7.9,2.74,8.11,3.48s-.94,2.59-1.06,2.18c-.29-.98-7.65-4.07-7.83-3.29-.11.48.03-2.04.78-2.37Z"/>
    <path class="cls-10" d="M345.87,440.11c.78-.32,8.43,2.96,8.66,3.72s-.93,2.59-1.07,2.18c-.33-1-8.19-4.3-8.36-3.52-.11.48-.02-2.06.77-2.38Z"/>
    <path class="cls-10" d="M345.81,446.44c.77-.33,8.27,2.9,8.49,3.64s-.93,2.59-1.06,2.18c-.32-.99-8.02-4.23-8.2-3.45-.11.48,0-2.05.77-2.38Z"/>
    <path class="cls-10" d="M345.48,533.29c.76-.33,8.16,2.85,8.37,3.59s-.93,2.59-1.06,2.18c-.31-.99-7.91-4.18-8.08-3.4-.11.48.01-2.05.77-2.38Z"/>
    <path class="cls-10" d="M345.87,516.01c.72-.34,7.59,2.61,7.77,3.34s-.94,2.58-1.05,2.18c-.26-.97-7.32-3.93-7.5-3.15-.11.48.06-2.02.79-2.37Z"/>
    <path class="cls-10" d="M345.87,526.09c.75-.34,7.9,2.74,8.11,3.48s-.94,2.59-1.06,2.18c-.29-.98-7.65-4.07-7.83-3.29-.11.48.03-2.04.78-2.37Z"/>
    <path class="cls-10" d="M346.05,518.6c.73-.34,7.65,2.63,7.84,3.37s-.94,2.58-1.05,2.18c-.27-.97-7.39-3.96-7.57-3.18-.11.48.06-2.03.79-2.37Z"/>
    <path class="cls-10" d="M345.86,528.67c.74-.34,7.81,2.7,8.01,3.44s-.94,2.59-1.06,2.18c-.28-.98-7.55-4.03-7.73-3.25-.11.48.04-2.03.78-2.37Z"/>
    <path class="cls-10" d="M346.03,522.9c.71-.35,7.43,2.54,7.6,3.26s-.95,2.58-1.05,2.19c-.25-.97-7.15-3.86-7.34-3.08-.12.48.08-2.02.79-2.37Z"/>
    <path class="cls-10" d="M345.63,520.43c.75-.34,7.9,2.74,8.11,3.48s-.94,2.59-1.06,2.18c-.29-.98-7.65-4.07-7.83-3.29-.11.48.03-2.04.78-2.37Z"/>
    <path class="cls-10" d="M345.42,524.16c.78-.32,8.43,2.96,8.66,3.72s-.93,2.59-1.07,2.18c-.33-1-8.19-4.3-8.36-3.52-.11.48-.02-2.06.77-2.38Z"/>
    <path class="cls-10" d="M345.36,530.49c.77-.33,8.27,2.9,8.49,3.64s-.93,2.59-1.06,2.18c-.32-.99-8.02-4.23-8.2-3.45-.11.48,0-2.05.77-2.38Z"/>
    <path class="cls-10" d="M346.21,479.09c.72-.34,7.59,2.61,7.77,3.34s-.94,2.58-1.05,2.18c-.26-.97-7.32-3.93-7.5-3.15-.11.48.06-2.02.79-2.37Z"/>
    <path class="cls-10" d="M345.83,535.83c.76-.33,8.16,2.85,8.37,3.59s-.93,2.59-1.06,2.18c-.31-.99-7.91-4.18-8.08-3.4-.11.48.01-2.05.77-2.38Z"/>
    <path class="cls-10" d="M345.9,539.72c.75-.34,7.9,2.74,8.11,3.48s-.94,2.59-1.06,2.18c-.29-.98-7.65-4.07-7.83-3.29-.11.48.03-2.04.78-2.37Z"/>
    <path class="cls-10" d="M345.4,538.38c.79-.32,8.56,3.02,8.8,3.77s-.93,2.59-1.07,2.18c-.34-1-8.33-4.36-8.5-3.57-.1.48-.03-2.06.76-2.38Z"/>
    <path class="cls-10" d="M345.9,541.62c.75-.33,8.02,2.79,8.23,3.53s-.94,2.59-1.06,2.18c-.3-.98-7.76-4.12-7.94-3.34-.11.48.02-2.04.78-2.37Z"/>
    <path class="cls-10" d="M346.13,562.95c.74-.34,7.81,2.7,8.01,3.44s-.94,2.59-1.06,2.18c-.28-.98-7.55-4.03-7.73-3.25-.11.48.04-2.03.78-2.37Z"/>
    <path class="cls-10" d="M345.92,544.33c.77-.33,8.23,2.88,8.45,3.63s-.93,2.59-1.06,2.18c-.31-.99-7.98-4.21-8.16-3.43-.11.48,0-2.05.77-2.38Z"/>
    <path class="cls-10" d="M346.14,556.44c.75-.34,7.9,2.74,8.11,3.48s-.94,2.59-1.06,2.18c-.29-.98-7.65-4.07-7.83-3.29-.11.48.03-2.04.78-2.37Z"/>
    <path class="cls-10" d="M346.31,548.95c.73-.34,7.65,2.63,7.84,3.37s-.94,2.58-1.05,2.18c-.27-.97-7.39-3.96-7.57-3.18-.11.48.06-2.03.79-2.37Z"/>
    <path class="cls-10" d="M345.92,546.98c.77-.33,8.23,2.88,8.45,3.62s-.93,2.59-1.06,2.18c-.31-.99-7.98-4.21-8.15-3.43-.11.48,0-2.05.77-2.38Z"/>
    <path class="cls-10" d="M346.13,559.02c.74-.34,7.81,2.7,8.01,3.44s-.94,2.59-1.06,2.18c-.28-.98-7.55-4.03-7.73-3.25-.11.48.04-2.03.78-2.37Z"/>
    <path class="cls-10" d="M346.3,553.25c.71-.35,7.43,2.54,7.6,3.26s-.95,2.58-1.05,2.19c-.25-.97-7.15-3.86-7.34-3.08-.12.48.08-2.02.79-2.37Z"/>
    <path class="cls-10" d="M345.9,550.78c.75-.34,7.9,2.74,8.11,3.48s-.94,2.59-1.06,2.18c-.29-.98-7.65-4.07-7.83-3.29-.11.48.03-2.04.78-2.37Z"/>
    <path class="cls-10" d="M345.69,554.51c.78-.32,8.43,2.96,8.66,3.72s-.93,2.59-1.07,2.18c-.33-1-8.19-4.3-8.36-3.52-.11.48-.02-2.06.77-2.38Z"/>
    <path class="cls-10" d="M345.87,560.62c.77-.33,8.27,2.9,8.49,3.64s-.93,2.59-1.06,2.18c-.32-.99-8.02-4.23-8.2-3.45-.11.48,0-2.05.77-2.38Z"/>
    <path class="cls-10" d="M346.11,565.68c.72-.34,7.59,2.61,7.77,3.34s-.94,2.58-1.05,2.18c-.26-.97-7.32-3.93-7.5-3.15-.11.48.06-2.02.79-2.37Z"/>
    <path class="cls-10" d="M345.77,481.25c.76-.33,8.16,2.85,8.37,3.59s-.93,2.59-1.06,2.18c-.31-.99-7.91-4.18-8.08-3.4-.11.48.01-2.05.77-2.38Z"/>
    <path class="cls-10" d="M345.84,485.15c.75-.34,7.9,2.74,8.11,3.48s-.94,2.59-1.06,2.18c-.29-.98-7.65-4.07-7.83-3.29-.11.48.03-2.04.78-2.37Z"/>
    <path class="cls-10" d="M345.34,483.8c.79-.32,8.56,3.02,8.8,3.77s-.93,2.59-1.07,2.18c-.34-1-8.33-4.36-8.5-3.57-.1.48-.03-2.06.76-2.38Z"/>
    <path class="cls-10" d="M345.84,487.05c.75-.33,8.02,2.79,8.23,3.53s-.94,2.59-1.06,2.18c-.3-.98-7.76-4.12-7.94-3.34-.11.48.02-2.04.78-2.37Z"/>
    <path class="cls-10" d="M346.07,508.38c.74-.34,7.81,2.7,8.01,3.44s-.94,2.59-1.06,2.18c-.28-.98-7.55-4.03-7.73-3.25-.11.48.04-2.03.78-2.37Z"/>
    <path class="cls-10" d="M345.86,489.76c.77-.33,8.23,2.88,8.45,3.63s-.93,2.59-1.06,2.18c-.31-.99-7.98-4.21-8.16-3.43-.11.48,0-2.05.77-2.38Z"/>
    <path class="cls-10" d="M346.08,501.86c.75-.34,7.9,2.74,8.11,3.48s-.94,2.59-1.06,2.18c-.29-.98-7.65-4.07-7.83-3.29-.11.48.03-2.04.78-2.37Z"/>
    <path class="cls-10" d="M346.25,494.38c.73-.34,7.65,2.63,7.84,3.37s-.94,2.58-1.05,2.18c-.27-.97-7.39-3.96-7.57-3.18-.11.48.06-2.03.79-2.37Z"/>
    <path class="cls-10" d="M345.86,492.41c.77-.33,8.23,2.88,8.45,3.62s-.93,2.59-1.06,2.18c-.31-.99-7.98-4.21-8.15-3.43-.11.48,0-2.05.77-2.38Z"/>
    <path class="cls-10" d="M346.07,504.45c.74-.34,7.81,2.7,8.01,3.44s-.94,2.59-1.06,2.18c-.28-.98-7.55-4.03-7.73-3.25-.11.48.04-2.03.78-2.37Z"/>
    <path class="cls-10" d="M346.24,498.67c.71-.35,7.43,2.54,7.6,3.26s-.95,2.58-1.05,2.19c-.25-.97-7.15-3.86-7.34-3.08-.12.48.08-2.02.79-2.37Z"/>
    <path class="cls-10" d="M345.84,496.21c.75-.34,7.9,2.74,8.11,3.48s-.94,2.59-1.06,2.18c-.29-.98-7.65-4.07-7.83-3.29-.11.48.03-2.04.78-2.37Z"/>
    <path class="cls-10" d="M345.63,499.94c.78-.32,8.43,2.96,8.66,3.72s-.93,2.59-1.07,2.18c-.33-1-8.19-4.3-8.36-3.52-.11.48-.02-2.06.77-2.38Z"/>
    <path class="cls-10" d="M345.81,506.05c.77-.33,8.27,2.9,8.49,3.64s-.93,2.59-1.06,2.18c-.32-.99-8.02-4.23-8.2-3.45-.11.48,0-2.05.77-2.38Z"/>
    <path class="cls-10" d="M346.05,511.1c.72-.34,7.59,2.61,7.77,3.34s-.94,2.58-1.05,2.18c-.26-.97-7.32-3.93-7.5-3.15-.11.48.06-2.02.79-2.37Z"/>
    <path class="cls-10" d="M345.83,513.34c.74-.34,7.81,2.7,8.01,3.44s-.94,2.59-1.06,2.18c-.28-.98-7.55-4.03-7.73-3.25-.11.48.04-2.03.78-2.37Z"/>
    <path class="cls-10" d="M345.66,449.17c.76-.33,8.16,2.85,8.37,3.59s-.93,2.59-1.06,2.18c-.31-.99-7.91-4.18-8.08-3.4-.11.48.01-2.05.77-2.38Z"/>
    <path class="cls-9" d="M229.93,326.28c1.44,2.89,1.03,5.74.6,6.31,0,0,5.48,9.79,5.07,9.07s1.21-4.99-.06-7.5l-5.6-7.88Z"/>
    <path class="cls-9" d="M230.31,354.59c-.48-2.3,1.02,6.3.07,7.4-.53-1.27,4.38,9.89,4.96,11.04.39.78-1.31-5.93-.53-6.6l-4.5-11.83Z"/>
    <path class="cls-9" d="M229.89,385.54c.41.71,1.15,6.61.66,7.65l4.7,8.87c-.37-.87-.48-2.56.32-4.6-1.41-4.85-3.44-8.57-5.68-11.91Z"/>
    <path class="cls-9" d="M230.9,417.63s.19,2.83-.22,3.56l5.11,10.64c-.07-.97-.26-2.78.06-4.13-1.2-3.79-2.93-7.07-4.95-10.07Z"/>
    <path class="cls-9" d="M230.06,444.9c.1,1.37.61,2.91.43,3.61l5.58,8.58c.01-1.19-.31-3.22.07-4.05-1.55-3.51-3.71-6.01-6.08-8.14Z"/>
    <path class="cls-9" d="M230.49,471.39s.37,2.1.09,5.29c1.13,2.56,3.07,5.25,5.3,7.98.19-2.36.51-2.53.77-3.92.73-4.22-3.17-6.6-6.16-9.35Z"/>
    <path class="cls-9" d="M230.49,499.64c.45.98-.15,2.72-.67,3.18l5.77,9.51c-.45-.99,0-2,1.12-3.51,1.28-1.92-2.06-5.41-6.22-9.18Z"/>
    <path class="cls-6" d="M229.64,449.83c0,1.07.71,13.04.49,19.36-.04,1.17.25,2.32.84,3.27,1.72,2.76,6.42,7.37,5.89,8.11.1-1.31.03-19.64,0-19.62.76-2.83-6.01-10.03-6.39-12.57-.23-1.57-.86-1.76-.83,1.46Z"/>
    <path class="cls-6" d="M230.53,392.6c-1.59,4.41-.25,19.94-.21,23.59,0,0,5.08,9.43,5.53,11.5.81-1.32.47-22.94-.72-26.02-.99-2.57-3.11-6.39-4.08-7.88-.29-.44-.5-1.27-.53-1.2Z"/>
    <path class="cls-6" d="M230.38,361.99c-2.02,2.29-1.05,16.07-.76,23.19,0,0,6.3,10.88,6.13,12.65,1.06.55,1.09-22.79.25-23.64-.56-.56-5.43-12.42-5.62-12.2Z"/>
    <path class="cls-6" d="M230.5,332.12c-.88,1.15-1.06,15.88-1.07,19.93,0,0,4.61,14.9,5.39,14.38,2.16-5.07,1.11-25.24.69-24.68-.22.15-3.69-6.79-4.91-8.81-.23-.38-.06-.85-.09-.81Z"/>
    <path class="cls-6" d="M228.58,312.45c-.86.6.9,7.03.64,12.72,0,0,5.6,9.54,6.38,9.18-.72-10.94.43-13.84.43-14.49-.26.12-7.24-7.55-7.45-7.4Z"/>
    <path class="cls-6" d="M229.97,502.58c-.86.6-.49,11.16-.76,16.84,0,0,5.6,9.54,6.38,9.18-.05-1.23,0-16.28,0-16.28-.26.12-5.41-9.89-5.62-9.74Z"/>
    <path class="cls-6" d="M229.84,476.9c-.61,1.24-.8,17.38.67,22.74,0,0,6.16,6.77,6.41,8.8.56-.63.31-20.69.26-20.72-1.28-3.35-5.42-7.21-6.56-10.32-.51-1.38-.09-1.92-.78-.5Z"/>
    <path class="cls-6" d="M230,420.87c-1.65,1.83.14,27.35.05,23.7,0,0,5.59,5.98,6.25,8.46.8-1.26.33-19.18,0-19.92-.23-.53-4.37-8.84-5.81-11.46-.29-.53.44-1.8-.49-.78Z"/>
    <path class="cls-10" d="M229.82,341.18c.75-.34,7.9,2.74,8.11,3.48s-.94,2.59-1.06,2.18c-.29-.98-7.65-4.07-7.83-3.29-.11.48.03-2.04.78-2.37Z"/>
    <path class="cls-10" d="M229.32,339.83c.79-.32,8.56,3.02,8.8,3.77s-.93,2.59-1.07,2.18c-.34-1-8.33-4.36-8.5-3.57-.1.48-.03-2.06.76-2.38Z"/>
    <path class="cls-10" d="M229.83,343.08c.75-.33,8.02,2.79,8.23,3.53s-.94,2.59-1.06,2.18c-.3-.98-7.76-4.12-7.94-3.34-.11.48.02-2.04.78-2.37Z"/>
    <path class="cls-10" d="M230.05,364.41c.74-.34,7.81,2.7,8.01,3.44s-.94,2.59-1.06,2.18c-.28-.98-7.55-4.03-7.73-3.25-.11.48.04-2.03.78-2.37Z"/>
    <path class="cls-10" d="M229.84,345.79c.77-.33,8.23,2.88,8.45,3.63s-.93,2.59-1.06,2.18c-.31-.99-7.98-4.21-8.16-3.43-.11.48,0-2.05.77-2.38Z"/>
    <path class="cls-10" d="M230.06,357.89c.75-.34,7.9,2.74,8.11,3.48s-.94,2.59-1.06,2.18c-.29-.98-7.65-4.07-7.83-3.29-.11.48.03-2.04.78-2.37Z"/>
    <path class="cls-10" d="M230.24,350.41c.73-.34,7.65,2.63,7.84,3.37s-.94,2.58-1.05,2.18c-.27-.97-7.39-3.96-7.57-3.18-.11.48.06-2.03.79-2.37Z"/>
    <path class="cls-10" d="M229.85,348.44c.77-.33,8.23,2.88,8.45,3.62s-.93,2.59-1.06,2.18c-.31-.99-7.98-4.21-8.15-3.43-.11.48,0-2.05.77-2.38Z"/>
    <path class="cls-10" d="M230.05,360.48c.74-.34,7.81,2.7,8.01,3.44s-.94,2.59-1.06,2.18c-.28-.98-7.55-4.03-7.73-3.25-.11.48.04-2.03.78-2.37Z"/>
    <path class="cls-10" d="M230.22,354.7c.71-.35,7.43,2.54,7.6,3.26s-.95,2.58-1.05,2.19c-.25-.97-7.15-3.86-7.34-3.08-.12.48.08-2.02.79-2.37Z"/>
    <path class="cls-10" d="M229.82,352.24c.75-.34,7.9,2.74,8.11,3.48s-.94,2.59-1.06,2.18c-.29-.98-7.65-4.07-7.83-3.29-.11.48.03-2.04.78-2.37Z"/>
    <path class="cls-10" d="M229.61,355.97c.78-.32,8.43,2.96,8.66,3.72s-.93,2.59-1.07,2.18c-.33-1-8.19-4.3-8.36-3.52-.11.48-.02-2.06.77-2.38Z"/>
    <path class="cls-10" d="M229.79,362.08c.77-.33,8.27,2.9,8.49,3.64s-.93,2.59-1.06,2.18c-.32-.99-8.02-4.23-8.2-3.45-.11.48,0-2.05.77-2.38Z"/>
    <path class="cls-10" d="M230.04,367.13c.72-.34,7.59,2.61,7.77,3.34s-.94,2.58-1.05,2.18c-.26-.97-7.32-3.93-7.5-3.15-.11.48.06-2.02.79-2.37Z"/>
    <path class="cls-10" d="M229.56,387.97c.75-.34,7.9,2.74,8.11,3.48s-.94,2.59-1.06,2.18c-.29-.98-7.65-4.07-7.83-3.29-.11.48.03-2.04.78-2.37Z"/>
    <path class="cls-10" d="M229.05,386.62c.79-.32,8.56,3.02,8.8,3.77s-.93,2.59-1.07,2.18c-.34-1-8.33-4.36-8.5-3.57-.1.48-.03-2.06.76-2.38Z"/>
    <path class="cls-10" d="M229.56,389.87c.75-.33,8.02,2.79,8.23,3.53s-.94,2.59-1.06,2.18c-.3-.98-7.76-4.12-7.94-3.34-.11.48.02-2.04.78-2.37Z"/>
    <path class="cls-10" d="M229.78,411.2c.74-.34,7.81,2.7,8.01,3.44s-.94,2.59-1.06,2.18c-.28-.98-7.55-4.03-7.73-3.25-.11.48.04-2.03.78-2.37Z"/>
    <path class="cls-10" d="M229.57,392.58c.77-.33,8.23,2.88,8.45,3.63s-.93,2.59-1.06,2.18c-.31-.99-7.98-4.21-8.16-3.43-.11.48,0-2.05.77-2.38Z"/>
    <path class="cls-10" d="M229.79,404.68c.75-.34,7.9,2.74,8.11,3.48s-.94,2.59-1.06,2.18c-.29-.98-7.65-4.07-7.83-3.29-.11.48.03-2.04.78-2.37Z"/>
    <path class="cls-10" d="M229.97,397.2c.73-.34,7.65,2.63,7.84,3.37s-.94,2.58-1.05,2.18c-.27-.97-7.39-3.96-7.57-3.18-.11.48.06-2.03.79-2.37Z"/>
    <path class="cls-10" d="M229.58,395.23c.77-.33,8.23,2.88,8.45,3.62s-.93,2.59-1.06,2.18c-.31-.99-7.98-4.21-8.15-3.43-.11.48,0-2.05.77-2.38Z"/>
    <path class="cls-10" d="M229.79,407.27c.74-.34,7.81,2.7,8.01,3.44s-.94,2.59-1.06,2.18c-.28-.98-7.55-4.03-7.73-3.25-.11.48.04-2.03.78-2.37Z"/>
    <path class="cls-10" d="M229.95,401.49c.71-.35,7.43,2.54,7.6,3.26s-.95,2.58-1.05,2.19c-.25-.97-7.15-3.86-7.34-3.08-.12.48.08-2.02.79-2.37Z"/>
    <path class="cls-10" d="M229.55,399.03c.75-.34,7.9,2.74,8.11,3.48s-.94,2.59-1.06,2.18c-.29-.98-7.65-4.07-7.83-3.29-.11.48.03-2.04.78-2.37Z"/>
    <path class="cls-10" d="M229.34,402.76c.78-.32,8.43,2.96,8.66,3.72s-.93,2.59-1.07,2.18c-.33-1-8.19-4.3-8.36-3.52-.11.48-.02-2.06.77-2.38Z"/>
    <path class="cls-10" d="M229.53,408.87c.77-.33,8.27,2.9,8.49,3.64s-.93,2.59-1.06,2.18c-.32-.99-8.02-4.23-8.2-3.45-.11.48,0-2.05.77-2.38Z"/>
    <path class="cls-10" d="M229.88,376.88c.75-.34,7.9,2.74,8.11,3.48s-.94,2.59-1.06,2.18c-.29-.98-7.65-4.07-7.83-3.29-.11.48.03-2.04.78-2.37Z"/>
    <path class="cls-10" d="M230.05,369.39c.73-.34,7.65,2.63,7.84,3.37s-.94,2.58-1.05,2.18c-.27-.97-7.39-3.96-7.57-3.18-.11.48.06-2.03.79-2.37Z"/>
    <path class="cls-10" d="M229.87,379.46c.74-.34,7.81,2.7,8.01,3.44s-.94,2.59-1.06,2.18c-.28-.98-7.55-4.03-7.73-3.25-.11.48.04-2.03.78-2.37Z"/>
    <path class="cls-10" d="M230.03,373.68c.71-.35,7.43,2.54,7.6,3.26s-.95,2.58-1.05,2.19c-.25-.97-7.15-3.86-7.34-3.08-.12.48.08-2.02.79-2.37Z"/>
    <path class="cls-10" d="M229.64,371.22c.75-.34,7.9,2.74,8.11,3.48s-.94,2.59-1.06,2.18c-.29-.98-7.65-4.07-7.83-3.29-.11.48.03-2.04.78-2.37Z"/>
    <path class="cls-10" d="M229.43,374.95c.78-.32,8.43,2.96,8.66,3.72s-.93,2.59-1.07,2.18c-.33-1-8.19-4.3-8.36-3.52-.11.48-.02-2.06.77-2.38Z"/>
    <path class="cls-10" d="M229.36,381.28c.77-.33,8.27,2.9,8.49,3.64s-.93,2.59-1.06,2.18c-.32-.99-8.02-4.23-8.2-3.45-.11.48,0-2.05.77-2.38Z"/>
    <path class="cls-10" d="M229.03,468.12c.76-.33,8.16,2.85,8.37,3.59s-.93,2.59-1.06,2.18c-.31-.99-7.91-4.18-8.08-3.4-.11.48.01-2.05.77-2.38Z"/>
    <path class="cls-10" d="M229.43,450.85c.72-.34,7.59,2.61,7.77,3.34s-.94,2.58-1.05,2.18c-.26-.97-7.32-3.93-7.5-3.15-.11.48.06-2.02.79-2.37Z"/>
    <path class="cls-10" d="M229.43,460.92c.75-.34,7.9,2.74,8.11,3.48s-.94,2.59-1.06,2.18c-.29-.98-7.65-4.07-7.83-3.29-.11.48.03-2.04.78-2.37Z"/>
    <path class="cls-10" d="M229.61,453.44c.73-.34,7.65,2.63,7.84,3.37s-.94,2.58-1.05,2.18c-.27-.97-7.39-3.96-7.57-3.18-.11.48.06-2.03.79-2.37Z"/>
    <path class="cls-10" d="M229.42,463.51c.74-.34,7.81,2.7,8.01,3.44s-.94,2.59-1.06,2.18c-.28-.98-7.55-4.03-7.73-3.25-.11.48.04-2.03.78-2.37Z"/>
    <path class="cls-10" d="M229.59,457.73c.71-.35,7.43,2.54,7.6,3.26s-.95,2.58-1.05,2.19c-.25-.97-7.15-3.86-7.34-3.08-.12.48.08-2.02.79-2.37Z"/>
    <path class="cls-10" d="M229.19,455.27c.75-.34,7.9,2.74,8.11,3.48s-.94,2.59-1.06,2.18c-.29-.98-7.65-4.07-7.83-3.29-.11.48.03-2.04.78-2.37Z"/>
    <path class="cls-10" d="M228.98,459c.78-.32,8.43,2.96,8.66,3.72s-.93,2.59-1.07,2.18c-.33-1-8.19-4.3-8.36-3.52-.11.48-.02-2.06.77-2.38Z"/>
    <path class="cls-10" d="M228.92,465.33c.77-.33,8.27,2.9,8.49,3.64s-.93,2.59-1.06,2.18c-.32-.99-8.02-4.23-8.2-3.45-.11.48,0-2.05.77-2.38Z"/>
    <path class="cls-10" d="M229.77,413.92c.72-.34,7.59,2.61,7.77,3.34s-.94,2.58-1.05,2.18c-.26-.97-7.32-3.93-7.5-3.15-.11.48.06-2.02.79-2.37Z"/>
    <path class="cls-10" d="M229.39,470.66c.76-.33,8.16,2.85,8.37,3.59s-.93,2.59-1.06,2.18c-.31-.99-7.91-4.18-8.08-3.4-.11.48.01-2.05.77-2.38Z"/>
    <path class="cls-10" d="M229.46,474.56c.75-.34,7.9,2.74,8.11,3.48s-.94,2.59-1.06,2.18c-.29-.98-7.65-4.07-7.83-3.29-.11.48.03-2.04.78-2.37Z"/>
    <path class="cls-10" d="M228.96,473.21c.79-.32,8.56,3.02,8.8,3.77s-.93,2.59-1.07,2.18c-.34-1-8.33-4.36-8.5-3.57-.1.48-.03-2.06.76-2.38Z"/>
    <path class="cls-10" d="M229.46,476.46c.75-.33,8.02,2.79,8.23,3.53s-.94,2.59-1.06,2.18c-.3-.98-7.76-4.12-7.94-3.34-.11.48.02-2.04.78-2.37Z"/>
    <path class="cls-10" d="M229.69,497.79c.74-.34,7.81,2.7,8.01,3.44s-.94,2.59-1.06,2.18c-.28-.98-7.55-4.03-7.73-3.25-.11.48.04-2.03.78-2.37Z"/>
    <path class="cls-10" d="M229.48,479.17c.77-.33,8.23,2.88,8.45,3.63s-.93,2.59-1.06,2.18c-.31-.99-7.98-4.21-8.16-3.43-.11.48,0-2.05.77-2.38Z"/>
    <path class="cls-10" d="M229.7,491.27c.75-.34,7.9,2.74,8.11,3.48s-.94,2.59-1.06,2.18c-.29-.98-7.65-4.07-7.83-3.29-.11.48.03-2.04.78-2.37Z"/>
    <path class="cls-10" d="M229.87,483.79c.73-.34,7.65,2.63,7.84,3.37s-.94,2.58-1.05,2.18c-.27-.97-7.39-3.96-7.57-3.18-.11.48.06-2.03.79-2.37Z"/>
    <path class="cls-10" d="M229.48,481.82c.77-.33,8.23,2.88,8.45,3.62s-.93,2.59-1.06,2.18c-.31-.99-7.98-4.21-8.15-3.43-.11.48,0-2.05.77-2.38Z"/>
    <path class="cls-10" d="M229.69,493.86c.74-.34,7.81,2.7,8.01,3.44s-.94,2.59-1.06,2.18c-.28-.98-7.55-4.03-7.73-3.25-.11.48.04-2.03.78-2.37Z"/>
    <path class="cls-10" d="M229.85,488.08c.71-.35,7.43,2.54,7.6,3.26s-.95,2.58-1.05,2.19c-.25-.97-7.15-3.86-7.34-3.08-.12.48.08-2.02.79-2.37Z"/>
    <path class="cls-10" d="M229.46,485.62c.75-.34,7.9,2.74,8.11,3.48s-.94,2.59-1.06,2.18c-.29-.98-7.65-4.07-7.83-3.29-.11.48.03-2.04.78-2.37Z"/>
    <path class="cls-10" d="M229.25,489.35c.78-.32,8.43,2.96,8.66,3.72s-.93,2.59-1.07,2.18c-.33-1-8.19-4.3-8.36-3.52-.11.48-.02-2.06.77-2.38Z"/>
    <path class="cls-10" d="M229.43,495.46c.77-.33,8.27,2.9,8.49,3.64s-.93,2.59-1.06,2.18c-.32-.99-8.02-4.23-8.2-3.45-.11.48,0-2.05.77-2.38Z"/>
    <path class="cls-10" d="M229.67,500.51c.72-.34,7.59,2.61,7.77,3.34s-.94,2.58-1.05,2.18c-.26-.97-7.32-3.93-7.5-3.15-.11.48.06-2.02.79-2.37Z"/>
    <path class="cls-10" d="M229.33,416.09c.76-.33,8.16,2.85,8.37,3.59s-.93,2.59-1.06,2.18c-.31-.99-7.91-4.18-8.08-3.4-.11.48.01-2.05.77-2.38Z"/>
    <path class="cls-10" d="M229.4,419.98c.75-.34,7.9,2.74,8.11,3.48s-.94,2.59-1.06,2.18c-.29-.98-7.65-4.07-7.83-3.29-.11.48.03-2.04.78-2.37Z"/>
    <path class="cls-10" d="M228.9,418.64c.79-.32,8.56,3.02,8.8,3.77s-.93,2.59-1.07,2.18c-.34-1-8.33-4.36-8.5-3.57-.1.48-.03-2.06.76-2.38Z"/>
    <path class="cls-10" d="M229.4,421.89c.75-.33,8.02,2.79,8.23,3.53s-.94,2.59-1.06,2.18c-.3-.98-7.76-4.12-7.94-3.34-.11.48.02-2.04.78-2.37Z"/>
    <path class="cls-10" d="M229.63,443.21c.74-.34,7.81,2.7,8.01,3.44s-.94,2.59-1.06,2.18c-.28-.98-7.55-4.03-7.73-3.25-.11.48.04-2.03.78-2.37Z"/>
    <path class="cls-10" d="M229.42,424.6c.77-.33,8.23,2.88,8.45,3.63s-.93,2.59-1.06,2.18c-.31-.99-7.98-4.21-8.16-3.43-.11.48,0-2.05.77-2.38Z"/>
    <path class="cls-10" d="M229.64,436.7c.75-.34,7.9,2.74,8.11,3.48s-.94,2.59-1.06,2.18c-.29-.98-7.65-4.07-7.83-3.29-.11.48.03-2.04.78-2.37Z"/>
    <path class="cls-10" d="M229.81,429.22c.73-.34,7.65,2.63,7.84,3.37s-.94,2.58-1.05,2.18c-.27-.97-7.39-3.96-7.57-3.18-.11.48.06-2.03.79-2.37Z"/>
    <path class="cls-10" d="M229.42,427.24c.77-.33,8.23,2.88,8.45,3.62s-.93,2.59-1.06,2.18c-.31-.99-7.98-4.21-8.15-3.43-.11.48,0-2.05.77-2.38Z"/>
    <path class="cls-10" d="M229.63,439.28c.74-.34,7.81,2.7,8.01,3.44s-.94,2.59-1.06,2.18c-.28-.98-7.55-4.03-7.73-3.25-.11.48.04-2.03.78-2.37Z"/>
    <path class="cls-10" d="M229.79,433.51c.71-.35,7.43,2.54,7.6,3.26s-.95,2.58-1.05,2.19c-.25-.97-7.15-3.86-7.34-3.08-.12.48.08-2.02.79-2.37Z"/>
    <path class="cls-10" d="M229.4,431.05c.75-.34,7.9,2.74,8.11,3.48s-.94,2.59-1.06,2.18c-.29-.98-7.65-4.07-7.83-3.29-.11.48.03-2.04.78-2.37Z"/>
    <path class="cls-10" d="M229.19,434.77c.78-.32,8.43,2.96,8.66,3.72s-.93,2.59-1.07,2.18c-.33-1-8.19-4.3-8.36-3.52-.11.48-.02-2.06.77-2.38Z"/>
    <path class="cls-10" d="M229.37,440.88c.77-.33,8.27,2.9,8.49,3.64s-.93,2.59-1.06,2.18c-.32-.99-8.02-4.23-8.2-3.45-.11.48,0-2.05.77-2.38Z"/>
    <path class="cls-10" d="M229.61,445.94c.72-.34,7.59,2.61,7.77,3.34s-.94,2.58-1.05,2.18c-.26-.97-7.32-3.93-7.5-3.15-.11.48.06-2.02.79-2.37Z"/>
    <path class="cls-10" d="M229.39,448.18c.74-.34,7.81,2.7,8.01,3.44s-.94,2.59-1.06,2.18c-.28-.98-7.55-4.03-7.73-3.25-.11.48.04-2.03.78-2.37Z"/>
    <path class="cls-10" d="M229.22,384.01c.76-.33,8.16,2.85,8.37,3.59s-.93,2.59-1.06,2.18c-.31-.99-7.91-4.18-8.08-3.4-.11.48.01-2.05.77-2.38Z"/>
    <path class="cls-9" d="M116.52,259.96c1.44,2.89,1.03,5.74.6,6.31,0,0,5.48,9.79,5.07,9.07s1.21-4.99-.06-7.5l-5.6-7.88Z"/>
    <path class="cls-9" d="M116.91,288.27c-.48-2.3,1.02,6.3.07,7.4-.53-1.27,4.38,9.89,4.96,11.04.39.78-1.31-5.93-.53-6.6l-4.5-11.83Z"/>
    <path class="cls-9" d="M116.49,319.22c.41.71,1.15,6.61.66,7.65l4.7,8.87c-.37-.87-.48-2.56.32-4.6-1.41-4.85-3.44-8.57-5.68-11.91Z"/>
    <path class="cls-9" d="M117.49,351.31s.19,2.83-.22,3.56l5.11,10.64c-.07-.97-.26-2.78.06-4.13-1.2-3.79-2.93-7.07-4.95-10.07Z"/>
    <path class="cls-9" d="M116.65,378.58c.1,1.37.61,2.91.43,3.61l5.58,8.58c.01-1.19-.31-3.22.07-4.05-1.55-3.51-3.71-6.01-6.08-8.14Z"/>
    <path class="cls-9" d="M117.08,405.07s.37,2.1.09,5.29c1.13,2.56,3.07,5.25,5.3,7.98.19-2.36.51-2.53.77-3.92.73-4.22-3.17-6.6-6.16-9.35Z"/>
    <path class="cls-9" d="M117.09,433.31c.45.98-.15,2.72-.67,3.18l5.77,9.51c-.45-.99,0-2,1.12-3.51,1.28-1.92-2.06-5.41-6.22-9.18Z"/>
    <path class="cls-6" d="M116.24,383.51c0,1.07.71,13.04.49,19.36-.04,1.17.25,2.32.84,3.27,1.72,2.76,6.42,7.37,5.89,8.11.1-1.31.03-19.64,0-19.62.76-2.83-6.01-10.03-6.39-12.57-.23-1.57-.86-1.76-.83,1.46Z"/>
    <path class="cls-6" d="M117.12,326.28c-1.59,4.41-.25,19.94-.21,23.59,0,0,5.08,9.43,5.53,11.5.81-1.32.47-22.94-.72-26.02-.99-2.57-3.11-6.39-4.08-7.88-.29-.44-.5-1.27-.53-1.2Z"/>
    <path class="cls-6" d="M116.98,295.67c-2.02,2.29-1.05,16.07-.76,23.19,0,0,6.3,10.88,6.13,12.65,1.06.55,1.09-22.79.25-23.64-.56-.56-5.43-12.42-5.62-12.2Z"/>
    <path class="cls-6" d="M117.1,265.79c-.88,1.15-1.06,15.88-1.07,19.93,0,0,4.61,14.9,5.39,14.38,2.16-5.07,1.11-25.24.69-24.68-.22.15-3.69-6.79-4.91-8.81-.23-.38-.06-.85-.09-.81Z"/>
    <path class="cls-6" d="M115.17,246.12c-.86.6.9,7.03.64,12.72,0,0,5.6,9.54,6.38,9.18-.72-10.94.43-13.84.43-14.49-.26.12-7.24-7.55-7.45-7.4Z"/>
    <path class="cls-6" d="M116.57,436.26c-.86.6-.49,11.16-.76,16.84,0,0,5.6,9.54,6.38,9.18-.05-1.23,0-16.28,0-16.28-.26.12-5.41-9.89-5.62-9.74Z"/>
    <path class="cls-6" d="M116.43,410.58c-.61,1.24-.8,17.38.67,22.74,0,0,6.16,6.77,6.41,8.8.56-.63.31-20.69.26-20.72-1.28-3.35-5.42-7.21-6.56-10.32-.51-1.38-.09-1.92-.78-.5Z"/>
    <path class="cls-6" d="M116.59,354.54c-1.65,1.83.14,27.35.05,23.7,0,0,5.59,5.98,6.25,8.46.8-1.26.33-19.18,0-19.92-.23-.53-4.37-8.84-5.81-11.46-.29-.53.44-1.8-.49-.78Z"/>
    <path class="cls-10" d="M116.42,274.85c.75-.34,7.9,2.74,8.11,3.48s-.94,2.59-1.06,2.18c-.29-.98-7.65-4.07-7.83-3.29-.11.48.03-2.04.78-2.37Z"/>
    <path class="cls-10" d="M115.91,273.51c.79-.32,8.56,3.02,8.8,3.77s-.93,2.59-1.07,2.18c-.34-1-8.33-4.36-8.5-3.57-.1.48-.03-2.06.76-2.38Z"/>
    <path class="cls-10" d="M116.42,276.75c.75-.33,8.02,2.79,8.23,3.53s-.94,2.59-1.06,2.18c-.3-.98-7.76-4.12-7.94-3.34-.11.48.02-2.04.78-2.37Z"/>
    <path class="cls-10" d="M116.65,298.08c.74-.34,7.81,2.7,8.01,3.44s-.94,2.59-1.06,2.18c-.28-.98-7.55-4.03-7.73-3.25-.11.48.04-2.03.78-2.37Z"/>
    <path class="cls-10" d="M116.44,279.47c.77-.33,8.23,2.88,8.45,3.63s-.93,2.59-1.06,2.18c-.31-.99-7.98-4.21-8.16-3.43-.11.48,0-2.05.77-2.38Z"/>
    <path class="cls-10" d="M116.66,291.57c.75-.34,7.9,2.74,8.11,3.48s-.94,2.59-1.06,2.18c-.29-.98-7.65-4.07-7.83-3.29-.11.48.03-2.04.78-2.37Z"/>
    <path class="cls-10" d="M116.83,284.08c.73-.34,7.65,2.63,7.84,3.37s-.94,2.58-1.05,2.18c-.27-.97-7.39-3.96-7.57-3.18-.11.48.06-2.03.79-2.37Z"/>
    <path class="cls-10" d="M116.44,282.11c.77-.33,8.23,2.88,8.45,3.62s-.93,2.59-1.06,2.18c-.31-.99-7.98-4.21-8.15-3.43-.11.48,0-2.05.77-2.38Z"/>
    <path class="cls-10" d="M116.65,294.15c.74-.34,7.81,2.7,8.01,3.44s-.94,2.59-1.06,2.18c-.28-.98-7.55-4.03-7.73-3.25-.11.48.04-2.03.78-2.37Z"/>
    <path class="cls-10" d="M116.81,288.38c.71-.35,7.43,2.54,7.6,3.26s-.95,2.58-1.05,2.19c-.25-.97-7.15-3.86-7.34-3.08-.12.48.08-2.02.79-2.37Z"/>
    <path class="cls-10" d="M116.42,285.91c.75-.34,7.9,2.74,8.11,3.48s-.94,2.59-1.06,2.18c-.29-.98-7.65-4.07-7.83-3.29-.11.48.03-2.04.78-2.37Z"/>
    <path class="cls-10" d="M116.21,289.64c.78-.32,8.43,2.96,8.66,3.72s-.93,2.59-1.07,2.18c-.33-1-8.19-4.3-8.36-3.52-.11.48-.02-2.06.77-2.38Z"/>
    <path class="cls-10" d="M116.39,295.75c.77-.33,8.27,2.9,8.49,3.64s-.93,2.59-1.06,2.18c-.32-.99-8.02-4.23-8.2-3.45-.11.48,0-2.05.77-2.38Z"/>
    <path class="cls-10" d="M116.63,300.81c.72-.34,7.59,2.61,7.77,3.34s-.94,2.58-1.05,2.18c-.26-.97-7.32-3.93-7.5-3.15-.11.48.06-2.02.79-2.37Z"/>
    <path class="cls-10" d="M116.15,321.64c.75-.34,7.9,2.74,8.11,3.48s-.94,2.59-1.06,2.18c-.29-.98-7.65-4.07-7.83-3.29-.11.48.03-2.04.78-2.37Z"/>
    <path class="cls-10" d="M115.65,320.3c.79-.32,8.56,3.02,8.8,3.77s-.93,2.59-1.07,2.18c-.34-1-8.33-4.36-8.5-3.57-.1.48-.03-2.06.76-2.38Z"/>
    <path class="cls-10" d="M116.15,323.55c.75-.33,8.02,2.79,8.23,3.53s-.94,2.59-1.06,2.18c-.3-.98-7.76-4.12-7.94-3.34-.11.48.02-2.04.78-2.37Z"/>
    <path class="cls-10" d="M116.38,344.87c.74-.34,7.81,2.7,8.01,3.44s-.94,2.59-1.06,2.18c-.28-.98-7.55-4.03-7.73-3.25-.11.48.04-2.03.78-2.37Z"/>
    <path class="cls-10" d="M116.17,326.26c.77-.33,8.23,2.88,8.45,3.63s-.93,2.59-1.06,2.18c-.31-.99-7.98-4.21-8.16-3.43-.11.48,0-2.05.77-2.38Z"/>
    <path class="cls-10" d="M116.39,338.36c.75-.34,7.9,2.74,8.11,3.48s-.94,2.59-1.06,2.18c-.29-.98-7.65-4.07-7.83-3.29-.11.48.03-2.04.78-2.37Z"/>
    <path class="cls-10" d="M116.56,330.88c.73-.34,7.65,2.63,7.84,3.37s-.94,2.58-1.05,2.18c-.27-.97-7.39-3.96-7.57-3.18-.11.48.06-2.03.79-2.37Z"/>
    <path class="cls-10" d="M116.17,328.9c.77-.33,8.23,2.88,8.45,3.62s-.93,2.59-1.06,2.18c-.31-.99-7.98-4.21-8.15-3.43-.11.48,0-2.05.77-2.38Z"/>
    <path class="cls-10" d="M116.38,340.94c.74-.34,7.81,2.7,8.01,3.44s-.94,2.59-1.06,2.18c-.28-.98-7.55-4.03-7.73-3.25-.11.48.04-2.03.78-2.37Z"/>
    <path class="cls-10" d="M116.55,335.17c.71-.35,7.43,2.54,7.6,3.26s-.95,2.58-1.05,2.19c-.25-.97-7.15-3.86-7.34-3.08-.12.48.08-2.02.79-2.37Z"/>
    <path class="cls-10" d="M116.15,332.71c.75-.34,7.9,2.74,8.11,3.48s-.94,2.59-1.06,2.18c-.29-.98-7.65-4.07-7.83-3.29-.11.48.03-2.04.78-2.37Z"/>
    <path class="cls-10" d="M115.94,336.43c.78-.32,8.43,2.96,8.66,3.72s-.93,2.59-1.07,2.18c-.33-1-8.19-4.3-8.36-3.52-.11.48-.02-2.06.77-2.38Z"/>
    <path class="cls-10" d="M116.12,342.54c.77-.33,8.27,2.9,8.49,3.64s-.93,2.59-1.06,2.18c-.32-.99-8.02-4.23-8.2-3.45-.11.48,0-2.05.77-2.38Z"/>
    <path class="cls-10" d="M116.47,310.55c.75-.34,7.9,2.74,8.11,3.48s-.94,2.59-1.06,2.18c-.29-.98-7.65-4.07-7.83-3.29-.11.48.03-2.04.78-2.37Z"/>
    <path class="cls-10" d="M116.65,303.07c.73-.34,7.65,2.63,7.84,3.37s-.94,2.58-1.05,2.18c-.27-.97-7.39-3.96-7.57-3.18-.11.48.06-2.03.79-2.37Z"/>
    <path class="cls-10" d="M116.46,313.13c.74-.34,7.81,2.7,8.01,3.44s-.94,2.59-1.06,2.18c-.28-.98-7.55-4.03-7.73-3.25-.11.48.04-2.03.78-2.37Z"/>
    <path class="cls-10" d="M116.63,307.36c.71-.35,7.43,2.54,7.6,3.26s-.95,2.58-1.05,2.19c-.25-.97-7.15-3.86-7.34-3.08-.12.48.08-2.02.79-2.37Z"/>
    <path class="cls-10" d="M116.23,304.9c.75-.34,7.9,2.74,8.11,3.48s-.94,2.59-1.06,2.18c-.29-.98-7.65-4.07-7.83-3.29-.11.48.03-2.04.78-2.37Z"/>
    <path class="cls-10" d="M116.02,308.62c.78-.32,8.43,2.96,8.66,3.72s-.93,2.59-1.07,2.18c-.33-1-8.19-4.3-8.36-3.52-.11.48-.02-2.06.77-2.38Z"/>
    <path class="cls-10" d="M115.96,314.95c.77-.33,8.27,2.9,8.49,3.64s-.93,2.59-1.06,2.18c-.32-.99-8.02-4.23-8.2-3.45-.11.48,0-2.05.77-2.38Z"/>
    <path class="cls-10" d="M115.63,401.8c.76-.33,8.16,2.85,8.37,3.59s-.93,2.59-1.06,2.18c-.31-.99-7.91-4.18-8.08-3.4-.11.48.01-2.05.77-2.38Z"/>
    <path class="cls-10" d="M116.02,384.53c.72-.34,7.59,2.61,7.77,3.34s-.94,2.58-1.05,2.18c-.26-.97-7.32-3.93-7.5-3.15-.11.48.06-2.02.79-2.37Z"/>
    <path class="cls-10" d="M116.03,394.6c.75-.34,7.9,2.74,8.11,3.48s-.94,2.59-1.06,2.18c-.29-.98-7.65-4.07-7.83-3.29-.11.48.03-2.04.78-2.37Z"/>
    <path class="cls-10" d="M116.2,387.12c.73-.34,7.65,2.63,7.84,3.37s-.94,2.58-1.05,2.18c-.27-.97-7.39-3.96-7.57-3.18-.11.48.06-2.03.79-2.37Z"/>
    <path class="cls-10" d="M116.02,397.18c.74-.34,7.81,2.7,8.01,3.44s-.94,2.59-1.06,2.18c-.28-.98-7.55-4.03-7.73-3.25-.11.48.04-2.03.78-2.37Z"/>
    <path class="cls-10" d="M116.18,391.41c.71-.35,7.43,2.54,7.6,3.26s-.95,2.58-1.05,2.19c-.25-.97-7.15-3.86-7.34-3.08-.12.48.08-2.02.79-2.37Z"/>
    <path class="cls-10" d="M115.78,388.95c.75-.34,7.9,2.74,8.11,3.48s-.94,2.59-1.06,2.18c-.29-.98-7.65-4.07-7.83-3.29-.11.48.03-2.04.78-2.37Z"/>
    <path class="cls-10" d="M115.57,392.67c.78-.32,8.43,2.96,8.66,3.72s-.93,2.59-1.07,2.18c-.33-1-8.19-4.3-8.36-3.52-.11.48-.02-2.06.77-2.38Z"/>
    <path class="cls-10" d="M115.51,399c.77-.33,8.27,2.9,8.49,3.64s-.93,2.59-1.06,2.18c-.32-.99-8.02-4.23-8.2-3.45-.11.48,0-2.05.77-2.38Z"/>
    <path class="cls-10" d="M116.36,347.6c.72-.34,7.59,2.61,7.77,3.34s-.94,2.58-1.05,2.18c-.26-.97-7.32-3.93-7.5-3.15-.11.48.06-2.02.79-2.37Z"/>
    <path class="cls-10" d="M115.98,404.34c.76-.33,8.16,2.85,8.37,3.59s-.93,2.59-1.06,2.18c-.31-.99-7.91-4.18-8.08-3.4-.11.48.01-2.05.77-2.38Z"/>
    <path class="cls-10" d="M116.05,408.23c.75-.34,7.9,2.74,8.11,3.48s-.94,2.59-1.06,2.18c-.29-.98-7.65-4.07-7.83-3.29-.11.48.03-2.04.78-2.37Z"/>
    <path class="cls-10" d="M115.55,406.89c.79-.32,8.56,3.02,8.8,3.77s-.93,2.59-1.07,2.18c-.34-1-8.33-4.36-8.5-3.57-.1.48-.03-2.06.76-2.38Z"/>
    <path class="cls-10" d="M116.06,410.13c.75-.33,8.02,2.79,8.23,3.53s-.94,2.59-1.06,2.18c-.3-.98-7.76-4.12-7.94-3.34-.11.48.02-2.04.78-2.37Z"/>
    <path class="cls-10" d="M116.28,431.46c.74-.34,7.81,2.7,8.01,3.44s-.94,2.59-1.06,2.18c-.28-.98-7.55-4.03-7.73-3.25-.11.48.04-2.03.78-2.37Z"/>
    <path class="cls-10" d="M116.07,412.85c.77-.33,8.23,2.88,8.45,3.63s-.93,2.59-1.06,2.18c-.31-.99-7.98-4.21-8.16-3.43-.11.48,0-2.05.77-2.38Z"/>
    <path class="cls-10" d="M116.29,424.95c.75-.34,7.9,2.74,8.11,3.48s-.94,2.59-1.06,2.18c-.29-.98-7.65-4.07-7.83-3.29-.11.48.03-2.04.78-2.37Z"/>
    <path class="cls-10" d="M116.47,417.46c.73-.34,7.65,2.63,7.84,3.37s-.94,2.58-1.05,2.18c-.27-.97-7.39-3.96-7.57-3.18-.11.48.06-2.03.79-2.37Z"/>
    <path class="cls-10" d="M116.08,415.49c.77-.33,8.23,2.88,8.45,3.62s-.93,2.59-1.06,2.18c-.31-.99-7.98-4.21-8.15-3.43-.11.48,0-2.05.77-2.38Z"/>
    <path class="cls-10" d="M116.29,427.53c.74-.34,7.81,2.7,8.01,3.44s-.94,2.59-1.06,2.18c-.28-.98-7.55-4.03-7.73-3.25-.11.48.04-2.03.78-2.37Z"/>
    <path class="cls-10" d="M116.45,421.76c.71-.35,7.43,2.54,7.6,3.26s-.95,2.58-1.05,2.19c-.25-.97-7.15-3.86-7.34-3.08-.12.48.08-2.02.79-2.37Z"/>
    <path class="cls-10" d="M116.05,419.29c.75-.34,7.9,2.74,8.11,3.48s-.94,2.59-1.06,2.18c-.29-.98-7.65-4.07-7.83-3.29-.11.48.03-2.04.78-2.37Z"/>
    <path class="cls-10" d="M115.84,423.02c.78-.32,8.43,2.96,8.66,3.72s-.93,2.59-1.07,2.18c-.33-1-8.19-4.3-8.36-3.52-.11.48-.02-2.06.77-2.38Z"/>
    <path class="cls-10" d="M116.03,429.13c.77-.33,8.27,2.9,8.49,3.64s-.93,2.59-1.06,2.18c-.32-.99-8.02-4.23-8.2-3.45-.11.48,0-2.05.77-2.38Z"/>
    <path class="cls-10" d="M116.27,434.19c.72-.34,7.59,2.61,7.77,3.34s-.94,2.58-1.05,2.18c-.26-.97-7.32-3.93-7.5-3.15-.11.48.06-2.02.79-2.37Z"/>
    <path class="cls-10" d="M115.92,349.77c.76-.33,8.16,2.85,8.37,3.59s-.93,2.59-1.06,2.18c-.31-.99-7.91-4.18-8.08-3.4-.11.48.01-2.05.77-2.38Z"/>
    <path class="cls-10" d="M116,353.66c.75-.34,7.9,2.74,8.11,3.48s-.94,2.59-1.06,2.18c-.29-.98-7.65-4.07-7.83-3.29-.11.48.03-2.04.78-2.37Z"/>
    <path class="cls-10" d="M115.49,352.32c.79-.32,8.56,3.02,8.8,3.77s-.93,2.59-1.07,2.18c-.34-1-8.33-4.36-8.5-3.57-.1.48-.03-2.06.76-2.38Z"/>
    <path class="cls-10" d="M116,355.56c.75-.33,8.02,2.79,8.23,3.53s-.94,2.59-1.06,2.18c-.3-.98-7.76-4.12-7.94-3.34-.11.48.02-2.04.78-2.37Z"/>
    <path class="cls-10" d="M116.22,376.89c.74-.34,7.81,2.7,8.01,3.44s-.94,2.59-1.06,2.18c-.28-.98-7.55-4.03-7.73-3.25-.11.48.04-2.03.78-2.37Z"/>
    <path class="cls-10" d="M116.01,358.27c.77-.33,8.23,2.88,8.45,3.63s-.93,2.59-1.06,2.18c-.31-.99-7.98-4.21-8.16-3.43-.11.48,0-2.05.77-2.38Z"/>
    <path class="cls-10" d="M116.23,370.38c.75-.34,7.9,2.74,8.11,3.48s-.94,2.59-1.06,2.18c-.29-.98-7.65-4.07-7.83-3.29-.11.48.03-2.04.78-2.37Z"/>
    <path class="cls-10" d="M116.41,362.89c.73-.34,7.65,2.63,7.84,3.37s-.94,2.58-1.05,2.18c-.27-.97-7.39-3.96-7.57-3.18-.11.48.06-2.03.79-2.37Z"/>
    <path class="cls-10" d="M116.02,360.92c.77-.33,8.23,2.88,8.45,3.62s-.93,2.59-1.06,2.18c-.31-.99-7.98-4.21-8.15-3.43-.11.48,0-2.05.77-2.38Z"/>
    <path class="cls-10" d="M116.23,372.96c.74-.34,7.81,2.7,8.01,3.44s-.94,2.59-1.06,2.18c-.28-.98-7.55-4.03-7.73-3.25-.11.48.04-2.03.78-2.37Z"/>
    <path class="cls-10" d="M116.39,367.19c.71-.35,7.43,2.54,7.6,3.26s-.95,2.58-1.05,2.19c-.25-.97-7.15-3.86-7.34-3.08-.12.48.08-2.02.79-2.37Z"/>
    <path class="cls-10" d="M115.99,364.72c.75-.34,7.9,2.74,8.11,3.48s-.94,2.59-1.06,2.18c-.29-.98-7.65-4.07-7.83-3.29-.11.48.03-2.04.78-2.37Z"/>
    <path class="cls-10" d="M115.78,368.45c.78-.32,8.43,2.96,8.66,3.72s-.93,2.59-1.07,2.18c-.33-1-8.19-4.3-8.36-3.52-.11.48-.02-2.06.77-2.38Z"/>
    <path class="cls-10" d="M115.97,374.56c.77-.33,8.27,2.9,8.49,3.64s-.93,2.59-1.06,2.18c-.32-.99-8.02-4.23-8.2-3.45-.11.48,0-2.05.77-2.38Z"/>
    <path class="cls-10" d="M116.21,379.62c.72-.34,7.59,2.61,7.77,3.34s-.94,2.58-1.05,2.18c-.26-.97-7.32-3.93-7.5-3.15-.11.48.06-2.02.79-2.37Z"/>
    <path class="cls-10" d="M115.98,381.86c.74-.34,7.81,2.7,8.01,3.44s-.94,2.59-1.06,2.18c-.28-.98-7.55-4.03-7.73-3.25-.11.48.04-2.03.78-2.37Z"/>
    <path class="cls-10" d="M115.82,317.68c.76-.33,8.16,2.85,8.37,3.59s-.93,2.59-1.06,2.18c-.31-.99-7.91-4.18-8.08-3.4-.11.48.01-2.05.77-2.38Z"/>
  </g>
  <g id="Layer_3" data-name="Layer 3">
    <path class="cls-5" d="M56.19,241.18c-.14,2.28-.29,4.04-.77,6.3-.67,3.12-.24,11.75.91,14.9.26.57.5.05,1.05-.87.49-.97,1.59-2.04,1.32-3.45-1.3-4.82.24-10.95.71-15.21,0-.02-3.18-2.2-3.22-1.66Z"/>
    <path class="cls-5" d="M58.5,255.15c.27-.33,1.73,1.3,1.83,2.46.24,2.77-2.3,5.72-2.54,6.18-2.35,4.64-4.4,5.06-3.12,10.89.65,1.63,1.68,3.04,3.33,3.02,4.53.34,4.69-6.23,2.98-9.63-.71-1.44-3.83-2.86-2.97-4.18.66-1.01,1.14-2.07,1.53-2.42.54.76,1.24,1.12,2.13,2.19,3.46,4.04,4.6,9.36,2.12,14.39-1.95,3.44-6.43,3.66-9.46,1.6-3.48-2.36-3.76-8.72-1.88-13.12.87-2.04,3.78-5.09,5.01-7.66.51-1.06.58-.87.8-1.71.12-.45.01-1.59.23-1.99Z"/>
    <path class="cls-5" d="M55.78,277.77c-.17,2.28.12,2.74-.36,4.99-.67,3.12-.24,11.75.91,14.9.26.57.5.05,1.05-.87.49-.97,1.59-2.04,1.32-3.45-1.3-4.82.11-9.8.45-14.6.11-1.47-3.23-2.8-3.36-.97Z"/>
    <path class="cls-5" d="M58.5,290.44c.27-.33,1.73,1.3,1.83,2.46.24,2.77-2.3,5.72-2.54,6.18-2.35,4.64-4.4,5.06-3.12,10.89.65,1.63,1.68,3.04,3.33,3.02,4.53.34,4.69-6.23,2.98-9.63-.71-1.44-3.83-2.86-2.97-4.18.66-1.01,1.14-2.07,1.53-2.42.54.76,1.24,1.12,2.13,2.19,3.46,4.04,4.6,9.36,2.12,14.39-1.95,3.44-6.43,3.66-9.46,1.6-3.48-2.36-3.76-8.72-1.88-13.12.87-2.04,3.78-5.09,5.01-7.66.51-1.06.58-.87.8-1.71.12-.45.01-1.59.23-1.99Z"/>
    <path class="cls-5" d="M55.78,312.5c-.17,2.28.12,2.74-.36,4.99-.67,3.12-.24,11.75.91,14.9.26.57.5.05,1.05-.87.49-.97,1.59-2.04,1.32-3.45-1.3-4.82.11-9.8.45-14.6.11-1.47-3.23-2.8-3.36-.97Z"/>
    <path class="cls-5" d="M58.5,325.16c.27-.33,1.73,1.3,1.83,2.46.24,2.77-2.3,5.72-2.54,6.18-2.35,4.64-4.4,5.06-3.12,10.89.65,1.63,1.68,3.04,3.33,3.02,4.53.34,4.69-6.23,2.98-9.63-.71-1.44-3.83-2.86-2.97-4.18.66-1.01,1.14-2.07,1.53-2.42.54.76,1.24,1.12,2.13,2.19,3.46,4.04,4.6,9.36,2.12,14.39-1.95,3.44-6.43,3.66-9.46,1.6-3.48-2.36-3.76-8.72-1.88-13.12.87-2.04,3.78-5.09,5.01-7.66.51-1.06.58-.87.8-1.71.12-.45.01-1.59.23-1.99Z"/>
    <path class="cls-5" d="M55.78,347.78c-.17,2.28.12,2.74-.36,4.99-.67,3.12-.24,11.75.91,14.9.26.57.5.05,1.05-.87.49-.97,1.59-2.04,1.32-3.45-1.3-4.82.11-9.8.45-14.6.11-1.47-3.23-2.8-3.36-.97Z"/>
    <path class="cls-5" d="M58.5,360.45c.27-.33,1.73,1.3,1.83,2.46.24,2.77-2.3,5.72-2.54,6.18-2.35,4.64-4.4,5.06-3.12,10.89.65,1.63,1.68,3.04,3.33,3.02,4.53.34,4.69-6.23,2.98-9.63-.71-1.44-3.83-2.86-2.97-4.18.66-1.01,1.14-2.07,1.53-2.42.54.76,1.24,1.12,2.13,2.19,3.46,4.04,4.6,9.36,2.12,14.39-1.95,3.44-6.43,3.66-9.46,1.6-3.48-2.36-3.76-8.72-1.88-13.12.87-2.04,3.78-5.09,5.01-7.66.51-1.06.58-.87.8-1.71.12-.45.01-1.59.23-1.99Z"/>
    <path class="cls-5" d="M59.08,381.7c-.32-.87-1.15-1.13-2.16-.99-1.25.17-.22,2.15-.28,3.29.13,1.26-.53,1.97-.92,3.08-1.17,2.54-.93,3.96-.62,6.49,0,0,2.09,1.71,2.41,1.24.31-.68.01-2.58.2-3.45.08-.87.13-1.53.51-2.5,1.04-2.11,1.34-4.8.85-7.16Z"/>
    <path class="cls-7" d="M54.31,239.82c2.39,1.06,4.66,2.43,6.82,4.09"/>
    <path class="cls-7" d="M52.68,392.26c2.09,1.56,4.41,2.86,6.91,3.93"/>
    <path class="cls-4" d="M415.87,448.03c-.16,2.29-.32,4.05-.85,6.31-.73,3.12-.26,11.77,1,14.93.28.57.55.05,1.15-.87.54-.98,1.74-2.04,1.45-3.46-1.43-4.82.27-10.96.78-15.24,0-.02-3.5-2.2-3.53-1.67Z"/>
    <path class="cls-4" d="M418.4,462.03c.29-.33,1.9,1.31,2.01,2.46.27,2.78-2.53,5.73-2.79,6.19-2.58,4.65-4.83,5.07-3.42,10.91.72,1.63,1.85,3.05,3.66,3.02,4.98.34,5.15-6.24,3.28-9.65-.78-1.45-4.21-2.87-3.27-4.19.72-1.01,1.26-2.07,1.68-2.43.59.77,1.37,1.12,2.34,2.19,3.8,4.05,5.05,9.38,2.33,14.41-2.14,3.45-7.06,3.66-10.39,1.6-3.82-2.37-4.13-8.73-2.06-13.15.96-2.04,4.15-5.1,5.5-7.67.56-1.06.63-.87.88-1.72.13-.45.02-1.59.26-2Z"/>
    <path class="cls-4" d="M415.42,484.69c-.19,2.28.13,2.74-.4,5-.73,3.12-.26,11.77,1,14.93.28.57.55.05,1.15-.87.54-.98,1.74-2.04,1.45-3.46-1.43-4.82.12-9.82.49-14.62.12-1.47-3.54-2.81-3.69-.97Z"/>
    <path class="cls-4" d="M418.4,497.37c.29-.33,1.9,1.31,2.01,2.46.27,2.78-2.53,5.73-2.79,6.19-2.58,4.65-4.83,5.07-3.42,10.91.72,1.63,1.85,3.05,3.66,3.02,4.98.34,5.15-6.24,3.28-9.65-.78-1.45-4.21-2.87-3.27-4.19.72-1.01,1.26-2.07,1.68-2.43.59.77,1.37,1.12,2.34,2.19,3.8,4.05,5.05,9.38,2.33,14.41-2.14,3.45-7.06,3.66-10.39,1.6-3.82-2.37-4.13-8.73-2.06-13.15.96-2.04,4.15-5.1,5.5-7.67.56-1.06.63-.87.88-1.72.13-.45.02-1.59.26-2Z"/>
    <path class="cls-4" d="M415.42,519.46c-.19,2.28.13,2.74-.4,5-.73,3.12-.26,11.77,1,14.93.28.57.55.05,1.15-.87.54-.98,1.74-2.04,1.45-3.46-1.43-4.82.12-9.82.49-14.62.12-1.47-3.54-2.81-3.69-.97Z"/>
    <path class="cls-4" d="M418.4,532.15c.29-.33,1.9,1.31,2.01,2.46.27,2.78-2.53,5.73-2.79,6.19-2.58,4.65-4.83,5.07-3.42,10.91.72,1.63,1.85,3.05,3.66,3.02,4.98.34,5.15-6.24,3.28-9.65-.78-1.45-4.21-2.87-3.27-4.19.72-1.01,1.26-2.07,1.68-2.43.59.77,1.37,1.12,2.34,2.19,3.8,4.05,5.05,9.38,2.33,14.41-2.14,3.45-7.06,3.66-10.39,1.6-3.82-2.37-4.13-8.73-2.06-13.15.96-2.04,4.15-5.1,5.5-7.67.56-1.06.63-.87.88-1.72.13-.45.02-1.59.26-2Z"/>
    <path class="cls-4" d="M415.42,554.81c-.19,2.28.13,2.74-.4,5-.73,3.12-.26,11.77,1,14.93.28.57.55.05,1.15-.87.54-.98,1.74-2.04,1.45-3.46-1.43-4.82.12-9.82.49-14.62.12-1.47-3.54-2.81-3.69-.97Z"/>
    <path class="cls-4" d="M418.4,567.5c.29-.33,1.9,1.31,2.01,2.46.27,2.78-2.53,5.73-2.79,6.19-2.58,4.65-4.83,5.07-3.42,10.91.72,1.63,1.85,3.05,3.66,3.02,4.98.34,5.15-6.24,3.28-9.65-.78-1.45-4.21-2.87-3.27-4.19.72-1.01,1.26-2.07,1.68-2.43.59.77,1.37,1.12,2.34,2.19,3.8,4.05,5.05,9.38,2.33,14.41-2.14,3.45-7.06,3.66-10.39,1.6-3.82-2.37-4.13-8.73-2.06-13.15.96-2.04,4.15-5.1,5.5-7.67.56-1.06.63-.87.88-1.72.13-.45.02-1.59.26-2Z"/>
    <path class="cls-4" d="M419.04,588.78c-.35-.87-1.26-1.13-2.37-.99-1.37.17-.24,2.15-.3,3.3.14,1.26-.58,1.98-1.01,3.08-1.29,2.54-1.02,3.96-.68,6.5,0,0,2.3,1.71,2.65,1.24.34-.69.01-2.58.22-3.46.09-.87.14-1.53.57-2.5,1.14-2.11,1.47-4.8.94-7.18Z"/>
    <path class="cls-8" d="M413.8,446.67c2.62,1.06,5.11,2.44,7.49,4.09"/>
    <path class="cls-8" d="M412.01,599.36c2.3,1.56,4.84,2.86,7.59,3.94"/>
  </g>
</svg>