<?xml version="1.0" encoding="UTF-8"?>
<svg xmlns="http://www.w3.org/2000/svg" viewBox="0 0 508.65 398.41">
  <defs>
    <style>
      .cls-1, .cls-2 {
        fill: none;
      }

      .cls-1, .cls-2, .cls-3 {
        stroke: #231f20;
        stroke-miterlimit: 10;
      }

      .cls-2 {
        stroke-width: .5px;
      }

      .cls-3 {
        fill: #fff;
        stroke-width: .3px;
      }
    </style>
  </defs>
  <g id="Bookblock">
    <path class="cls-1" d="M290.74,382.84c-2.86-3.26-1.84-6.83,0-10.46-2.52-3.05-1.81-6.66,0-10.46-2.64-3.26-1.7-6.83,0-10.46-2.12-2.32-2.56-5.57,0-10.46-2.37-3.13-1.96-6.68,0-10.46-2.18-3.1-2.15-6.59,0-10.46-2.37-2.94-1.96-6.52,0-10.46-2.77-3.03-2.63-6.54,0-10.46-1.95-1.61-3.26-7.67,0-10.42,3.19-2.69,213.41-123.37,213.41-123.37L217.29.58,4.02,123.2c-3.12,2.45-2.06,6.29,0,10.46-2.89,2.64-2.29,6.31,0,10.46-2.71,2.38-2.47,5.97,0,10.46-2.52,2.19-2.29,5.8,0,10.46-2.65,1.93-2.17,5.7,0,10.46-2.43,3.17-1.67,6.76,0,10.46-2.56,2.87-2.25,6.43,0,10.46-2.5,2.48-1.96,6.19,0,10.46-2.56,2.49-2.25,6.1,0,10.46-2.18,2.11-2.48,9.03,0,10.46s286.72,165.48,286.72,165.48"/>
    <polyline class="cls-1" points="4.02 217.36 290.74 382.84 504.15 259.91 502.88 259.17"/>
    <polyline class="cls-1" points="4.02 206.9 290.74 372.38 504.15 249.25 502.71 248.4"/>
    <polyline class="cls-1" points="4.02 196.44 290.74 361.92 504.15 238.79 502.75 238.05"/>
    <polyline class="cls-1" points="4.02 185.98 290.74 351.46 504.15 228.53 502.63 227.74"/>
    <polyline class="cls-1" points="4.02 175.51 290.74 341 504.15 217.81 503.09 217.21"/>
    <polyline class="cls-1" points="4.02 165.05 290.74 330.53 504.15 208.21 502.69 207.47"/>
    <polyline class="cls-1" points="4.02 154.59 290.74 320.07 504.15 196.94 502.59 196.12"/>
    <polyline class="cls-1" points="4.02 144.13 290.74 309.61 504.15 186.28 502.65 185.41"/>
    <polyline class="cls-1" points="4.02 133.67 290.74 299.15 504.15 175.11 502.25 174"/>
    <path class="cls-2" d="M502.79,166.14l2.68,1.63-213.53,123.8c-1.48,1.01-1.54,3.76,0,3.62s213.53-124.34,213.53-124.34l-.94-.47"/>
    <path class="cls-2" d="M503.37,165.8l1.31.76s-211.74,122.59-213.41,123.73-1.98,7.59,0,6.44,213.41-124.14,213.41-124.14l-1.24-.55"/>
    <path class="cls-2" d="M503.62,165.66l3.32,2.11-213.8,124.34c-.84.46-1.05,1.95,0,1.34s213.8-124.47,213.8-124.47l-1.08-.58"/>
    <path class="cls-2" d="M503.32,175.6l1.61.91s-211.82,122.52-213.84,124.25-1.57,7.04,0,6.84,213.41-123.26,213.41-123.26l-.95-.44"/>
    <path class="cls-2" d="M504.02,177.03l1.45.8s-211.35,122.86-213.04,123.67-1,4.46,0,3.89,213.04-122.59,213.04-122.59l-1.57-.79"/>
    <path class="cls-2" d="M504.15,176.87l2.79,1.63s-211.99,122.73-213.26,123.4-1.16,2.14,0,1.48,213.26-123.13,213.26-123.13l-1.55-.84"/>
    <path class="cls-2" d="M502.69,187.12l1.85,1.03s-211.03,121.58-212.75,122.73-1.65,7.79,0,6.84,212.05-122.33,212.05-122.33l-1.28-.69"/>
    <path class="cls-2" d="M503.6,188.7l1.34.8s-210.94,121.39-212.17,122.46-1.92,3.69,0,3.49,211.39-121.65,211.39-121.65l-1.14-.64"/>
    <path class="cls-1" d="M290.74,382.84c-1.6,3.48-1.86,7.03.15,10.71l213.26-123.27-1.55-.81"/>
    <path class="cls-2" d="M503.18,197.5l1.73.93s-210.76,121.83-212.75,123.13-2.52,7.61,0,6.17l212.75-121.52-1.04-.54"/>
    <path class="cls-2" d="M503.36,199.32l1.57.77s-211.14,121.77-212.17,122.46-2.17,4.59,0,3.35,212.17-120.85,212.17-120.85l-1.63-.68"/>
    <path class="cls-2" d="M504.63,200.27l1.64.76-212.33,121.92c-.61.72-.47,1.05,0,1.21l212.33-121.49-1.55-.75"/>
    <path class="cls-2" d="M502.78,208.99l1.93.85s-211.04,120.82-212.76,121.9-2.47,8.42,0,7,212.76-122.46,212.76-122.46l-1.22-.75"/>
    <path class="cls-2" d="M504.25,210.1l1.21.59s-210.71,120.85-212.7,122.06-1.91,5.58,0,4.47,212.17-122.53,212.17-122.53l-.78-.52"/>
    <path class="cls-2" d="M504.46,209.98l2.48,1.24s-211.59,121.35-213,122.19-1.39,2.54,0,1.74,213-122.59,213-122.59l-1.25-.63"/>
    <path class="cls-2" d="M503.99,217.91l1.48.79s-211.65,121.66-213.54,123.26-2.22,8.39,0,7.11,212.76-122.51,212.76-122.51l-1.37-.59"/>
    <path class="cls-2" d="M504.81,219.07l1.46.87s-212.83,122.78-213.53,123c-1.41.87-1.89,5.13.03,4.02s212.17-121.92,212.17-121.92l-1.4-.7"/>
    <path class="cls-2" d="M504.93,220.71l1.33.71s-210.82,121.17-212.33,122.06-1.3,2.49,0,1.74,212.33-122.46,212.33-122.46l-1.27-.61"/>
    <path class="cls-2" d="M503.95,228.64l1.51.82s-212.16,121.52-213.8,123.26-2.13,7.93,0,6.71,212.49-122.19,212.49-122.19l-1.34-.66"/>
    <path class="cls-2" d="M504.76,229.87l1.51.81s-211.79,121.43-213.26,122.59-1.52,4.77,0,3.89,211.93-121.79,211.93-121.79l-.78-.41"/>
    <path class="cls-2" d="M505.19,231.3l1.75.85s-211.55,120.8-212.73,121.79-1.4,2.28,0,1.48,212.73-122.06,212.73-122.06l-1.21-.52"/>
    <path class="cls-2" d="M502.97,237.93l2.86,1.52s-212.58,122.33-213.94,123.43-2.04,8.52,0,7.34,212.62-122.86,212.62-122.86l-1.15-.68"/>
    <path class="cls-2" d="M504.59,240.15l1.68.87s-212.14,121.85-213.26,122.71-2.22,5.44,0,4.16,211.93-122.11,211.93-122.11l-.74-.43"/>
    <path class="cls-2" d="M505.05,241.72l1.89.89-212.73,121.52c-.86.81-1.17,2.42,0,1.74s211.25-121.25,211.25-121.25l-.99-.6"/>
    <path class="cls-2" d="M502.74,250.06l1.41.73s-210.48,120.86-212.49,122.73c-1.85,1.72-1.98,8.51,0,7.11,2.28-1.62,212.49-122.19,212.49-122.19l-1.09-.68"/>
    <path class="cls-2" d="M503.96,249.36l2.31,1.43s-211.91,122.46-212.7,122.88-2.31,5.06,0,3.74,211.36-120.72,211.36-120.72l-1.12-.76"/>
    <path class="cls-2" d="M505.95,250.97l1.65,1-212.74,122.44c-.8.96-1.13,1.9,0,1.25l212.07-121.52-1.53-.9"/>
    <path class="cls-2" d="M503.43,258.85l2.72,1.55s-211.66,121.86-213.8,123.13-2.16,8.35,0,7.11,212.49-122.46,212.49-122.46l-1.18-.56"/>
    <path class="cls-2" d="M505.56,260.74l1.38.78s-211.47,121.67-213.26,122.73-1.74,5.03,0,4.02,211.26-121.39,211.26-121.39l-.96-.43"/>
    <path class="cls-2" d="M506.6,261.72l1.54.88s-211.89,121.14-213,121.92-1.1,2.1,0,1.48,213-121.92,213-121.92l-1.29-.74"/>
    <path class="cls-2" d="M293.57,312.83l212.33-122.58-212.33,122.58Z"/>
    <path class="cls-2" d="M293.57,312.83c-1.17.74-.69,1.67,0,1.27s212.29-122.59,212.29-122.59l-1.04-.63"/>
    <line class="cls-2" x1="505.74" y1="190.25" x2="504.63" y2="189.58"/>
  </g>
  <g id="Support">
    <rect class="cls-3" x="287.89" y="277.16" width="3.13" height="121.1"/>
    <rect class="cls-3" x="1.44" y="116.04" width="3.13" height="121.1"/>
  </g>
  <g id="Integral_Stitching" data-name="Integral Stitching">
    <path class="cls-3" d="M290.44,377.09c-2.09.32-5.43-.83-6.66-2.1-.44-.45-.51-.53-.39-.93h0c.13-.4.57-.38.91-.27,1.94,1.87,5.42,2.46,6.23,2,.63-.36.88.36.75.76h0c-.13.4-.28.45-.85.54Z"/>
    <path class="cls-3" d="M291.24,335.27c-2.17.32-5.67-.83-6.99-2.1-.47-.45-.55-.53-.43-.93h0c.12-.41.58-.38.94-.27,2.07,1.87,5.71,2.46,6.54,2,.64-.36.93.36.8.77h0c-.12.41-.28.45-.87.54Z"/>
    <path class="cls-3" d="M291.13,366.89c-2.1.37-5.49-.7-6.77-1.94-.46-.44-.53-.51-.42-.92h0c.12-.41.56-.39.91-.29,2.01,1.82,5.53,2.33,6.34,1.84.62-.37.9.34.78.75h0c-.12.41-.27.46-.84.56Z"/>
    <path class="cls-3" d="M291.67,314.03c-2.16.48-5.77-.43-7.19-1.6-.51-.42-.59-.49-.5-.9h0c.09-.41.56-.42.93-.34,2.22,1.72,5.93,2.06,6.74,1.53.62-.4.96.29.87.71h0c-.09.41-.25.47-.84.6Z"/>
    <path class="cls-3" d="M291.18,345.79c-2.15.32-5.6-.84-6.89-2.11-.46-.45-.54-.53-.42-.93h0c.12-.41.58-.38.93-.27,2.03,1.87,5.63,2.47,6.45,2.01.64-.36.91.36.79.77h0c-.12.41-.28.45-.87.54Z"/>
    <path class="cls-3" d="M291.25,356.1c-2.08.49-5.56-.38-6.91-1.55-.48-.42-.57-.48-.47-.9h0c.09-.41.54-.42.9-.34,2.13,1.7,5.7,2.01,6.47,1.48.6-.41.92.29.83.7h0c-.09.41-.24.47-.81.61Z"/>
    <path class="cls-3" d="M291.09,324.9c-2.09.35-5.45-.75-6.7-2-.45-.45-.52-.52-.4-.92h0c.12-.41.57-.39.91-.28,1.97,1.84,5.47,2.38,6.27,1.9.62-.37.89.35.77.75h0c-.12.41-.28.46-.84.55Z"/>
    <path class="cls-3" d="M290.51,387.47c-2.15.26-5.57-.99-6.82-2.3-.45-.47-.52-.54-.39-.94h0c.14-.4.59-.36.94-.24,1.97,1.93,5.55,2.63,6.39,2.19.65-.34.9.39.77.79h0c-.14.4-.3.45-.88.52Z"/>
    <path class="cls-3" d="M292.55,376.26c1.01,2.87.86,8.18-.1,10.52-.34.83-.39.97-.86.97h0c-.47,0-.58-.65-.58-1.19,1.36-3.62.88-8.9.12-9.86-.58-.74.1-1.43.57-1.42h0c.47,0,.57.21.85.99Z"/>
    <path class="cls-3" d="M292.78,334.63c1.59,2.67,1.27,7.99-.35,10.51-.49.76-.42.96-.89.95h0c-.47-.02-.57-.67-.55-1.21,2.12-3.53,1.55-8.83.36-9.85-.72-.61.14-1.42.61-1.41h0c.47.02.4.3.82,1.01Z"/>
    <path class="cls-3" d="M292.58,355.62c1.19,3.02.8,8.39-.47,10.65-.44.79-.41.97-.87.95h0c-.45-.02-.45-.91-.25-1.5.62.2,2.04-8.13.2-9.71-.7-.6.15-1.44.6-1.42h0c.45.02.47.25.78,1.03Z"/>
    <path class="cls-3" d="M292.63,313.36c1.55,3.02,1.1,8.38-.47,10.65-.51.74-.41.97-.87.95h0c-.45-.02-.45-.91-.25-1.5,1.64-3.31,1.82-7.19.2-9.71-.5-.78.15-1.44.6-1.42h0c.45.02.4.29.78,1.03Z"/>
    <path class="cls-3" d="M290.79,303.7c-1.93.55-5.13-.22-6.38-1.34-.45-.4-.52-.46-.44-.88h0c.09-.41.5-.44.83-.37,1.96,1.63,5.26,1.83,5.98,1.28.56-.42.85.26.76.67h0c-.09.41-.23.48-.75.63Z"/>
    <path class="cls-3" d="M291.13,293.8c-1.99.71-5.48.21-6.93-.8-.52-.36-.6-.42-.56-.84h0c.05-.42.49-.48.84-.44,2.26,1.47,5.78,1.39,6.49.78.55-.47.93.19.88.61h0c-.05.42-.19.5-.73.69Z"/>
    <path class="cls-3" d="M292.36,292.93c1.27,2.23,1.07,6.94.11,9.21,0,0-.32,1.03-.5,1.38s-1.02.14-1.02-.33c1.83-5.55.61-8.74.21-9.45-.43-.76-.24-1.33.25-1.34h0c.5,0,.58-.13.95.52Z"/>
    <path class="cls-3" d="M7.35,214.75c-2.09.32-5.43-.83-6.66-2.1-.44-.45-.51-.53-.39-.93h0c.13-.4.57-.38.91-.27,1.94,1.87,5.42,2.46,6.23,2,.63-.36.88.36.75.76h0c-.13.4-.28.45-.85.54Z"/>
    <path class="cls-3" d="M8.14,172.94c-2.17.32-5.67-.83-6.99-2.1-.47-.45-.55-.53-.43-.93h0c.12-.41.58-.38.94-.27,2.07,1.87,5.71,2.46,6.54,2,.64-.36.93.36.8.77h0c-.12.41-.28.45-.87.54Z"/>
    <path class="cls-3" d="M8.04,204.55c-2.1.37-5.49-.7-6.77-1.94-.46-.44-.53-.51-.42-.92h0c.12-.41.56-.39.91-.29,2.01,1.82,5.53,2.33,6.34,1.84.62-.37.9.34.78.75h0c-.12.41-.27.46-.84.56Z"/>
    <path class="cls-3" d="M8.57,151.69c-2.16.48-5.77-.43-7.19-1.6-.51-.42-.59-.49-.5-.9h0c.09-.41.56-.42.93-.34,2.22,1.72,5.93,2.06,6.74,1.53.62-.4.96.29.87.71h0c-.09.41-.25.47-.84.6Z"/>
    <path class="cls-3" d="M8.09,183.45c-2.15.32-5.6-.84-6.89-2.11-.46-.45-.54-.53-.42-.93h0c.12-.41.58-.38.93-.27,2.03,1.87,5.63,2.47,6.45,2.01.64-.36.91.36.79.77h0c-.12.41-.28.45-.87.54Z"/>
    <path class="cls-3" d="M8.16,193.77c-2.08.49-5.56-.38-6.91-1.55-.48-.42-.57-.48-.47-.9h0c.09-.41.54-.42.9-.34,2.13,1.7,5.7,2.01,6.47,1.48.6-.41.92.29.83.7h0c-.09.41-.24.47-.81.61Z"/>
    <path class="cls-3" d="M8,162.57c-2.09.35-5.45-.75-6.7-2-.45-.45-.52-.52-.4-.92h0c.12-.41.57-.39.91-.28,1.97,1.84,5.47,2.38,6.27,1.9.62-.37.89.35.77.75h0c-.12.41-.28.46-.84.55Z"/>
    <path class="cls-3" d="M7.42,225.13c-2.15.26-5.57-.99-6.82-2.3-.45-.47-.52-.54-.39-.94h0c.14-.4.59-.36.94-.24,1.97,1.93,5.55,2.63,6.39,2.19.65-.34.9.39.77.79h0c-.14.4-.3.45-.88.52Z"/>
    <path class="cls-3" d="M7.7,141.36c-1.93.55-5.13-.22-6.38-1.34-.45-.4-.52-.46-.44-.88h0c.09-.41.5-.44.83-.37,1.96,1.63,5.26,1.83,5.98,1.28.56-.42.85.26.76.67h0c-.09.41-.23.48-.75.63Z"/>
    <path class="cls-3" d="M8.04,131.46c-1.99.71-5.48.21-6.93-.8-.52-.36-.6-.42-.56-.84h0c.05-.42.49-.48.84-.44,2.26,1.47,5.78,1.39,6.49.78.55-.47.93.19.88.61h0c-.05.42-.19.5-.73.69Z"/>
  </g>
</svg>