<?xml version="1.0" encoding="UTF-8"?>
<svg xmlns="http://www.w3.org/2000/svg" viewBox="0 0 2045.39 1181.01">
  <defs>
    <style>
      .cls-1, .cls-2, .cls-3, .cls-4 {
        fill: none;
      }

      .cls-1, .cls-2, .cls-3, .cls-4, .cls-5 {
        stroke: #231f20;
        stroke-miterlimit: 10;
      }

      .cls-2 {
        stroke-width: .1px;
      }

      .cls-3 {
        stroke-width: .75px;
      }

      .cls-4, .cls-5 {
        stroke-width: .5px;
      }

      .cls-5 {
        fill: #fff;
      }
    </style>
  </defs>
  <g id="Bookblock">
    <path class="cls-1" d="M1081.89,889.65c-4.69-5.36-3.02-11.21,0-17.17-4.14-5.01-2.97-10.93,0-17.17-4.33-5.36-2.79-11.21,0-17.17-3.48-3.82-4.21-9.14,0-17.17-3.89-5.14-3.22-10.97,0-17.17-3.58-5.08-3.52-10.82,0-17.17-3.89-4.82-3.22-10.7,0-17.17-4.55-4.97-4.32-10.73,0-17.17-3.2-2.65-5.35-12.59,0-17.1,5.23-4.41,350.34-202.53,350.34-202.53l-470.91-270.49-350.1,201.3c-5.12,4.03-3.39,10.33,0,17.18-4.74,4.34-3.75,10.35,0,17.17-4.45,3.91-4.05,9.8,0,17.17-4.14,3.6-3.77,9.52,0,17.17-4.34,3.18-3.56,9.36,0,17.17-4,5.2-2.74,11.09,0,17.17-4.21,4.71-3.7,10.56,0,17.17-4.1,4.07-3.22,10.15,0,17.17-4.21,4.09-3.7,10.01,0,17.17-3.58,3.46-4.06,14.83,0,17.17s470.67,271.65,470.67,271.65"/>
    <polyline class="cls-1" points="611.22 618 1081.89 889.65 1432.23 687.85 1430.14 686.62"/>
    <polyline class="cls-1" points="611.22 600.82 1081.89 872.47 1432.23 670.35 1429.86 668.95"/>
    <polyline class="cls-1" points="611.22 583.65 1081.89 855.3 1432.23 653.17 1429.93 651.96"/>
    <polyline class="cls-1" points="611.22 566.47 1081.89 838.13 1432.23 636.33 1429.74 635.03"/>
    <polyline class="cls-1" points="611.22 549.3 1081.89 820.95 1432.23 618.74 1430.5 617.75"/>
    <polyline class="cls-1" points="611.22 532.13 1081.89 803.78 1432.23 602.97 1429.83 601.76"/>
    <polyline class="cls-1" points="611.22 514.95 1081.89 786.6 1432.23 584.47 1429.66 583.13"/>
    <polyline class="cls-1" points="611.22 497.78 1081.89 769.43 1432.23 566.97 1429.77 565.54"/>
    <polyline class="cls-1" points="611.22 480.6 1081.89 752.25 1432.23 548.64 1429.12 546.82"/>
    <path class="cls-4" d="M1429.99,533.91l4.39,2.68-350.53,203.23c-2.42,1.65-2.53,6.17,0,5.94s350.53-204.11,350.53-204.11l-1.54-.77"/>
    <path class="cls-4" d="M1430.94,533.36l2.14,1.24s-347.58,201.25-350.34,203.12-3.25,12.46,0,10.57,350.34-203.78,350.34-203.78l-2.04-.91"/>
    <path class="cls-4" d="M1431.35,533.12l5.45,3.46-350.97,204.11c-1.39.75-1.72,3.2,0,2.2s350.97-204.33,350.97-204.33l-1.77-.95"/>
    <path class="cls-4" d="M1430.86,549.43l2.65,1.49s-347.71,201.12-351.03,203.97c-3.32,2.85-2.58,11.56,0,11.23s350.34-202.35,350.34-202.35l-1.56-.73"/>
    <path class="cls-4" d="M1432.01,551.79l2.38,1.31s-346.94,201.69-349.72,203.01c-2.77,1.32-1.64,7.33,0,6.39s349.72-201.25,349.72-201.25l-2.57-1.3"/>
    <path class="cls-4" d="M1432.23,551.53l4.58,2.67s-348,201.47-350.09,202.57-1.9,3.52,0,2.42,350.09-202.13,350.09-202.13l-2.55-1.39"/>
    <path class="cls-4" d="M1429.84,568.35l3.04,1.7s-346.42,199.58-349.24,201.47c-2.83,1.89-2.71,12.79,0,11.23,2.71-1.56,348.1-200.81,348.1-200.81l-2.1-1.14"/>
    <path class="cls-4" d="M1431.32,570.95l2.19,1.31s-346.27,199.27-348.3,201.03-3.15,6.05,0,5.72c3.15-.33,347.01-199.71,347.01-199.71l-1.87-1.04"/>
    <path class="cls-1" d="M1081.89,889.65c-2.63,5.71-3.05,11.54.25,17.59l350.08-202.37-2.54-1.33"/>
    <path class="cls-4" d="M1430.64,585.39l2.83,1.52s-345.98,199.99-349.24,202.13c-3.26,2.13-4.14,12.49,0,10.13s349.24-199.49,349.24-199.49l-1.71-.89"/>
    <path class="cls-4" d="M1430.94,588.38l2.58,1.27s-346.6,199.9-348.3,201.03-3.55,7.53,0,5.5,348.3-198.38,348.3-198.38l-2.67-1.12"/>
    <path class="cls-4" d="M1433.02,589.94l2.69,1.25-348.55,200.15c-1,1.19-.77,1.73,0,1.98l348.55-199.43-2.54-1.24"/>
    <path class="cls-4" d="M1429.99,604.25l3.16,1.4s-346.44,198.33-349.26,200.11-4.06,13.82,0,11.49c4.06-2.34,349.26-201.03,349.26-201.03l-2.01-1.23"/>
    <path class="cls-4" d="M1432.4,606.08l1.98.96s-345.9,198.38-349.17,200.37-3.13,9.15,0,7.34,348.3-201.13,348.3-201.13l-1.28-.86"/>
    <path class="cls-4" d="M1432.74,605.89l4.07,2.04s-347.34,199.21-349.65,200.59-2.28,4.18,0,2.86,349.65-201.25,349.65-201.25l-2.04-1.03"/>
    <path class="cls-4" d="M1431.96,618.89l2.43,1.3s-347.44,199.71-350.54,202.35-3.65,13.77,0,11.67c3.65-2.1,349.26-201.11,349.26-201.11l-2.26-.96"/>
    <path class="cls-4" d="M1433.31,620.81l2.39,1.43s-349.38,201.55-350.53,201.91c-2.31,1.43-3.11,8.42.04,6.61,3.15-1.81,348.3-200.15,348.3-200.15l-2.29-1.16"/>
    <path class="cls-4" d="M1433.51,623.5l2.19,1.16s-346.07,198.91-348.55,200.37-2.13,4.09,0,2.86,348.55-201.03,348.55-201.03l-2.08-1"/>
    <path class="cls-4" d="M1431.9,636.52l2.49,1.35s-348.27,199.49-350.97,202.35-3.5,13.02,0,11.01,348.82-200.59,348.82-200.59l-2.2-1.08"/>
    <path class="cls-4" d="M1433.23,638.53l2.48,1.33s-347.67,199.34-350.09,201.24-2.5,7.82,0,6.39,347.9-199.93,347.9-199.93l-1.28-.68"/>
    <path class="cls-4" d="M1433.93,640.88l2.87,1.4s-347.28,198.3-349.21,199.93-2.3,3.74,0,2.42,349.21-200.37,349.21-200.37l-1.98-.85"/>
    <path class="cls-4" d="M1430.29,651.76l4.69,2.49s-348.96,200.81-351.19,202.62-3.34,13.99,0,12.05,349.04-201.69,349.04-201.69l-1.88-1.11"/>
    <path class="cls-4" d="M1432.95,655.41l2.75,1.43s-348.25,200.03-350.09,201.44-3.64,8.92,0,6.83,347.9-200.45,347.9-200.45l-1.21-.7"/>
    <path class="cls-4" d="M1433.71,657.98l3.1,1.47-349.21,199.49c-1.42,1.34-1.92,3.97,0,2.86s346.79-199.05,346.79-199.05l-1.63-.99"/>
    <path class="cls-4" d="M1429.91,671.68l2.31,1.2s-345.51,198.4-348.82,201.47c-3.03,2.82-3.24,13.97,0,11.67,3.74-2.65,348.82-200.59,348.82-200.59l-1.79-1.11"/>
    <path class="cls-4" d="M1431.92,670.53l3.79,2.35s-347.86,201.02-349.16,201.71-3.79,8.31,0,6.14,346.96-198.16,346.96-198.16l-1.84-1.24"/>
    <path class="cls-4" d="M1435.19,673.18l2.72,1.64-349.24,201c-1.32,1.58-1.85,3.11,0,2.05s348.14-199.49,348.14-199.49l-2.51-1.48"/>
    <path class="cls-4" d="M1431.05,686.11l4.47,2.54s-347.45,200.04-350.97,202.13-3.54,13.71,0,11.67,348.82-201.03,348.82-201.03l-1.94-.91"/>
    <path class="cls-4" d="M1434.54,689.21l2.27,1.28s-347.15,199.73-350.09,201.47-2.86,8.25,0,6.61,346.8-199.27,346.8-199.27l-1.57-.7"/>
    <path class="cls-4" d="M1436.26,690.81l2.53,1.45s-347.83,198.85-349.65,200.15-1.8,3.45,0,2.42,349.65-200.15,349.65-200.15l-2.12-1.21"/>
    <path class="cls-4" d="M1086.55,774.71l348.55-201.22-348.55,201.22Z"/>
    <path class="cls-4" d="M1086.55,774.71c-1.93,1.21-1.12,2.74,0,2.09s348.48-201.25,348.48-201.25l-1.71-1.04"/>
  </g>
  <g id="Pierced_Spine" data-name="Pierced Spine">
    <ellipse class="cls-3" cx="694.27" cy="538.7" rx=".66" ry="2.42" transform="translate(-132.89 835.37) rotate(-57.54)"/>
    <ellipse class="cls-3" cx="694.27" cy="554.97" rx=".66" ry="2.42" transform="translate(-146.62 842.91) rotate(-57.54)"/>
    <ellipse class="cls-3" cx="694.27" cy="572.78" rx=".66" ry="2.42" transform="translate(-161.65 851.16) rotate(-57.54)"/>
    <ellipse class="cls-3" cx="694.27" cy="590.6" rx=".66" ry="2.42" transform="translate(-176.68 859.41) rotate(-57.54)"/>
    <ellipse class="cls-3" cx="694.27" cy="607.77" rx=".66" ry="2.42" transform="translate(-191.17 867.37) rotate(-57.54)"/>
    <ellipse class="cls-3" cx="693.92" cy="624.94" rx=".66" ry="2.42" transform="translate(-205.82 875.03) rotate(-57.54)"/>
    <ellipse class="cls-3" cx="694.27" cy="641.37" rx=".66" ry="2.42" transform="translate(-219.52 882.93) rotate(-57.54)"/>
    <ellipse class="cls-3" cx="694.27" cy="658.87" rx=".66" ry="2.42" transform="translate(-234.29 891.04) rotate(-57.54)"/>
    <ellipse class="cls-3" cx="694.27" cy="675.71" rx=".66" ry="2.42" transform="translate(-248.5 898.85) rotate(-57.54)"/>
    <ellipse class="cls-3" cx="694.27" cy="521.15" rx=".66" ry="2.42" transform="translate(-118.08 827.24) rotate(-57.54)"/>
    <ellipse class="cls-3" cx="837.55" cy="620.23" rx=".66" ry="2.42" transform="translate(-135.3 994.03) rotate(-57.54)"/>
    <ellipse class="cls-3" cx="837.55" cy="636.5" rx=".66" ry="2.42" transform="translate(-149.03 1001.57) rotate(-57.54)"/>
    <ellipse class="cls-3" cx="837.55" cy="654.31" rx=".66" ry="2.42" transform="translate(-164.06 1009.82) rotate(-57.54)"/>
    <ellipse class="cls-3" cx="837.55" cy="672.13" rx=".66" ry="2.42" transform="translate(-179.09 1018.07) rotate(-57.54)"/>
    <ellipse class="cls-3" cx="837.55" cy="689.3" rx=".66" ry="2.42" transform="translate(-193.58 1026.03) rotate(-57.54)"/>
    <ellipse class="cls-3" cx="837.2" cy="706.47" rx=".66" ry="2.42" transform="translate(-208.24 1033.69) rotate(-57.54)"/>
    <ellipse class="cls-3" cx="837.55" cy="722.89" rx=".66" ry="2.42" transform="translate(-221.93 1041.59) rotate(-57.54)"/>
    <ellipse class="cls-3" cx="837.55" cy="740.4" rx=".66" ry="2.42" transform="translate(-236.7 1049.7) rotate(-57.54)"/>
    <ellipse class="cls-3" cx="837.55" cy="757.24" rx=".66" ry="2.42" transform="translate(-250.91 1057.51) rotate(-57.54)"/>
    <ellipse class="cls-3" cx="837.55" cy="602.67" rx=".66" ry="2.42" transform="translate(-120.49 985.9) rotate(-57.54)"/>
    <ellipse class="cls-3" cx="981.15" cy="702.68" rx=".66" ry="2.42" transform="translate(-138.35 1153.39) rotate(-57.54)"/>
    <ellipse class="cls-3" cx="981.15" cy="718.95" rx=".66" ry="2.42" transform="translate(-152.07 1160.93) rotate(-57.54)"/>
    <ellipse class="cls-3" cx="981.15" cy="736.76" rx=".66" ry="2.42" transform="translate(-167.11 1169.18) rotate(-57.54)"/>
    <ellipse class="cls-3" cx="981.15" cy="754.58" rx=".66" ry="2.42" transform="translate(-182.14 1177.44) rotate(-57.54)"/>
    <ellipse class="cls-3" cx="981.15" cy="771.75" rx=".66" ry="2.42" transform="translate(-196.63 1185.39) rotate(-57.54)"/>
    <ellipse class="cls-3" cx="980.79" cy="788.93" rx=".66" ry="2.42" transform="translate(-211.28 1193.05) rotate(-57.54)"/>
    <ellipse class="cls-3" cx="981.15" cy="805.35" rx=".66" ry="2.42" transform="translate(-224.97 1200.96) rotate(-57.54)"/>
    <ellipse class="cls-3" cx="981.15" cy="822.85" rx=".66" ry="2.42" transform="translate(-239.74 1209.07) rotate(-57.54)"/>
    <ellipse class="cls-3" cx="981.15" cy="839.7" rx=".66" ry="2.42" transform="translate(-253.96 1216.87) rotate(-57.54)"/>
    <ellipse class="cls-3" cx="981.15" cy="685.13" rx=".66" ry="2.42" transform="translate(-123.54 1145.26) rotate(-57.54)"/>
  </g>
  <g id="Comb_Lining" data-name="Comb Lining">
    <line class="cls-5" x1="1160.3" y1="879.89" x2="1161.52" y2="879.09"/>
    <path class="cls-5" d="M856.43,698.79c-1.51-12.12.32-46.29,1.06-52.55l-29.97-17.64c-1.22,8.22-1.78,43.37-.43,52.72l-113.51-65.93c-.78-11.5-.83-41.84-.09-47.51l-28.29-16.59c-1,8.26-1.66,38.07-.77,46.75l-66.84-40.19c-.25-35.76-.39-70.31.87-87.91,8.33,11.23,287.37,166.65,444.9,257.35-3.42,24.69-3.9,54.58-2.19,88.32l-63.37-35.31c-1.04-.71.28-55.13.8-54.46.57.72-26.3-15.29-26.3-15.29-1.11,7.08-2.18,45.99-1.73,53.75"/>
    <path class="cls-5" d="M617.69,470.38c8.33,11.23,287.37,166.65,444.9,257.35-3.42,24.69-3.9,54.58-2.19,88.32l-63.37-35.31c-1.04-.71.28-55.13.8-54.46.57.72-26.3-15.29-26.3-15.29-1.11,7.08-2.18,45.99-1.73,53.75l-114.14-65.52c-1.51-12.12.32-46.29,1.06-52.55l-29.97-17.64c-1.22,8.22-1.78,43.37-.43,52.72l-113.51-65.93c-.78-11.5-.83-41.84-.09-47.51l-28.29-16.59c-1,8.26-1.66,38.07-.77,46.75l-66.84-40.19c-.25-35.76-.39-70.31.87-87.91Z"/>
    <line class="cls-5" x1="1062.59" y1="727.73" x2="1063.36" y2="727.3"/>
    <line class="cls-5" x1="1060.41" y1="816.08" x2="1061.18" y2="815.65"/>
    <line class="cls-5" x1="969.83" y1="764.5" x2="970.6" y2="764.07"/>
    <line class="cls-5" x1="826.37" y1="681.82" x2="827.14" y2="681.39"/>
    <line class="cls-5" x1="683.52" y1="598.53" x2="684.29" y2="598.09"/>
    <line class="cls-5" x1="617.74" y1="470.46" x2="618.52" y2="470.03"/>
    <path class="cls-5" d="M1061.53,935.22c-8.36-11.22-287.71-166.06-445.43-256.44,3.37-24.7,3.79-54.59,2.01-88.33l63.44,35.18c1.04.71-.17,55.13-.69,54.46-.57-.72,26.33,15.24,26.33,15.24,1.1-7.08,2.09-45.99,1.62-53.75l114.27,65.29c1.54,12.11-.22,46.3-.96,52.55l30,17.58c1.2-8.23,1.69-43.38.32-52.72l113.65,65.69c.8,11.5.91,41.84.19,47.51l28.33,16.53c.98-8.26,1.58-38.07.67-46.75l66.92,40.06c.32,35.76.53,70.31-.69,87.91Z"/>
    <line class="cls-5" x1="791.5" y1="515.72" x2="790.71" y2="516.12"/>
    <line class="cls-5" x1="798.21" y1="427.6" x2="797.42" y2="428"/>
    <line class="cls-5" x1="886.02" y1="483.75" x2="885.23" y2="484.15"/>
    <line class="cls-5" x1="1025.06" y1="573.68" x2="1024.27" y2="574.07"/>
    <line class="cls-5" x1="1163.46" y1="664.18" x2="1162.66" y2="664.57"/>
    <line class="cls-5" x1="1222.58" y1="795.45" x2="1221.79" y2="795.84"/>
  </g>
  <g id="Grid">
    <g>
      <polygon class="cls-2" points=".1 592.73 1026.41 .06 2045.29 588.28 1018.99 1180.95 .1 592.73"/>
      <line class="cls-2" x1="979.8" y1="1158.33" x2="2006.11" y2="565.65"/>
      <line class="cls-2" x1="940.61" y1="1135.71" x2="1966.92" y2="543.03"/>
      <line class="cls-2" x1="901.42" y1="1113.08" x2="1927.73" y2="520.41"/>
      <line class="cls-2" x1="862.23" y1="1090.46" x2="1888.54" y2="497.78"/>
      <line class="cls-2" x1="823.05" y1="1067.83" x2="1849.35" y2="475.16"/>
      <line class="cls-2" x1="783.86" y1="1045.21" x2="1810.17" y2="452.54"/>
      <line class="cls-2" x1="744.67" y1="1022.59" x2="1770.98" y2="429.91"/>
      <line class="cls-2" x1="705.48" y1="999.96" x2="1731.79" y2="407.29"/>
      <line class="cls-2" x1="666.29" y1="977.34" x2="1692.6" y2="384.66"/>
      <line class="cls-2" x1="627.11" y1="954.71" x2="1653.42" y2="362.04"/>
      <line class="cls-2" x1="587.92" y1="932.09" x2="1614.23" y2="339.42"/>
      <line class="cls-2" x1="548.73" y1="909.47" x2="1575.04" y2="316.79"/>
      <line class="cls-2" x1="509.54" y1="886.84" x2="1535.85" y2="294.17"/>
      <line class="cls-2" x1="470.35" y1="864.22" x2="1496.66" y2="271.54"/>
      <line class="cls-2" x1="431.17" y1="841.6" x2="1457.48" y2="248.92"/>
      <line class="cls-2" x1="391.98" y1="818.97" x2="1418.29" y2="226.3"/>
      <line class="cls-2" x1="352.79" y1="796.35" x2="1379.1" y2="203.67"/>
      <line class="cls-2" x1="313.6" y1="773.72" x2="1339.91" y2="181.05"/>
      <line class="cls-2" x1="274.42" y1="751.1" x2="1300.72" y2="158.42"/>
      <line class="cls-2" x1="235.23" y1="728.48" x2="1261.54" y2="135.8"/>
      <line class="cls-2" x1="196.04" y1="705.85" x2="1222.35" y2="113.18"/>
      <line class="cls-2" x1="156.85" y1="683.23" x2="1183.16" y2="90.55"/>
      <line class="cls-2" x1="117.66" y1="660.6" x2="1143.97" y2="67.93"/>
      <line class="cls-2" x1="78.48" y1="637.98" x2="1104.79" y2="45.31"/>
      <line class="cls-2" x1="39.29" y1="615.36" x2="1065.6" y2="22.68"/>
      <line class="cls-2" x1="986.94" y1="22.85" x2="2005.82" y2="611.07"/>
      <line class="cls-2" x1="947.46" y1="45.65" x2="1966.35" y2="633.87"/>
      <line class="cls-2" x1="907.99" y1="68.44" x2="1926.87" y2="656.66"/>
      <line class="cls-2" x1="868.52" y1="91.24" x2="1887.4" y2="679.46"/>
      <line class="cls-2" x1="829.04" y1="114.03" x2="1847.93" y2="702.25"/>
      <line class="cls-2" x1="789.57" y1="136.83" x2="1808.45" y2="725.05"/>
      <line class="cls-2" x1="750.1" y1="159.62" x2="1768.98" y2="747.84"/>
      <line class="cls-2" x1="710.62" y1="182.42" x2="1729.51" y2="770.64"/>
      <line class="cls-2" x1="671.15" y1="205.21" x2="1690.03" y2="793.44"/>
      <line class="cls-2" x1="631.67" y1="228.01" x2="1650.56" y2="816.23"/>
      <line class="cls-2" x1="592.2" y1="250.8" x2="1611.09" y2="839.03"/>
      <line class="cls-2" x1="552.73" y1="273.6" x2="1571.61" y2="861.82"/>
      <line class="cls-2" x1="513.25" y1="296.4" x2="1532.14" y2="884.62"/>
      <line class="cls-2" x1="473.78" y1="319.19" x2="1492.67" y2="907.41"/>
      <line class="cls-2" x1="434.31" y1="341.99" x2="1453.19" y2="930.21"/>
      <line class="cls-2" x1="394.83" y1="364.78" x2="1413.72" y2="953"/>
      <line class="cls-2" x1="355.36" y1="387.58" x2="1374.25" y2="975.8"/>
      <line class="cls-2" x1="315.89" y1="410.37" x2="1334.77" y2="998.59"/>
      <line class="cls-2" x1="276.41" y1="433.17" x2="1295.3" y2="1021.39"/>
      <line class="cls-2" x1="236.94" y1="455.96" x2="1255.83" y2="1044.18"/>
      <line class="cls-2" x1="197.47" y1="478.76" x2="1216.35" y2="1066.98"/>
      <line class="cls-2" x1="157.99" y1="501.55" x2="1176.88" y2="1089.77"/>
      <line class="cls-2" x1="118.52" y1="524.35" x2="1137.41" y2="1112.57"/>
      <line class="cls-2" x1="79.05" y1="547.14" x2="1097.93" y2="1135.36"/>
      <line class="cls-2" x1="39.57" y1="569.94" x2="1058.46" y2="1158.16"/>
    </g>
  </g>
</svg>