<?xml version="1.0" encoding="UTF-8"?>
<svg xmlns="http://www.w3.org/2000/svg" viewBox="0 0 831.79 679.38">
  <defs>
    <style>
      .cls-1, .cls-2, .cls-3, .cls-4 {
        fill: none;
      }

      .cls-1, .cls-2, .cls-3, .cls-4, .cls-5, .cls-6 {
        stroke: #231f20;
        stroke-miterlimit: 10;
      }

      .cls-7, .cls-5, .cls-6 {
        fill: #fff;
      }

      .cls-2, .cls-5 {
        stroke-width: .2px;
      }

      .cls-3 {
        stroke-width: .4px;
      }

      .cls-4 {
        stroke-width: .5px;
      }

      .cls-6 {
        stroke-width: .7px;
      }
    </style>
  </defs>
  <g id="Bookblock">
    <path class="cls-1" d="M474.39,628.1c-4.69-5.36-3.02-11.21,0-17.17-4.14-5.01-2.97-10.93,0-17.17-4.33-5.36-2.79-11.21,0-17.17-3.48-3.82-4.21-9.14,0-17.17-3.89-5.14-3.22-10.97,0-17.17-3.58-5.08-3.52-10.82,0-17.17-3.89-4.82-3.22-10.7,0-17.17-4.55-4.97-4.32-10.73,0-17.17-3.2-2.65-5.35-12.59,0-17.1,5.23-4.41,350.34-202.53,350.34-202.53L353.82.58,3.72,201.87c-5.12,4.03-3.39,10.33,0,17.18-4.74,4.34-3.75,10.35,0,17.17-4.45,3.91-4.05,9.8,0,17.17-4.14,3.6-3.77,9.52,0,17.17-4.34,3.18-3.56,9.36,0,17.17-4,5.2-2.74,11.09,0,17.17-4.21,4.71-3.7,10.56,0,17.17-4.1,4.07-3.22,10.15,0,17.17-4.21,4.09-3.7,10.01,0,17.17-3.58,3.46-4.06,14.83,0,17.17s470.67,271.65,470.67,271.65"/>
    <polyline class="cls-1" points="3.72 356.45 474.39 628.1 824.73 426.3 822.65 425.07"/>
    <polyline class="cls-1" points="3.72 339.27 474.39 610.92 824.73 408.8 822.36 407.4"/>
    <polyline class="cls-1" points="3.72 322.1 474.39 593.75 824.73 391.62 822.43 390.41"/>
    <polyline class="cls-1" points="3.72 304.92 474.39 576.58 824.73 374.78 822.24 373.48"/>
    <polyline class="cls-1" points="3.72 287.75 474.39 559.4 824.73 357.19 823 356.2"/>
    <polyline class="cls-1" points="3.72 270.58 474.39 542.23 824.73 341.42 822.33 340.21"/>
    <polyline class="cls-1" points="3.72 253.4 474.39 525.05 824.73 322.92 822.16 321.58"/>
    <polyline class="cls-1" points="3.72 236.23 474.39 507.88 824.73 305.42 822.28 303.99"/>
    <polyline class="cls-1" points="3.72 219.05 474.39 490.7 824.73 287.09 821.62 285.27"/>
    <path class="cls-4" d="M822.49,272.36l4.39,2.68-350.53,203.23c-2.42,1.65-2.53,6.17,0,5.94s350.53-204.11,350.53-204.11l-1.54-.77"/>
    <path class="cls-4" d="M823.44,271.81l2.14,1.24s-347.58,201.25-350.34,203.12-3.25,12.46,0,10.57,350.34-203.78,350.34-203.78l-2.04-.91"/>
    <path class="cls-4" d="M823.85,271.57l5.45,3.46-350.97,204.11c-1.39.75-1.72,3.2,0,2.2s350.97-204.33,350.97-204.33l-1.77-.95"/>
    <path class="cls-4" d="M823.36,287.88l2.65,1.49s-347.71,201.12-351.03,203.97c-3.32,2.85-2.58,11.56,0,11.23s350.34-202.35,350.34-202.35l-1.56-.73"/>
    <path class="cls-4" d="M824.51,290.24l2.38,1.31s-346.94,201.69-349.72,203.01c-2.77,1.32-1.64,7.33,0,6.39s349.72-201.25,349.72-201.25l-2.57-1.3"/>
    <path class="cls-4" d="M824.73,289.98l4.58,2.67s-348,201.47-350.09,202.57-1.9,3.52,0,2.42,350.09-202.13,350.09-202.13l-2.55-1.39"/>
    <path class="cls-4" d="M822.34,306.8l3.04,1.7s-346.42,199.58-349.24,201.47c-2.83,1.89-2.71,12.79,0,11.23,2.71-1.56,348.1-200.81,348.1-200.81l-2.1-1.14"/>
    <path class="cls-4" d="M823.82,309.4l2.19,1.31s-346.27,199.27-348.3,201.03-3.15,6.05,0,5.72c3.15-.33,347.01-199.71,347.01-199.71l-1.87-1.04"/>
    <path class="cls-1" d="M474.39,628.1c-2.63,5.71-3.05,11.54.25,17.59l350.08-202.37-2.54-1.33"/>
    <path class="cls-4" d="M823.14,323.84l2.83,1.52s-345.98,199.99-349.24,202.13c-3.26,2.13-4.14,12.49,0,10.13s349.24-199.49,349.24-199.49l-1.71-.89"/>
    <path class="cls-4" d="M823.44,326.83l2.58,1.27s-346.6,199.9-348.3,201.03-3.55,7.53,0,5.5,348.3-198.38,348.3-198.38l-2.67-1.12"/>
    <path class="cls-4" d="M825.52,328.39l2.69,1.25-348.55,200.15c-1,1.19-.77,1.73,0,1.98l348.55-199.43-2.54-1.24"/>
    <path class="cls-4" d="M822.49,342.7l3.16,1.4s-346.44,198.33-349.26,200.11-4.06,13.82,0,11.49c4.06-2.34,349.26-201.03,349.26-201.03l-2.01-1.23"/>
    <path class="cls-4" d="M824.9,344.53l1.98.96s-345.9,198.38-349.17,200.37-3.13,9.15,0,7.34,348.3-201.13,348.3-201.13l-1.28-.86"/>
    <path class="cls-4" d="M825.24,344.34l4.07,2.04s-347.34,199.21-349.65,200.59-2.28,4.18,0,2.86,349.65-201.25,349.65-201.25l-2.04-1.03"/>
    <path class="cls-4" d="M824.46,357.34l2.43,1.3s-347.44,199.71-350.54,202.35-3.65,13.77,0,11.67c3.65-2.1,349.26-201.11,349.26-201.11l-2.26-.96"/>
    <path class="cls-4" d="M825.81,359.26l2.39,1.43s-349.38,201.55-350.53,201.91c-2.31,1.43-3.11,8.42.04,6.61,3.15-1.81,348.3-200.15,348.3-200.15l-2.29-1.16"/>
    <path class="cls-4" d="M826.01,361.95l2.19,1.16s-346.07,198.91-348.55,200.37-2.13,4.09,0,2.86,348.55-201.03,348.55-201.03l-2.08-1"/>
    <path class="cls-4" d="M824.4,374.97l2.49,1.35s-348.27,199.49-350.97,202.35-3.5,13.02,0,11.01,348.82-200.59,348.82-200.59l-2.2-1.08"/>
    <path class="cls-4" d="M825.73,376.98l2.48,1.33s-347.67,199.34-350.09,201.24-2.5,7.82,0,6.39,347.9-199.93,347.9-199.93l-1.28-.68"/>
    <path class="cls-4" d="M826.43,379.33l2.87,1.4s-347.28,198.3-349.21,199.93-2.3,3.74,0,2.42,349.21-200.37,349.21-200.37l-1.98-.85"/>
    <path class="cls-4" d="M822.79,390.21l4.69,2.49s-348.96,200.81-351.19,202.62-3.34,13.99,0,12.05,349.04-201.69,349.04-201.69l-1.88-1.11"/>
    <path class="cls-4" d="M825.45,393.86l2.75,1.43s-348.25,200.03-350.09,201.44-3.64,8.92,0,6.83,347.9-200.45,347.9-200.45l-1.21-.7"/>
    <path class="cls-4" d="M826.21,396.43l3.1,1.47-349.21,199.49c-1.42,1.34-1.92,3.97,0,2.86s346.79-199.05,346.79-199.05l-1.63-.99"/>
    <path class="cls-4" d="M822.41,410.13l2.31,1.2s-345.51,198.4-348.82,201.47c-3.03,2.82-3.24,13.97,0,11.67,3.74-2.65,348.82-200.59,348.82-200.59l-1.79-1.11"/>
    <path class="cls-4" d="M824.42,408.98l3.79,2.35s-347.86,201.02-349.16,201.71-3.79,8.31,0,6.14,346.96-198.16,346.96-198.16l-1.84-1.24"/>
    <path class="cls-4" d="M827.69,411.63l2.72,1.64-349.24,201c-1.32,1.58-1.85,3.11,0,2.05s348.14-199.49,348.14-199.49l-2.51-1.48"/>
    <path class="cls-4" d="M823.55,424.56l4.47,2.54s-347.45,200.04-350.97,202.13-3.54,13.71,0,11.67,348.82-201.03,348.82-201.03l-1.94-.91"/>
    <path class="cls-4" d="M827.04,427.66l2.27,1.28s-347.15,199.73-350.09,201.47-2.86,8.25,0,6.61,346.8-199.27,346.8-199.27l-1.57-.7"/>
    <path class="cls-4" d="M828.76,429.26l2.53,1.45s-347.83,198.85-349.65,200.15-1.8,3.45,0,2.42,349.65-200.15,349.65-200.15l-2.12-1.21"/>
    <path class="cls-4" d="M479.05,513.16l348.55-201.22-348.55,201.22Z"/>
    <path class="cls-4" d="M479.05,513.16c-1.93,1.21-1.12,2.74,0,2.09s348.48-201.25,348.48-201.25l-1.71-1.04"/>
    <line class="cls-4" x1="827.35" y1="311.94" x2="825.52" y2="310.84"/>
  </g>
  <g id="Cord_and_stitching" data-name="Cord and stitching">
    <path class="cls-6" d="M473.11,674.15c.2-1.07.34-2.93.21-3.97.2-.8.14-1.77,0-2.78.22-.94.16-2.06,0-3.26.15-.76.14-1.68,0-2.7.15-.83.16-1.7,0-2.62.22-.91.22-1.89,0-2.94.3-.67.17-1.8,0-2.97.18-.7.15-1.53,0-2.43.2-.73.18-1.67,0-2.77.2-.79.18-1.65,0-2.58.24-.87.19-1.97,0-3.17.23-.53.15-1.42,0-2.4.18-.7.12-1.75,0-2.9.15-.66.1-1.68,0-2.81.23-.67.15-1.69,0-2.8.18-.71.19-1.52,0-2.43.21-.62.15-1.5,0-2.48.2-.68.16-1.58,0-2.59.23-.81.18-1.65,0-2.51.26-.72.2-1.66,0-2.68.27-.74.21-1.66,0-2.66.22-.74.19-1.61,0-2.57.12-.86.1-1.82,0-2.83.23-.8.15-1.91,0-3.11.13-.69.09-1.59,0-2.54.18-.78.13-1.76,0-2.8.19-.71.12-1.59,0-2.52.16-.66.12-1.54,0-2.51.19-.64.12-1.51,0-2.43.2-.66.18-1.5,0-2.45.23-.67.15-1.67,0-2.73.21-.65.14-1.51,0-2.42.18-.69.13-1.51,0-2.4.16-.73.15-1.56,0-2.46.22-.6.19-1.41,0-2.36.17-.82.17-1.62,0-2.42.19-.78.15-1.56,0-2.34.13-.57.11-1.21,0-1.9.14-.61.1-1.44,0-2.36.18-.67.16-1.41,0-2.18.19-.7.15-1.52,0-2.41.13-.65.11-1.38,0-2.16.17-.64.14-1.32,0-2.04.12-.72.09-1.59,0-2.54.14-.71.11-1.52,0-2.36.17-.82.11-1.71,0-2.62.2-.72.14-1.67,0-2.68.17-.98.11-1.85,0-2.7.2-.66.15-1.42,0-2.22.16-.94.14-1.96,0-3.04.19-.63.14-1.44,0-2.32.21-.64.16-1.41,0-2.25.17-.57.11-1.37,0-2.22.18-.78.17-1.6,0-2.44.18-.56.14-1.44,0-2.41.18-.58.15-1.41,0-2.39.09-.6.07-1.47,0-2.47.14-.7.14-1.48,0-2.34.16-.69.15-1.47,0-2.34.21-.63.14-1.53,0-2.51.13-.72.12-1.51,0-2.34.21-.84.17-1.92,0-3.1.19-.71.16-1.56,0-2.52.16-.76.17-1.57,0-2.46.14-.32.1-.93,0-1.64.17-.69.13-1.51,0-2.39.18-.59.12-1.38,0-2.22.17-.73.13-1.64,0-2.61.17-.52.1-1.35,0-2.22.14-.57.09-1.43,0-2.36.12-.65.12-1.48,0-2.5.12-.48.13-1.07,0-1.79.21-.89.17-1.76,0-2.62.12-.66.13-1.32,0-1.98.13-.69.12-1.32,0-1.91.12-.7.12-1.4,0-2.1.15-.58.1-1.43,0-2.33.14-.56.1-1.31,0-2.15.15-.46.26-1.57.09-2.17.18-.77.03-1.16-.09-2.2.21-.43.16-1.1,0-1.88.27-.45.14-1.28,0-2.12.17-.53.11-1.41,0-2.35.2-.62.14-1.46,0-2.37.19-.51.12-1.27,0-2.08.21-.47.17-1.28,0-2.24.19-.65.15-1.45,0-2.31.2-.76.14-1.72,0-2.74.27-1.23.16-2.67,0-4.15.3-1.25.25-2.73,0-4.33.4-1.1.28-2.61,0-4.24.19-1.45.14-2.69,0-3.85,0,0,.37-7.93,0-8.63s-1.31-.97-1.31-.97c-.42-.37-.43-1.99-.85-1.74-.08-.06-2.16,1.14-1.99,2.97.04.42-.92.75-.92.75-.54.7.05,1.68.27,4.04-.67.78-.32,4.18,0,7.51-.47.78-.22,2.87,0,4.89-.64.99-.36,3.2,0,5.52-.28.46-.3,1.52-.08,2.51-.28.79-.19,1.47.08,2.54-.28.54-.27,1.25,0,2.12-.23.56-.21,1.35,0,2.34-.23.7-.18,1.64,0,2.71-.2.71-.18,1.45,0,2.22-.19.7-.19,1.41,0,2.13-.24.82-.27,1.6,0,2.32-.22.61-.22,1.21,0,1.81-.2.76-.21,1.51,0,2.24-.21.83-.23,1.64,0,2.4-.16.44-.12,1.02,0,1.66-.13.57-.16,1.13,0,1.66-.14.74-.15,1.62,0,2.68-.25.69-.39,1.38-.19,2.3-.15.49.05,1.17.19,1.73-.16.74-.12,1.64,0,2.6-.17.53-.11,1.34,0,2.22-.06.51-.07,1.01,0,1.53-.16.73-.13,1.62,0,2.6-.16.72-.13,1.55,0,2.45-.19.43-.12,1.26,0,2.14-.18.35-.21,1.03,0,2.26-.18.53-.18,1.33,0,2.38-.18.63-.16,1.51,0,2.54-.21.54-.18,1.36,0,2.35-.16.67-.16,1.49,0,2.43-.11.77-.12,1.67,0,2.71-.16.74-.18,1.53,0,2.39-.21.6-.18,1.44,0,2.42-.22.53-.22,1.25,0,2.14-.22.46-.17,1.27,0,2.24-.16.67-.15,1.58,0,2.68-.14.5-.14,1.19,0,2.06-.22.5-.14,1.39,0,2.37-.18.62-.16,1.41,0,2.32-.21.69-.18,1.46,0,2.29-.18.62-.14,1.48,0,2.44-.11.91-.18,1.8,0,2.51-.13.83-.21,1.68,0,2.62-.17.77-.17,1.72,0,2.84-.17.7-.14,1.62,0,2.68-.18.68-.16,1.57,0,2.61-.19.56-.14,1.42,0,2.39-.14.47-.12,1.17,0,2.02-.2.6-.13,1.55,0,2.58-.18.38-.15,1.05,0,1.86-.22.62-.14,1.51,0,2.44-.18.55-.13,1.37,0,2.31-.21.46-.15,1.37,0,2.43-.2.61-.14,1.42,0,2.29-.19.55-.12,1.39,0,2.29-.18.65-.14,1.46,0,2.36-.15.66-.14,1.38,0,2.15-.17.64-.14,1.41,0,2.26-.2.65-.21,1.5,0,2.55-.22.63-.14,1.58,0,2.6-.18.64-.16,1.48,0,2.45-.2.64-.14,1.57,0,2.59-.13.6-.11,1.45,0,2.43-.2.63-.14,1.5,0,2.45-.19.71-.17,1.64,0,2.73-.24.62-.17,1.55,0,2.59-.2.71-.18,1.75,0,3.04-.21.59-.16,1.63,0,2.85-.12.7-.1,1.64,0,2.71-.15.73-.18,1.5,0,2.33-.13.73-.1,1.73,0,2.84-.18.66-.13,1.63,0,2.69-.16.98-.22,1.9,0,2.69-.18.65-.23,1.44,0,2.55-.19.63-.17,1.38,0,2.22-.19.77-.15,1.68,0,2.65-.2.74-.17,1.64,0,2.65-.17.85-.14,1.93,0,3.12-.2.81-.16,1.72,0,2.7-.17.9-.14,1.94,0,3.06-.19.69-.17,1.57,0,2.61-.2.65-.16,1.49,0,2.44-.17.82-.16,1.76,0,2.78-.2.79-.18,1.82,0,3.02-.17.72-.15,1.6,0,2.57-.15.94-.16,1.9,0,2.89-.18.95-.18,1.9,0,2.86-.19.99-.21,2.01,0,3.07-.14,1.02-.19,1.99,0,2.83-.21,1.13-.09,5.9.16,6.91.27.94.73,1.43-.02,4.68v.72c0,.46.42.72.72.46l.76-.67c.25,1.62.36.68.83.58.84,1.13,1.45,1.52,1.75.91.46-.06.84-.36.86-1.85.16.58-.01-.38-.47-2.74Z"/>
    <path class="cls-5" d="M468.63,461.13c1.02,2.11,2.56,3.49,4.57,4.56"/>
    <path class="cls-5" d="M468.63,463.48c1.29,1.74,2.82,3.55,4.71,4.6"/>
    <path class="cls-5" d="M468.63,466.17c1.22,1.55,2.79,3.09,4.7,4.27"/>
    <path class="cls-5" d="M468.51,468.31c1,1.53,2.8,3.16,4.81,4.25"/>
    <path class="cls-5" d="M468.63,470.44c.96,1.35,2.46,2.73,4.5,3.88"/>
    <path class="cls-5" d="M468.63,472.82c.88,1.4,2.71,2.37,4.79,3.67"/>
    <path class="cls-5" d="M468.51,474.52c.8,1.38,2.52,2.86,4.61,4.22"/>
    <path class="cls-5" d="M468.51,480.98c.82,1.46,2.77,3.22,4.81,4.63"/>
    <path class="cls-5" d="M468.63,482.56c1.03,1.63,2.49,3.66,4.51,4.68"/>
    <path class="cls-2" d="M468.63,485.3c.74,1.43,2.44,3.02,4.7,3.93"/>
    <path class="cls-5" d="M468.3,487.49c.9,1.53,2.9,3.11,4.93,4.34"/>
    <path class="cls-5" d="M468.41,479.22c1.09,1.55,2.89,3.02,4.92,4.46"/>
    <path class="cls-5" d="M468.49,477.5c.94,1.26,2.8,2.65,4.83,4.07"/>
    <path class="cls-2" d="M468.51,489.16c.87,2.28,2.67,3.51,4.81,4.37"/>
    <path class="cls-5" d="M468.51,491.83c1.24,1.74,2.92,3.78,4.81,5.11"/>
    <path class="cls-5" d="M468.6,494.02c.87,2.16,2.56,3.11,4.72,4.37"/>
    <path class="cls-5" d="M468.46,501.27c1.13,1.85,2.71,2.49,4.71,4.12"/>
    <path class="cls-2" d="M468.51,502.91c1.08,1.97,2.77,3.78,4.81,4.92"/>
    <path class="cls-5" d="M468.51,505.17c1.17,2.04,2.71,3.32,4.66,4.33"/>
    <path class="cls-2" d="M468.65,507.49c1.2,1.93,2.5,3.52,4.52,4.49"/>
    <path class="cls-5" d="M468.57,498.25c1.25,1.94,2.71,3.72,4.6,4.97"/>
    <path class="cls-5" d="M468.35,496.03c1.07,1.85,2.92,3.41,4.87,4.68"/>
    <path class="cls-2" d="M468.59,509.88c1.14,2.19,2.53,3.38,4.58,4.64"/>
    <path class="cls-5" d="M468.65,512.34c1.46,2.15,2.81,4.07,4.62,5.33"/>
    <path class="cls-5" d="M468.51,454.78c1.37,1.92,3,3.54,4.81,4.99"/>
    <path class="cls-2" d="M468.36,453.34c1.17,1.75,3.01,2.34,4.96,3.93"/>
    <path class="cls-2" d="M468.61,448.32c.57,2.75,2.55,3.7,4.76,6.24"/>
    <path class="cls-2" d="M468.45,442.86c1.1,3.16,2.9,4.71,4.88,7.37"/>
    <path class="cls-2" d="M468.25,434.29c1.12,4.47,3.07,8.17,5.12,11.93"/>
    <path class="cls-2" d="M469.17,431.26c.56,3.93,1.74,5.6,4.15,10.61"/>
    <path class="cls-2" d="M471.16,428.29c-.11,2.97.51,5.99,2.18,9.77"/>
    <path class="cls-2" d="M472.01,429.67c-.59,2.33.52,3.39,1.44,6.29"/>
    <path class="cls-2" d="M473.25,667.73c-1.1-3.16-2.9-3.29-4.88-5.95"/>
    <path class="cls-5" d="M468.51,458.78c1.27,1.89,2.7,3.69,4.62,4.78"/>
    <path class="cls-5" d="M468.51,456.38c1.52,1.94,3.12,4.21,4.81,5.39"/>
    <path class="cls-2" d="M468.5,628.15c1.67,2.51,3.12,4.73,4.66,5.67"/>
    <path class="cls-2" d="M468.5,623.07c1.46,2.52,3.23,4.73,4.72,5.54"/>
    <path class="cls-5" d="M468.53,620.57c1.42,2.1,2.84,4.28,4.68,5.52"/>
    <path class="cls-5" d="M468.53,617.96c1.79,2.32,3.5,4.4,4.81,5.14"/>
    <path class="cls-2" d="M468.53,514.7c1.4,2.01,2.81,4.14,4.64,5.3"/>
    <path class="cls-2" d="M468.53,522.28c1.68,2.29,3.32,4,4.79,4.79"/>
    <path class="cls-2" d="M468.59,631.06c1.14,2.35,2.6,4.28,4.67,5.75"/>
    <path class="cls-2" d="M468.66,615.67c1.55,2.27,2.93,4.12,4.55,5.38"/>
    <path class="cls-5" d="M468.63,524.44c1.02,1.99,2.44,3.57,4.51,5.09"/>
    <path class="cls-2" d="M468.52,625.48c1.68,2.41,3.31,4.8,4.8,5.56"/>
    <path class="cls-2" d="M468.63,526.65c1,2.17,2.69,4.11,4.71,5.37"/>
    <path class="cls-2" d="M468.51,529.26c.88,1.75,2.69,3.31,4.67,5.05"/>
    <path class="cls-2" d="M468.5,576.9c1.72,2.08,3.23,1.87,4.68,2.72"/>
    <path class="cls-2" d="M468.52,579.19c1.57,2.11,3.02,4.18,4.69,5.29"/>
    <path class="cls-2" d="M468.42,577.82c1.57,2.11,3.19,3.07,4.86,4.18"/>
    <path class="cls-2" d="M468.64,581.47c1.41,2.23,2.91,4.27,4.7,5.43"/>
    <path class="cls-2" d="M468.57,583.94c1.7,2.52,3.3,5,4.66,5.26"/>
    <path class="cls-2" d="M468.57,586.46c1.57,2.51,2.95,4.64,4.56,5.39"/>
    <path class="cls-2" d="M468.64,588.99c1.52,2.22,2.97,4.29,4.63,5.47"/>
    <path class="cls-5" d="M468.46,591.33c1.61,2.36,3.23,4.47,4.87,5.47"/>
    <path class="cls-5" d="M468.57,593.86c1.46,2.22,2.92,4.3,4.7,5.63"/>
    <path class="cls-2" d="M468.54,596.34c1.22,1.97,2.68,4.01,4.61,5.54"/>
    <path class="cls-2" d="M468.51,519.83c1.81,2.16,3.45,4.11,4.81,4.9"/>
    <path class="cls-5" d="M468.51,517.46c1.61,2.11,3.26,4.11,4.81,4.94"/>
    <path class="cls-2" d="M468.63,531.39c1.13,2.04,2.69,4.09,4.64,5.58"/>
    <path class="cls-5" d="M468.49,533.73c1.11,1.93,2.86,4.91,4.83,6.43"/>
    <path class="cls-5" d="M468.63,536.05c1.42,2.19,2.99,4.01,4.72,5.35"/>
    <path class="cls-5" d="M468.52,545.8c1.19,1.97,2.86,4.14,4.78,5.9"/>
    <path class="cls-2" d="M468.57,598.75c1.68,2.33,3.28,4.91,4.75,5.88"/>
    <path class="cls-2" d="M468.49,601.6c1.52,2.35,3.1,4.51,4.84,5.58"/>
    <path class="cls-2" d="M468.57,604.81c1.67,2.6,2.99,4.53,4.64,5.51"/>
    <path class="cls-2" d="M468.54,607.57c1.37,2.21,2.75,4.15,4.61,5.58"/>
    <path class="cls-2" d="M468.66,610.45c1.43,2.3,2.6,3.88,4.49,5.26"/>
    <path class="cls-5" d="M468.58,548.82c1.23,1.87,2.79,3.72,4.65,5.54"/>
    <path class="cls-5" d="M468.53,551.11c.84,2.13,2.62,4.39,4.79,5.75"/>
    <path class="cls-2" d="M468.5,636.69c1.3,2.23,2.78,4.1,4.66,5.31"/>
    <path class="cls-2" d="M468.44,633.89c1.49,2.3,2.99,4.54,4.72,5.67"/>
    <path class="cls-5" d="M468.6,540.58c1.37,2.11,2.82,4.65,4.66,6.24"/>
    <path class="cls-5" d="M468.6,538.46c1.39,2.06,2.96,3.82,4.74,5.2"/>
    <path class="cls-2" d="M468.51,644.86c1.22,2.17,2.7,4.36,4.65,5.64"/>
    <path class="cls-5" d="M468.54,647.67c1.2,2.21,2.81,3.9,4.74,5.19"/>
    <path class="cls-2" d="M468.58,554c.78,1.66,2.64,3.52,4.75,5.21"/>
    <path class="cls-5" d="M468.55,555.63c.92,1.59,2.72,3.36,4.77,5.19"/>
    <path class="cls-5" d="M468.51,557.67c.88,1.96,2.66,3.64,4.81,5.2"/>
    <path class="cls-5" d="M468.53,564.6c1.09,2.1,2.9,3.62,4.81,5.06"/>
    <path class="cls-2" d="M468.51,642.4c1.28,2.11,2.43,4.42,4.65,5.32"/>
    <path class="cls-5" d="M468.51,566.93c1.15,2.09,2.87,3.7,4.81,5.11"/>
    <path class="cls-2" d="M468.5,569.81c1.12,2.06,2.81,1.97,4.71,3.24"/>
    <path class="cls-5" d="M468.51,572.2c1.18,1.98,2.74,3.78,4.7,4.95"/>
    <path class="cls-5" d="M468.45,562.55c1.17,2.06,2.8,1.94,4.72,3.51"/>
    <path class="cls-5" d="M468.49,560.06c1.23,1.96,2.76,2.47,4.69,3.93"/>
    <path class="cls-2" d="M468.51,563.71c1.23,1.96,2.89,3.18,4.81,4.64"/>
    <path class="cls-5" d="M468.5,639.77c1.12,1.84,2.8,3.51,4.81,5.09"/>
    <path class="cls-5" d="M468.51,574c.96,1.7,2.77,3.25,4.81,4.75"/>
    <path class="cls-2" d="M468.51,612.38c1.64,2.37,3.13,4.73,4.7,5.94"/>
    <path class="cls-2" d="M473.16,658.84c-.9-1.87-2.51-3.37-4.55-5.36"/>
    <path class="cls-2" d="M473.41,662.19c-.84-2.79-2.69-3.54-4.79-5.89"/>
    <path class="cls-2" d="M473.33,664.67c-1.64-4.04-3.26-3.08-4.73-5.6"/>
    <path class="cls-2" d="M473.41,676.55c-.2-2.93-2.38-6.32-4.75-11.5"/>
    <path class="cls-2" d="M472.68,678.56c-.73-4.64-1.49-9.09-4.14-10.96"/>
    <path class="cls-2" d="M471.04,677.76c.7-1.87-.66-4.69-2.38-7.34"/>
    <path class="cls-2" d="M470.15,677.06c.48-1.48-.2-3.04-1.38-5.14"/>
    <path class="cls-5" d="M473.28,655.99c-1.3-1.88-2.87-3.64-4.7-5.14"/>
    <path class="cls-2" d="M468.4,542.76c1.37,2.6,3.16,5.28,4.92,6.09"/>
    <path class="cls-5" d="M468.51,572.2c1.04,2.07,2.62,3.85,4.7,4.95"/>
    <path class="cls-2" d="M468.37,570.75c1.04,2.07,2.88,3.05,4.96,4.15"/>
    <g>
      <path class="cls-7" d="M468.37,489.88c.71,2.24,5.83-.48,6.35-1.42.33-.84-.54-1.91-.62-1.24-.12.57-5.45,2.96-5.3,1.51.02-.22-.57.81-.44,1.16Z"/>
      <path class="cls-3" d="M468.37,489.88c.71,2.24,5.83-.48,6.35-1.42.33-.84-.54-1.91-.62-1.24-.12.57-5.45,2.96-5.3,1.51.02-.22-.57.81-.44,1.16Z"/>
    </g>
    <g>
      <path class="cls-7" d="M468.28,487.68c.56,2.41,5.59-.26,6.3-1.24.43-.82-.36-1.93-.5-1.27-.23.56-5.53,2.86-5.3,1.36.04-.22-.61.79-.5,1.15Z"/>
      <path class="cls-3" d="M468.28,487.68c.56,2.41,5.59-.26,6.3-1.24.43-.82-.36-1.93-.5-1.27-.23.56-5.53,2.86-5.3,1.36.04-.22-.61.79-.5,1.15Z"/>
    </g>
    <g>
      <path class="cls-7" d="M467.85,486.38c.81,1.31,5.41-1.03,6.06-1.82.65-1.02-.3-1.64-.26-1.4-.21.62-5.36,3.11-5.25,1.58.03-.3-.84,1.27-.55,1.64Z"/>
      <path class="cls-3" d="M467.85,486.38c.81,1.31,5.41-1.03,6.06-1.82.65-1.02-.3-1.64-.26-1.4-.21.62-5.36,3.11-5.25,1.58.03-.3-.84,1.27-.55,1.64Z"/>
    </g>
    <g>
      <path class="cls-7" d="M468.36,501.95c.71,2.24,5.83-.47,6.35-1.42.33-.84-.54-1.91-.62-1.24-.12.57-5.45,2.96-5.3,1.51.02-.22-.57.81-.44,1.16Z"/>
      <path class="cls-3" d="M468.36,501.95c.71,2.24,5.83-.47,6.35-1.42.33-.84-.54-1.91-.62-1.24-.12.57-5.45,2.96-5.3,1.51.02-.22-.57.81-.44,1.16Z"/>
    </g>
    <g>
      <path class="cls-7" d="M468.27,499.75c.56,2.41,5.59-.26,6.3-1.24.43-.82-.36-1.93-.5-1.27-.23.56-5.53,2.86-5.3,1.36.04-.22-.61.79-.5,1.15Z"/>
      <path class="cls-3" d="M468.27,499.75c.56,2.41,5.59-.26,6.3-1.24.43-.82-.36-1.93-.5-1.27-.23.56-5.53,2.86-5.3,1.36.04-.22-.61.79-.5,1.15Z"/>
    </g>
    <g>
      <path class="cls-7" d="M468.24,498.31c.63,1.57,5.12-.61,6.02-1.41.86-.95-.04-1.64-.03-1.41-.44.55-5.56,2.83-5.32,1.21.05-.3-.91,1.2-.67,1.61Z"/>
      <path class="cls-3" d="M468.24,498.31c.63,1.57,5.12-.61,6.02-1.41.86-.95-.04-1.64-.03-1.41-.44.55-5.56,2.83-5.32,1.21.05-.3-.91,1.2-.67,1.61Z"/>
    </g>
    <g>
      <path class="cls-7" d="M468.37,496.34c.63,1.57,5.12-.61,6.02-1.41.86-.95-.04-1.64-.03-1.41-.44.55-5.56,2.83-5.32,1.21.05-.3-.91,1.2-.67,1.61Z"/>
      <path class="cls-3" d="M468.37,496.34c.63,1.57,5.12-.61,6.02-1.41.86-.95-.04-1.64-.03-1.41-.44.55-5.56,2.83-5.32,1.21.05-.3-.91,1.2-.67,1.61Z"/>
    </g>
    <g>
      <path class="cls-7" d="M468.28,492.08c.69,2.26,5.8-.45,6.35-1.4.34-.84-.52-1.92-.6-1.25-.14.57-5.47,2.95-5.3,1.49.03-.22-.58.81-.44,1.15Z"/>
      <path class="cls-3" d="M468.28,492.08c.69,2.26,5.8-.45,6.35-1.4.34-.84-.52-1.92-.6-1.25-.14.57-5.47,2.95-5.3,1.49.03-.22-.58.81-.44,1.15Z"/>
    </g>
    <g>
      <path class="cls-7" d="M468.25,494.01c.56,2.41,5.59-.26,6.3-1.24.43-.82-.36-1.93-.5-1.27-.23.56-5.53,2.86-5.3,1.36.04-.22-.61.79-.5,1.15Z"/>
      <path class="cls-3" d="M468.25,494.01c.56,2.41,5.59-.26,6.3-1.24.43-.82-.36-1.93-.5-1.27-.23.56-5.53,2.86-5.3,1.36.04-.22-.61.79-.5,1.15Z"/>
    </g>
    <g>
      <path class="cls-7" d="M468.29,507.99c.71,2.24,5.83-.47,6.35-1.42.33-.84-.54-1.91-.62-1.24-.12.57-5.45,2.96-5.3,1.51.02-.22-.57.81-.44,1.16Z"/>
      <path class="cls-3" d="M468.29,507.99c.71,2.24,5.83-.47,6.35-1.42.33-.84-.54-1.91-.62-1.24-.12.57-5.45,2.96-5.3,1.51.02-.22-.57.81-.44,1.16Z"/>
    </g>
    <g>
      <path class="cls-7" d="M468.2,505.79c.56,2.41,5.59-.26,6.3-1.24.43-.82-.36-1.93-.5-1.27-.23.56-5.53,2.86-5.3,1.36.04-.22-.61.79-.5,1.15Z"/>
      <path class="cls-3" d="M468.2,505.79c.56,2.41,5.59-.26,6.3-1.24.43-.82-.36-1.93-.5-1.27-.23.56-5.53,2.86-5.3,1.36.04-.22-.61.79-.5,1.15Z"/>
    </g>
    <g>
      <path class="cls-7" d="M468.17,504.35c.63,1.57,5.12-.61,6.02-1.41.86-.95-.04-1.64-.03-1.41-.44.55-5.56,2.83-5.32,1.21.05-.3-.91,1.2-.67,1.61Z"/>
      <path class="cls-3" d="M468.17,504.35c.63,1.57,5.12-.61,6.02-1.41.86-.95-.04-1.64-.03-1.41-.44.55-5.56,2.83-5.32,1.21.05-.3-.91,1.2-.67,1.61Z"/>
    </g>
    <g>
      <path class="cls-7" d="M468.2,517.86c.56,2.41,5.59-.26,6.3-1.24.43-.82-.36-1.93-.5-1.27-.23.56-5.53,2.86-5.3,1.36.04-.22-.61.79-.5,1.15Z"/>
      <path class="cls-3" d="M468.2,517.86c.56,2.41,5.59-.26,6.3-1.24.43-.82-.36-1.93-.5-1.27-.23.56-5.53,2.86-5.3,1.36.04-.22-.61.79-.5,1.15Z"/>
    </g>
    <g>
      <path class="cls-7" d="M468.17,516.42c.63,1.57,5.12-.61,6.02-1.41.86-.95-.04-1.64-.03-1.41-.44.55-5.56,2.83-5.32,1.21.05-.3-.91,1.2-.67,1.61Z"/>
      <path class="cls-3" d="M468.17,516.42c.63,1.57,5.12-.61,6.02-1.41.86-.95-.04-1.64-.03-1.41-.44.55-5.56,2.83-5.32,1.21.05-.3-.91,1.2-.67,1.61Z"/>
    </g>
    <g>
      <path class="cls-7" d="M468.29,514.45c.63,1.57,5.12-.61,6.02-1.41.86-.95-.04-1.64-.03-1.41-.44.55-5.56,2.83-5.32,1.21.05-.3-.91,1.2-.67,1.61Z"/>
      <path class="cls-3" d="M468.29,514.45c.63,1.57,5.12-.61,6.02-1.41.86-.95-.04-1.64-.03-1.41-.44.55-5.56,2.83-5.32,1.21.05-.3-.91,1.2-.67,1.61Z"/>
    </g>
    <g>
      <path class="cls-7" d="M468.2,510.19c.69,2.26,5.8-.45,6.35-1.4.34-.84-.52-1.92-.6-1.25-.13.57-5.47,2.95-5.3,1.49.03-.22-.58.81-.44,1.15Z"/>
      <path class="cls-3" d="M468.2,510.19c.69,2.26,5.8-.45,6.35-1.4.34-.84-.52-1.92-.6-1.25-.13.57-5.47,2.95-5.3,1.49.03-.22-.58.81-.44,1.15Z"/>
    </g>
    <g>
      <path class="cls-7" d="M468.24,530.05c.71,2.24,5.83-.47,6.35-1.42.33-.84-.54-1.91-.62-1.24-.12.57-5.45,2.96-5.3,1.51.02-.22-.57.81-.44,1.16Z"/>
      <path class="cls-3" d="M468.24,530.05c.71,2.24,5.83-.47,6.35-1.42.33-.84-.54-1.91-.62-1.24-.12.57-5.45,2.96-5.3,1.51.02-.22-.57.81-.44,1.16Z"/>
    </g>
    <g>
      <path class="cls-7" d="M468.15,527.86c.56,2.41,5.59-.26,6.3-1.24.43-.82-.36-1.93-.5-1.27-.23.56-5.53,2.86-5.3,1.36.04-.22-.61.79-.5,1.15Z"/>
      <path class="cls-3" d="M468.15,527.86c.56,2.41,5.59-.26,6.3-1.24.43-.82-.36-1.93-.5-1.27-.23.56-5.53,2.86-5.3,1.36.04-.22-.61.79-.5,1.15Z"/>
    </g>
    <g>
      <path class="cls-7" d="M468.12,526.42c.63,1.57,5.12-.61,6.02-1.41.86-.95-.04-1.64-.03-1.41-.44.55-5.56,2.83-5.32,1.21.05-.3-.91,1.2-.67,1.61Z"/>
      <path class="cls-3" d="M468.12,526.42c.63,1.57,5.12-.61,6.02-1.41.86-.95-.04-1.64-.03-1.41-.44.55-5.56,2.83-5.32,1.21.05-.3-.91,1.2-.67,1.61Z"/>
    </g>
    <g>
      <path class="cls-7" d="M468.25,524.44c.63,1.57,5.12-.61,6.02-1.41.86-.95-.04-1.64-.03-1.41-.44.55-5.56,2.83-5.32,1.21.05-.3-.91,1.2-.67,1.61Z"/>
      <path class="cls-3" d="M468.25,524.44c.63,1.57,5.12-.61,6.02-1.41.86-.95-.04-1.64-.03-1.41-.44.55-5.56,2.83-5.32,1.21.05-.3-.91,1.2-.67,1.61Z"/>
    </g>
    <g>
      <path class="cls-7" d="M468.16,520.18c.69,2.26,5.8-.45,6.35-1.4.34-.84-.52-1.91-.6-1.25-.13.57-5.47,2.95-5.3,1.49.03-.22-.58.81-.44,1.15Z"/>
      <path class="cls-3" d="M468.16,520.18c.69,2.26,5.8-.45,6.35-1.4.34-.84-.52-1.91-.6-1.25-.13.57-5.47,2.95-5.3,1.49.03-.22-.58.81-.44,1.15Z"/>
    </g>
    <g>
      <path class="cls-7" d="M468.13,522.12c.56,2.41,5.59-.26,6.3-1.24.43-.82-.36-1.93-.5-1.27-.23.56-5.53,2.86-5.3,1.36.04-.22-.61.79-.5,1.15Z"/>
      <path class="cls-3" d="M468.13,522.12c.56,2.41,5.59-.26,6.3-1.24.43-.82-.36-1.93-.5-1.27-.23.56-5.53,2.86-5.3,1.36.04-.22-.61.79-.5,1.15Z"/>
    </g>
    <g>
      <path class="cls-7" d="M468.17,536.09c.71,2.24,5.83-.47,6.35-1.42.33-.84-.54-1.91-.62-1.24-.12.57-5.45,2.96-5.3,1.51.02-.22-.57.81-.44,1.16Z"/>
      <path class="cls-3" d="M468.17,536.09c.71,2.24,5.83-.47,6.35-1.42.33-.84-.54-1.91-.62-1.24-.12.57-5.45,2.96-5.3,1.51.02-.22-.57.81-.44,1.16Z"/>
    </g>
    <g>
      <path class="cls-7" d="M468.08,533.9c.56,2.41,5.59-.26,6.3-1.24.43-.82-.36-1.93-.5-1.27-.23.56-5.53,2.86-5.3,1.36.04-.22-.61.79-.5,1.15Z"/>
      <path class="cls-3" d="M468.08,533.9c.56,2.41,5.59-.26,6.3-1.24.43-.82-.36-1.93-.5-1.27-.23.56-5.53,2.86-5.3,1.36.04-.22-.61.79-.5,1.15Z"/>
    </g>
    <g>
      <path class="cls-7" d="M468.05,532.45c.63,1.57,5.12-.61,6.02-1.41.86-.95-.04-1.64-.03-1.41-.44.55-5.56,2.83-5.32,1.21.05-.3-.91,1.2-.67,1.61Z"/>
      <path class="cls-3" d="M468.05,532.45c.63,1.57,5.12-.61,6.02-1.41.86-.95-.04-1.64-.03-1.41-.44.55-5.56,2.83-5.32,1.21.05-.3-.91,1.2-.67,1.61Z"/>
    </g>
    <g>
      <path class="cls-7" d="M468.08,538.29c.69,2.26,5.8-.45,6.35-1.4.34-.84-.52-1.92-.6-1.25-.14.57-5.47,2.95-5.3,1.49.03-.22-.58.81-.44,1.15Z"/>
      <path class="cls-3" d="M468.08,538.29c.69,2.26,5.8-.45,6.35-1.4.34-.84-.52-1.92-.6-1.25-.14.57-5.47,2.95-5.3,1.49.03-.22-.58.81-.44,1.15Z"/>
    </g>
    <g>
      <path class="cls-7" d="M468.17,512.12c.56,2.41,5.59-.26,6.3-1.24.43-.82-.36-1.93-.5-1.27-.23.56-5.53,2.86-5.3,1.36.04-.22-.61.79-.5,1.15Z"/>
      <path class="cls-3" d="M468.17,512.12c.56,2.41,5.59-.26,6.3-1.24.43-.82-.36-1.93-.5-1.27-.23.56-5.53,2.86-5.3,1.36.04-.22-.61.79-.5,1.15Z"/>
    </g>
    <g>
      <path class="cls-7" d="M468.07,546.21c.56,2.41,5.59-.26,6.3-1.24.43-.82-.36-1.93-.5-1.27-.23.56-5.53,2.86-5.3,1.36.04-.22-.61.79-.5,1.15Z"/>
      <path class="cls-3" d="M468.07,546.21c.56,2.41,5.59-.26,6.3-1.24.43-.82-.36-1.93-.5-1.27-.23.56-5.53,2.86-5.3,1.36.04-.22-.61.79-.5,1.15Z"/>
    </g>
    <g>
      <path class="cls-7" d="M468.04,544.77c.63,1.57,5.12-.61,6.02-1.41.86-.95-.04-1.64-.03-1.41-.44.55-5.56,2.83-5.32,1.21.05-.3-.91,1.2-.67,1.61Z"/>
      <path class="cls-3" d="M468.04,544.77c.63,1.57,5.12-.61,6.02-1.41.86-.95-.04-1.64-.03-1.41-.44.55-5.56,2.83-5.32,1.21.05-.3-.91,1.2-.67,1.61Z"/>
    </g>
    <g>
      <path class="cls-7" d="M468.16,542.79c.63,1.57,5.12-.61,6.02-1.41.86-.95-.04-1.64-.03-1.41-.44.55-5.56,2.83-5.32,1.21.05-.3-.91,1.2-.67,1.61Z"/>
      <path class="cls-3" d="M468.16,542.79c.63,1.57,5.12-.61,6.02-1.41.86-.95-.04-1.64-.03-1.41-.44.55-5.56,2.83-5.32,1.21.05-.3-.91,1.2-.67,1.61Z"/>
    </g>
    <g>
      <path class="cls-7" d="M468.12,558.4c.71,2.24,5.83-.48,6.35-1.42.33-.84-.54-1.91-.62-1.24-.12.57-5.45,2.96-5.3,1.51.02-.22-.57.81-.44,1.16Z"/>
      <path class="cls-3" d="M468.12,558.4c.71,2.24,5.83-.48,6.35-1.42.33-.84-.54-1.91-.62-1.24-.12.57-5.45,2.96-5.3,1.51.02-.22-.57.81-.44,1.16Z"/>
    </g>
    <g>
      <path class="cls-7" d="M468.03,556.2c.56,2.41,5.59-.26,6.3-1.24.43-.82-.36-1.93-.5-1.27-.23.56-5.53,2.86-5.3,1.36.04-.22-.61.79-.5,1.15Z"/>
      <path class="cls-3" d="M468.03,556.2c.56,2.41,5.59-.26,6.3-1.24.43-.82-.36-1.93-.5-1.27-.23.56-5.53,2.86-5.3,1.36.04-.22-.61.79-.5,1.15Z"/>
    </g>
    <g>
      <path class="cls-7" d="M468,554.76c.63,1.57,5.12-.61,6.02-1.41.86-.95-.04-1.64-.03-1.41-.44.55-5.56,2.83-5.32,1.21.05-.3-.91,1.2-.67,1.61Z"/>
      <path class="cls-3" d="M468,554.76c.63,1.57,5.12-.61,6.02-1.41.86-.95-.04-1.64-.03-1.41-.44.55-5.56,2.83-5.32,1.21.05-.3-.91,1.2-.67,1.61Z"/>
    </g>
    <g>
      <path class="cls-7" d="M468.12,552.79c.63,1.57,5.12-.61,6.02-1.41.86-.95-.04-1.64-.03-1.41-.44.55-5.56,2.83-5.32,1.21.05-.3-.91,1.2-.67,1.61Z"/>
      <path class="cls-3" d="M468.12,552.79c.63,1.57,5.12-.61,6.02-1.41.86-.95-.04-1.64-.03-1.41-.44.55-5.56,2.83-5.32,1.21.05-.3-.91,1.2-.67,1.61Z"/>
    </g>
    <g>
      <path class="cls-7" d="M468.03,548.53c.69,2.26,5.8-.45,6.35-1.4.34-.84-.52-1.92-.6-1.25-.13.57-5.47,2.95-5.3,1.49.03-.22-.58.81-.44,1.15Z"/>
      <path class="cls-3" d="M468.03,548.53c.69,2.26,5.8-.45,6.35-1.4.34-.84-.52-1.92-.6-1.25-.13.57-5.47,2.95-5.3,1.49.03-.22-.58.81-.44,1.15Z"/>
    </g>
    <g>
      <path class="cls-7" d="M468,550.46c.56,2.41,5.59-.26,6.3-1.24.43-.82-.36-1.93-.5-1.27-.23.56-5.53,2.86-5.3,1.36.04-.22-.61.79-.5,1.15Z"/>
      <path class="cls-3" d="M468,550.46c.56,2.41,5.59-.26,6.3-1.24.43-.82-.36-1.93-.5-1.27-.23.56-5.53,2.86-5.3,1.36.04-.22-.61.79-.5,1.15Z"/>
    </g>
    <g>
      <path class="cls-7" d="M467.93,560.8c.63,1.57,5.12-.61,6.02-1.41.86-.95-.04-1.64-.03-1.41-.44.55-5.56,2.83-5.32,1.21.05-.3-.91,1.2-.67,1.61Z"/>
      <path class="cls-3" d="M467.93,560.8c.63,1.57,5.12-.61,6.02-1.41.86-.95-.04-1.64-.03-1.41-.44.55-5.56,2.83-5.32,1.21.05-.3-.91,1.2-.67,1.61Z"/>
    </g>
    <g>
      <path class="cls-7" d="M468.05,540.47c.56,2.41,5.59-.26,6.3-1.24.43-.82-.36-1.93-.5-1.27-.23.56-5.53,2.86-5.3,1.36.04-.22-.61.79-.5,1.15Z"/>
      <path class="cls-3" d="M468.05,540.47c.56,2.41,5.59-.26,6.3-1.24.43-.82-.36-1.93-.5-1.27-.23.56-5.53,2.86-5.3,1.36.04-.22-.61.79-.5,1.15Z"/>
    </g>
    <g>
      <path class="cls-7" d="M468.2,564.64c.71,2.24,5.83-.48,6.35-1.42.33-.84-.54-1.91-.62-1.24-.12.57-5.45,2.96-5.3,1.51.02-.22-.57.81-.44,1.16Z"/>
      <path class="cls-3" d="M468.2,564.64c.71,2.24,5.83-.48,6.35-1.42.33-.84-.54-1.91-.62-1.24-.12.57-5.45,2.96-5.3,1.51.02-.22-.57.81-.44,1.16Z"/>
    </g>
    <g>
      <path class="cls-7" d="M468.11,562.44c.56,2.41,5.59-.26,6.3-1.24.43-.82-.36-1.93-.5-1.27-.23.56-5.53,2.86-5.3,1.36.04-.22-.61.79-.5,1.15Z"/>
      <path class="cls-3" d="M468.11,562.44c.56,2.41,5.59-.26,6.3-1.24.43-.82-.36-1.93-.5-1.27-.23.56-5.53,2.86-5.3,1.36.04-.22-.61.79-.5,1.15Z"/>
    </g>
    <g>
      <path class="cls-7" d="M468.11,566.84c.69,2.26,5.8-.45,6.35-1.4.34-.84-.52-1.91-.6-1.25-.14.57-5.47,2.95-5.3,1.49.03-.22-.58.81-.44,1.15Z"/>
      <path class="cls-3" d="M468.11,566.84c.69,2.26,5.8-.45,6.35-1.4.34-.84-.52-1.91-.6-1.25-.14.57-5.47,2.95-5.3,1.49.03-.22-.58.81-.44,1.15Z"/>
    </g>
    <g>
      <path class="cls-7" d="M468.1,574.75c.56,2.41,5.59-.26,6.3-1.24.43-.82-.36-1.93-.5-1.27-.23.56-5.53,2.86-5.3,1.36.04-.22-.61.79-.5,1.15Z"/>
      <path class="cls-3" d="M468.1,574.75c.56,2.41,5.59-.26,6.3-1.24.43-.82-.36-1.93-.5-1.27-.23.56-5.53,2.86-5.3,1.36.04-.22-.61.79-.5,1.15Z"/>
    </g>
    <g>
      <path class="cls-7" d="M468.07,573.31c.63,1.57,5.12-.61,6.02-1.41.86-.95-.04-1.63-.03-1.41-.44.55-5.56,2.83-5.32,1.21.05-.3-.91,1.2-.67,1.61Z"/>
      <path class="cls-3" d="M468.07,573.31c.63,1.57,5.12-.61,6.02-1.41.86-.95-.04-1.63-.03-1.41-.44.55-5.56,2.83-5.32,1.21.05-.3-.91,1.2-.67,1.61Z"/>
    </g>
    <g>
      <path class="cls-7" d="M468.19,571.34c.63,1.57,5.12-.61,6.02-1.41.86-.95-.04-1.64-.03-1.41-.44.55-5.56,2.83-5.32,1.21.05-.3-.91,1.2-.67,1.61Z"/>
      <path class="cls-3" d="M468.19,571.34c.63,1.57,5.12-.61,6.02-1.41.86-.95-.04-1.64-.03-1.41-.44.55-5.56,2.83-5.32,1.21.05-.3-.91,1.2-.67,1.61Z"/>
    </g>
    <g>
      <path class="cls-7" d="M468.03,583.31c.63,1.57,5.12-.61,6.02-1.41.86-.95-.04-1.63-.03-1.41-.44.55-5.56,2.83-5.32,1.21.05-.3-.91,1.2-.67,1.61Z"/>
      <path class="cls-3" d="M468.03,583.31c.63,1.57,5.12-.61,6.02-1.41.86-.95-.04-1.63-.03-1.41-.44.55-5.56,2.83-5.32,1.21.05-.3-.91,1.2-.67,1.61Z"/>
    </g>
    <g>
      <path class="cls-7" d="M468.15,581.33c.63,1.57,5.12-.61,6.02-1.41.86-.95-.04-1.64-.03-1.41-.44.55-5.56,2.83-5.32,1.21.05-.3-.91,1.2-.67,1.61Z"/>
      <path class="cls-3" d="M468.15,581.33c.63,1.57,5.12-.61,6.02-1.41.86-.95-.04-1.64-.03-1.41-.44.55-5.56,2.83-5.32,1.21.05-.3-.91,1.2-.67,1.61Z"/>
    </g>
    <g>
      <path class="cls-7" d="M468.06,577.08c.69,2.26,5.8-.45,6.35-1.4.34-.84-.52-1.92-.6-1.25-.14.57-5.47,2.95-5.3,1.49.03-.22-.58.81-.44,1.15Z"/>
      <path class="cls-3" d="M468.06,577.08c.69,2.26,5.8-.45,6.35-1.4.34-.84-.52-1.92-.6-1.25-.14.57-5.47,2.95-5.3,1.49.03-.22-.58.81-.44,1.15Z"/>
    </g>
    <g>
      <path class="cls-7" d="M468.03,579.01c.56,2.41,5.59-.26,6.3-1.24.43-.82-.36-1.93-.5-1.27-.23.56-5.53,2.86-5.3,1.36.04-.22-.61.79-.5,1.15Z"/>
      <path class="cls-3" d="M468.03,579.01c.56,2.41,5.59-.26,6.3-1.24.43-.82-.36-1.93-.5-1.27-.23.56-5.53,2.86-5.3,1.36.04-.22-.61.79-.5,1.15Z"/>
    </g>
    <g>
      <path class="cls-7" d="M468.08,569.01c.56,2.41,5.59-.26,6.3-1.24.43-.82-.36-1.93-.5-1.27-.23.56-5.53,2.86-5.3,1.36.04-.22-.61.79-.5,1.15Z"/>
      <path class="cls-3" d="M468.08,569.01c.56,2.41,5.59-.26,6.3-1.24.43-.82-.36-1.93-.5-1.27-.23.56-5.53,2.86-5.3,1.36.04-.22-.61.79-.5,1.15Z"/>
    </g>
    <g>
      <path class="cls-7" d="M468.28,592.97c.71,2.24,5.83-.48,6.35-1.42.33-.84-.54-1.91-.62-1.24-.12.57-5.45,2.96-5.3,1.51.02-.22-.57.81-.44,1.16Z"/>
      <path class="cls-3" d="M468.28,592.97c.71,2.24,5.83-.48,6.35-1.42.33-.84-.54-1.91-.62-1.24-.12.57-5.45,2.96-5.3,1.51.02-.22-.57.81-.44,1.16Z"/>
    </g>
    <g>
      <path class="cls-7" d="M468.19,590.78c.56,2.41,5.59-.26,6.3-1.24.43-.82-.36-1.93-.5-1.27-.23.56-5.53,2.86-5.3,1.36.04-.22-.61.79-.5,1.15Z"/>
      <path class="cls-3" d="M468.19,590.78c.56,2.41,5.59-.26,6.3-1.24.43-.82-.36-1.93-.5-1.27-.23.56-5.53,2.86-5.3,1.36.04-.22-.61.79-.5,1.15Z"/>
    </g>
    <g>
      <path class="cls-7" d="M468.16,589.34c.63,1.57,5.12-.61,6.02-1.41.86-.95-.04-1.64-.03-1.41-.44.55-5.56,2.83-5.32,1.21.05-.3-.91,1.2-.67,1.61Z"/>
      <path class="cls-3" d="M468.16,589.34c.63,1.57,5.12-.61,6.02-1.41.86-.95-.04-1.64-.03-1.41-.44.55-5.56,2.83-5.32,1.21.05-.3-.91,1.2-.67,1.61Z"/>
    </g>
    <g>
      <path class="cls-7" d="M468.28,587.36c.63,1.57,5.12-.61,6.02-1.41.86-.95-.04-1.64-.03-1.41-.44.55-5.56,2.83-5.32,1.21.05-.3-.91,1.2-.67,1.61Z"/>
      <path class="cls-3" d="M468.28,587.36c.63,1.57,5.12-.61,6.02-1.41.86-.95-.04-1.64-.03-1.41-.44.55-5.56,2.83-5.32,1.21.05-.3-.91,1.2-.67,1.61Z"/>
    </g>
    <g>
      <path class="cls-7" d="M468.17,585.04c.56,2.41,5.59-.26,6.3-1.24.43-.82-.36-1.93-.5-1.27-.23.56-5.53,2.86-5.3,1.36.04-.22-.61.79-.5,1.15Z"/>
      <path class="cls-3" d="M468.17,585.04c.56,2.41,5.59-.26,6.3-1.24.43-.82-.36-1.93-.5-1.27-.23.56-5.53,2.86-5.3,1.36.04-.22-.61.79-.5,1.15Z"/>
    </g>
    <g>
      <path class="cls-7" d="M468.09,595.38c.63,1.57,5.12-.61,6.02-1.41.86-.95-.04-1.64-.03-1.41-.44.55-5.56,2.83-5.32,1.21.05-.3-.91,1.2-.67,1.61Z"/>
      <path class="cls-3" d="M468.09,595.38c.63,1.57,5.12-.61,6.02-1.41.86-.95-.04-1.64-.03-1.41-.44.55-5.56,2.83-5.32,1.21.05-.3-.91,1.2-.67,1.61Z"/>
    </g>
    <g>
      <path class="cls-7" d="M468.36,599.21c.71,2.24,5.83-.48,6.35-1.42.33-.84-.54-1.91-.62-1.24-.12.57-5.45,2.96-5.3,1.51.02-.22-.57.81-.44,1.16Z"/>
      <path class="cls-3" d="M468.36,599.21c.71,2.24,5.83-.48,6.35-1.42.33-.84-.54-1.91-.62-1.24-.12.57-5.45,2.96-5.3,1.51.02-.22-.57.81-.44,1.16Z"/>
    </g>
    <g>
      <path class="cls-7" d="M468.27,597.02c.56,2.41,5.59-.26,6.3-1.24.43-.82-.36-1.93-.5-1.27-.23.56-5.53,2.86-5.3,1.36.04-.22-.61.79-.5,1.15Z"/>
      <path class="cls-3" d="M468.27,597.02c.56,2.41,5.59-.26,6.3-1.24.43-.82-.36-1.93-.5-1.27-.23.56-5.53,2.86-5.3,1.36.04-.22-.61.79-.5,1.15Z"/>
    </g>
    <g>
      <path class="cls-7" d="M468.27,601.42c.69,2.26,5.8-.45,6.35-1.4.34-.84-.52-1.91-.6-1.25-.14.57-5.47,2.95-5.3,1.49.03-.22-.58.81-.44,1.15Z"/>
      <path class="cls-3" d="M468.27,601.42c.69,2.26,5.8-.45,6.35-1.4.34-.84-.52-1.91-.6-1.25-.14.57-5.47,2.95-5.3,1.49.03-.22-.58.81-.44,1.15Z"/>
    </g>
    <g>
      <path class="cls-7" d="M468.18,617.84c.63,1.57,5.12-.61,6.02-1.41.86-.95-.04-1.64-.03-1.41-.44.55-5.56,2.83-5.32,1.21.05-.3-.91,1.2-.67,1.61Z"/>
      <path class="cls-3" d="M468.18,617.84c.63,1.57,5.12-.61,6.02-1.41.86-.95-.04-1.64-.03-1.41-.44.55-5.56,2.83-5.32,1.21.05-.3-.91,1.2-.67,1.61Z"/>
    </g>
    <g>
      <path class="cls-7" d="M468.3,615.87c.63,1.57,5.12-.61,6.02-1.41.86-.95-.04-1.64-.03-1.41-.44.55-5.56,2.83-5.32,1.21.05-.3-.91,1.2-.67,1.61Z"/>
      <path class="cls-3" d="M468.3,615.87c.63,1.57,5.12-.61,6.02-1.41.86-.95-.04-1.64-.03-1.41-.44.55-5.56,2.83-5.32,1.21.05-.3-.91,1.2-.67,1.61Z"/>
    </g>
    <g>
      <path class="cls-7" d="M468.21,611.61c.69,2.26,5.8-.45,6.35-1.4.34-.84-.52-1.92-.6-1.25-.14.57-5.47,2.95-5.3,1.49.03-.22-.58.81-.44,1.15Z"/>
      <path class="cls-3" d="M468.21,611.61c.69,2.26,5.8-.45,6.35-1.4.34-.84-.52-1.92-.6-1.25-.14.57-5.47,2.95-5.3,1.49.03-.22-.58.81-.44,1.15Z"/>
    </g>
    <g>
      <path class="cls-7" d="M468.19,613.54c.56,2.41,5.59-.26,6.3-1.24.43-.82-.36-1.93-.5-1.27-.23.56-5.53,2.86-5.3,1.36.04-.22-.61.79-.5,1.15Z"/>
      <path class="cls-3" d="M468.19,613.54c.56,2.41,5.59-.26,6.3-1.24.43-.82-.36-1.93-.5-1.27-.23.56-5.53,2.86-5.3,1.36.04-.22-.61.79-.5,1.15Z"/>
    </g>
    <g>
      <path class="cls-7" d="M468.43,627.51c.71,2.24,5.83-.47,6.35-1.42.33-.84-.54-1.91-.62-1.24-.12.57-5.45,2.96-5.3,1.51.02-.22-.57.81-.44,1.16Z"/>
      <path class="cls-3" d="M468.43,627.51c.71,2.24,5.83-.47,6.35-1.42.33-.84-.54-1.91-.62-1.24-.12.57-5.45,2.96-5.3,1.51.02-.22-.57.81-.44,1.16Z"/>
    </g>
    <g>
      <path class="cls-7" d="M468.34,625.31c.56,2.41,5.59-.26,6.3-1.24.43-.82-.36-1.93-.5-1.27-.23.56-5.53,2.86-5.3,1.36.04-.22-.61.79-.5,1.15Z"/>
      <path class="cls-3" d="M468.34,625.31c.56,2.41,5.59-.26,6.3-1.24.43-.82-.36-1.93-.5-1.27-.23.56-5.53,2.86-5.3,1.36.04-.22-.61.79-.5,1.15Z"/>
    </g>
    <g>
      <path class="cls-7" d="M468.31,623.87c.63,1.57,5.12-.61,6.02-1.41.86-.95-.04-1.64-.03-1.41-.44.55-5.56,2.83-5.32,1.21.05-.3-.91,1.2-.67,1.61Z"/>
      <path class="cls-3" d="M468.31,623.87c.63,1.57,5.12-.61,6.02-1.41.86-.95-.04-1.64-.03-1.41-.44.55-5.56,2.83-5.32,1.21.05-.3-.91,1.2-.67,1.61Z"/>
    </g>
    <g>
      <path class="cls-7" d="M468.44,621.9c.63,1.57,5.12-.61,6.02-1.41.86-.95-.04-1.64-.03-1.41-.44.55-5.56,2.83-5.32,1.21.05-.3-.91,1.2-.67,1.61Z"/>
      <path class="cls-3" d="M468.44,621.9c.63,1.57,5.12-.61,6.02-1.41.86-.95-.04-1.64-.03-1.41-.44.55-5.56,2.83-5.32,1.21.05-.3-.91,1.2-.67,1.61Z"/>
    </g>
    <g>
      <path class="cls-7" d="M468.32,619.57c.56,2.41,5.59-.26,6.3-1.24.43-.82-.36-1.93-.5-1.27-.23.56-5.53,2.86-5.3,1.36.04-.22-.61.79-.5,1.15Z"/>
      <path class="cls-3" d="M468.32,619.57c.56,2.41,5.59-.26,6.3-1.24.43-.82-.36-1.93-.5-1.27-.23.56-5.53,2.86-5.3,1.36.04-.22-.61.79-.5,1.15Z"/>
    </g>
    <g>
      <path class="cls-7" d="M468.24,629.91c.63,1.57,5.12-.61,6.02-1.41.86-.95-.04-1.64-.03-1.41-.44.55-5.56,2.83-5.32,1.21.06-.3-.91,1.2-.67,1.61Z"/>
      <path class="cls-3" d="M468.24,629.91c.63,1.57,5.12-.61,6.02-1.41.86-.95-.04-1.64-.03-1.41-.44.55-5.56,2.83-5.32,1.21.06-.3-.91,1.2-.67,1.61Z"/>
    </g>
    <g>
      <path class="cls-7" d="M468.51,633.75c.71,2.24,5.83-.47,6.35-1.42.33-.84-.54-1.91-.62-1.24-.12.57-5.45,2.96-5.3,1.51.02-.22-.57.81-.44,1.16Z"/>
      <path class="cls-3" d="M468.51,633.75c.71,2.24,5.83-.47,6.35-1.42.33-.84-.54-1.91-.62-1.24-.12.57-5.45,2.96-5.3,1.51.02-.22-.57.81-.44,1.16Z"/>
    </g>
    <g>
      <path class="cls-7" d="M468.43,631.55c.56,2.41,5.59-.26,6.3-1.24.43-.82-.36-1.93-.5-1.27-.23.56-5.53,2.86-5.3,1.36.04-.22-.61.79-.5,1.15Z"/>
      <path class="cls-3" d="M468.43,631.55c.56,2.41,5.59-.26,6.3-1.24.43-.82-.36-1.93-.5-1.27-.23.56-5.53,2.86-5.3,1.36.04-.22-.61.79-.5,1.15Z"/>
    </g>
    <g>
      <path class="cls-7" d="M468.42,635.95c.69,2.26,5.8-.45,6.35-1.4.34-.84-.52-1.92-.6-1.25-.14.57-5.47,2.95-5.3,1.49.03-.22-.58.81-.44,1.15Z"/>
      <path class="cls-3" d="M468.42,635.95c.69,2.26,5.8-.45,6.35-1.4.34-.84-.52-1.92-.6-1.25-.14.57-5.47,2.95-5.3,1.49.03-.22-.58.81-.44,1.15Z"/>
    </g>
    <g>
      <path class="cls-7" d="M468.54,641.96c.71,2.24,5.83-.48,6.35-1.42.33-.84-.54-1.91-.62-1.24-.12.57-5.45,2.96-5.3,1.51.02-.22-.57.81-.44,1.16Z"/>
      <path class="cls-3" d="M468.54,641.96c.71,2.24,5.83-.48,6.35-1.42.33-.84-.54-1.91-.62-1.24-.12.57-5.45,2.96-5.3,1.51.02-.22-.57.81-.44,1.16Z"/>
    </g>
    <g>
      <path class="cls-7" d="M468.45,639.77c.56,2.41,5.59-.26,6.3-1.24.43-.82-.36-1.93-.5-1.27-.23.56-5.53,2.86-5.3,1.36.04-.22-.61.79-.5,1.15Z"/>
      <path class="cls-3" d="M468.45,639.77c.56,2.41,5.59-.26,6.3-1.24.43-.82-.36-1.93-.5-1.27-.23.56-5.53,2.86-5.3,1.36.04-.22-.61.79-.5,1.15Z"/>
    </g>
    <g>
      <path class="cls-7" d="M468.42,638.33c.63,1.57,5.12-.61,6.02-1.41.86-.95-.04-1.64-.03-1.41-.44.55-5.56,2.83-5.32,1.21.06-.3-.91,1.2-.67,1.61Z"/>
      <path class="cls-3" d="M468.42,638.33c.63,1.57,5.12-.61,6.02-1.41.86-.95-.04-1.64-.03-1.41-.44.55-5.56,2.83-5.32,1.21.06-.3-.91,1.2-.67,1.61Z"/>
    </g>
    <g>
      <path class="cls-7" d="M468.35,644.37c.63,1.57,5.12-.61,6.02-1.41.86-.95-.04-1.64-.03-1.41-.44.55-5.56,2.83-5.32,1.21.05-.3-.91,1.2-.67,1.61Z"/>
      <path class="cls-3" d="M468.35,644.37c.63,1.57,5.12-.61,6.02-1.41.86-.95-.04-1.64-.03-1.41-.44.55-5.56,2.83-5.32,1.21.05-.3-.91,1.2-.67,1.61Z"/>
    </g>
    <g>
      <path class="cls-7" d="M468.02,648.44c.71,2.24,5.83-.48,6.35-1.42.33-.84-.54-1.91-.62-1.24-.12.57-5.45,2.96-5.3,1.51.02-.22-.57.81-.44,1.16Z"/>
      <path class="cls-3" d="M468.02,648.44c.71,2.24,5.83-.48,6.35-1.42.33-.84-.54-1.91-.62-1.24-.12.57-5.45,2.96-5.3,1.51.02-.22-.57.81-.44,1.16Z"/>
    </g>
    <g>
      <path class="cls-7" d="M468.03,646.12c.56,2.41,5.59-.26,6.3-1.24.43-.82-.36-1.93-.5-1.27-.23.56-5.53,2.86-5.3,1.36.04-.22-.61.79-.5,1.15Z"/>
      <path class="cls-3" d="M468.03,646.12c.56,2.41,5.59-.26,6.3-1.24.43-.82-.36-1.93-.5-1.27-.23.56-5.53,2.86-5.3,1.36.04-.22-.61.79-.5,1.15Z"/>
    </g>
    <g>
      <path class="cls-7" d="M468.26,609.33c.56,2.41,5.59-.26,6.3-1.24.43-.82-.36-1.93-.5-1.27-.23.56-5.53,2.86-5.3,1.36.04-.22-.61.79-.5,1.15Z"/>
      <path class="cls-3" d="M468.26,609.33c.56,2.41,5.59-.26,6.3-1.24.43-.82-.36-1.93-.5-1.27-.23.56-5.53,2.86-5.3,1.36.04-.22-.61.79-.5,1.15Z"/>
    </g>
    <g>
      <path class="cls-7" d="M468.23,607.89c.63,1.57,5.12-.61,6.02-1.41.86-.95-.04-1.64-.03-1.41-.44.55-5.56,2.83-5.32,1.21.05-.3-.91,1.2-.67,1.61Z"/>
      <path class="cls-3" d="M468.23,607.89c.63,1.57,5.12-.61,6.02-1.41.86-.95-.04-1.64-.03-1.41-.44.55-5.56,2.83-5.32,1.21.05-.3-.91,1.2-.67,1.61Z"/>
    </g>
    <g>
      <path class="cls-7" d="M468.35,605.92c.63,1.57,5.12-.61,6.02-1.41.86-.95-.04-1.64-.03-1.41-.44.55-5.56,2.83-5.32,1.21.05-.3-.91,1.2-.67,1.61Z"/>
      <path class="cls-3" d="M468.35,605.92c.63,1.57,5.12-.61,6.02-1.41.86-.95-.04-1.64-.03-1.41-.44.55-5.56,2.83-5.32,1.21.05-.3-.91,1.2-.67,1.61Z"/>
    </g>
    <g>
      <path class="cls-7" d="M468.24,603.59c.56,2.41,5.59-.26,6.3-1.24.43-.82-.36-1.93-.5-1.27-.23.56-5.53,2.86-5.3,1.36.04-.22-.61.79-.5,1.15Z"/>
      <path class="cls-3" d="M468.24,603.59c.56,2.41,5.59-.26,6.3-1.24.43-.82-.36-1.93-.5-1.27-.23.56-5.53,2.86-5.3,1.36.04-.22-.61.79-.5,1.15Z"/>
    </g>
  </g>
</svg>