<?xml version="1.0" encoding="UTF-8"?>
<svg xmlns="http://www.w3.org/2000/svg" viewBox="0 0 831.79 684.86">
  <defs>
    <style>
      .cls-1, .cls-2, .cls-3, .cls-4 {
        fill: none;
      }

      .cls-1, .cls-2, .cls-3, .cls-4, .cls-5, .cls-6 {
        stroke: #231f20;
        stroke-miterlimit: 10;
      }

      .cls-7, .cls-5, .cls-6 {
        fill: #fff;
      }

      .cls-2, .cls-5 {
        stroke-width: .2px;
      }

      .cls-3 {
        stroke-width: .4px;
      }

      .cls-4 {
        stroke-width: .5px;
      }

      .cls-6 {
        stroke-width: .7px;
      }
    </style>
  </defs>
  <g id="Bookblock">
    <path class="cls-1" d="M474.39,628.1c-4.69-5.36-3.02-11.21,0-17.17-4.14-5.01-2.97-10.93,0-17.17-4.33-5.36-2.79-11.21,0-17.17-3.48-3.82-4.21-9.14,0-17.17-3.89-5.14-3.22-10.97,0-17.17-3.58-5.08-3.52-10.82,0-17.17-3.89-4.82-3.22-10.7,0-17.17-4.55-4.97-4.32-10.73,0-17.17-3.2-2.65-5.35-12.59,0-17.1,5.23-4.41,350.34-202.53,350.34-202.53L353.82.58,3.72,201.87c-5.12,4.03-3.39,10.33,0,17.18-4.74,4.34-3.75,10.35,0,17.17-4.45,3.91-4.05,9.8,0,17.17-4.14,3.6-3.77,9.52,0,17.17-4.34,3.18-3.56,9.36,0,17.17-4,5.2-2.74,11.09,0,17.17-4.21,4.71-3.7,10.56,0,17.17-4.1,4.07-3.22,10.15,0,17.17-4.21,4.09-3.7,10.01,0,17.17-3.58,3.46-4.06,14.83,0,17.17s470.67,271.65,470.67,271.65"/>
    <polyline class="cls-1" points="3.72 356.45 474.39 628.1 824.73 426.3 822.65 425.07"/>
    <polyline class="cls-1" points="3.72 339.27 474.39 610.92 824.73 408.8 822.36 407.4"/>
    <polyline class="cls-1" points="3.72 322.1 474.39 593.75 824.73 391.62 822.43 390.41"/>
    <polyline class="cls-1" points="3.72 304.92 474.39 576.58 824.73 374.78 822.24 373.48"/>
    <polyline class="cls-1" points="3.72 287.75 474.39 559.4 824.73 357.19 823 356.2"/>
    <polyline class="cls-1" points="3.72 270.58 474.39 542.23 824.73 341.42 822.33 340.21"/>
    <polyline class="cls-1" points="3.72 253.4 474.39 525.05 824.73 322.92 822.16 321.58"/>
    <polyline class="cls-1" points="3.72 236.23 474.39 507.88 824.73 305.42 822.28 303.99"/>
    <polyline class="cls-1" points="3.72 219.05 474.39 490.7 824.73 287.09 821.62 285.27"/>
    <path class="cls-4" d="M822.49,272.36l4.39,2.68-350.53,203.23c-2.42,1.65-2.53,6.17,0,5.94s350.53-204.11,350.53-204.11l-1.54-.77"/>
    <path class="cls-4" d="M823.44,271.81l2.14,1.24s-347.58,201.25-350.34,203.12-3.25,12.46,0,10.57,350.34-203.78,350.34-203.78l-2.04-.91"/>
    <path class="cls-4" d="M823.85,271.57l5.45,3.46-350.97,204.11c-1.39.75-1.72,3.2,0,2.2s350.97-204.33,350.97-204.33l-1.77-.95"/>
    <path class="cls-4" d="M823.36,287.88l2.65,1.49s-347.71,201.12-351.03,203.97c-3.32,2.85-2.58,11.56,0,11.23s350.34-202.35,350.34-202.35l-1.56-.73"/>
    <path class="cls-4" d="M824.51,290.24l2.38,1.31s-346.94,201.69-349.72,203.01c-2.77,1.32-1.64,7.33,0,6.39s349.72-201.25,349.72-201.25l-2.57-1.3"/>
    <path class="cls-4" d="M824.73,289.98l4.58,2.67s-348,201.47-350.09,202.57-1.9,3.52,0,2.42,350.09-202.13,350.09-202.13l-2.55-1.39"/>
    <path class="cls-4" d="M822.34,306.8l3.04,1.7s-346.42,199.58-349.24,201.47c-2.83,1.89-2.71,12.79,0,11.23,2.71-1.56,348.1-200.81,348.1-200.81l-2.1-1.14"/>
    <path class="cls-4" d="M823.82,309.4l2.19,1.31s-346.27,199.27-348.3,201.03-3.15,6.05,0,5.72c3.15-.33,347.01-199.71,347.01-199.71l-1.87-1.04"/>
    <path class="cls-1" d="M474.39,628.1c-2.63,5.71-3.05,11.54.25,17.59l350.08-202.37-2.54-1.33"/>
    <path class="cls-4" d="M823.14,323.84l2.83,1.52s-345.98,199.99-349.24,202.13c-3.26,2.13-4.14,12.49,0,10.13s349.24-199.49,349.24-199.49l-1.71-.89"/>
    <path class="cls-4" d="M823.44,326.83l2.58,1.27s-346.6,199.9-348.3,201.03-3.55,7.53,0,5.5,348.3-198.38,348.3-198.38l-2.67-1.12"/>
    <path class="cls-4" d="M825.52,328.39l2.69,1.25-348.55,200.15c-1,1.19-.77,1.73,0,1.98l348.55-199.43-2.54-1.24"/>
    <path class="cls-4" d="M822.49,342.7l3.16,1.4s-346.44,198.33-349.26,200.11-4.06,13.82,0,11.49c4.06-2.34,349.26-201.03,349.26-201.03l-2.01-1.23"/>
    <path class="cls-4" d="M824.9,344.53l1.98.96s-345.9,198.38-349.17,200.37-3.13,9.15,0,7.34,348.3-201.13,348.3-201.13l-1.28-.86"/>
    <path class="cls-4" d="M825.24,344.34l4.07,2.04s-347.34,199.21-349.65,200.59-2.28,4.18,0,2.86,349.65-201.25,349.65-201.25l-2.04-1.03"/>
    <path class="cls-4" d="M824.46,357.34l2.43,1.3s-347.44,199.71-350.54,202.35-3.65,13.77,0,11.67c3.65-2.1,349.26-201.11,349.26-201.11l-2.26-.96"/>
    <path class="cls-4" d="M825.81,359.26l2.39,1.43s-349.38,201.55-350.53,201.91c-2.31,1.43-3.11,8.42.04,6.61,3.15-1.81,348.3-200.15,348.3-200.15l-2.29-1.16"/>
    <path class="cls-4" d="M826.01,361.95l2.19,1.16s-346.07,198.91-348.55,200.37-2.13,4.09,0,2.86,348.55-201.03,348.55-201.03l-2.08-1"/>
    <path class="cls-4" d="M824.4,374.97l2.49,1.35s-348.27,199.49-350.97,202.35-3.5,13.02,0,11.01,348.82-200.59,348.82-200.59l-2.2-1.08"/>
    <path class="cls-4" d="M825.73,376.98l2.48,1.33s-347.67,199.34-350.09,201.24-2.5,7.82,0,6.39,347.9-199.93,347.9-199.93l-1.28-.68"/>
    <path class="cls-4" d="M826.43,379.33l2.87,1.4s-347.28,198.3-349.21,199.93-2.3,3.74,0,2.42,349.21-200.37,349.21-200.37l-1.98-.85"/>
    <path class="cls-4" d="M822.79,390.21l4.69,2.49s-348.96,200.81-351.19,202.62-3.34,13.99,0,12.05,349.04-201.69,349.04-201.69l-1.88-1.11"/>
    <path class="cls-4" d="M825.45,393.86l2.75,1.43s-348.25,200.03-350.09,201.44-3.64,8.92,0,6.83,347.9-200.45,347.9-200.45l-1.21-.7"/>
    <path class="cls-4" d="M826.21,396.43l3.1,1.47-349.21,199.49c-1.42,1.34-1.92,3.97,0,2.86s346.79-199.05,346.79-199.05l-1.63-.99"/>
    <path class="cls-4" d="M822.41,410.13l2.31,1.2s-345.51,198.4-348.82,201.47c-3.03,2.82-3.24,13.97,0,11.67,3.74-2.65,348.82-200.59,348.82-200.59l-1.79-1.11"/>
    <path class="cls-4" d="M824.42,408.98l3.79,2.35s-347.86,201.02-349.16,201.71-3.79,8.31,0,6.14,346.96-198.16,346.96-198.16l-1.84-1.24"/>
    <path class="cls-4" d="M827.69,411.63l2.72,1.64-349.24,201c-1.32,1.58-1.85,3.11,0,2.05s348.14-199.49,348.14-199.49l-2.51-1.48"/>
    <path class="cls-4" d="M823.55,424.56l4.47,2.54s-347.45,200.04-350.97,202.13-3.54,13.71,0,11.67,348.82-201.03,348.82-201.03l-1.94-.91"/>
    <path class="cls-4" d="M827.04,427.66l2.27,1.28s-347.15,199.73-350.09,201.47-2.86,8.25,0,6.61,346.8-199.27,346.8-199.27l-1.57-.7"/>
    <path class="cls-4" d="M828.76,429.26l2.53,1.45s-347.83,198.85-349.65,200.15-1.8,3.45,0,2.42,349.65-200.15,349.65-200.15l-2.12-1.21"/>
    <path class="cls-4" d="M479.05,513.16l348.55-201.22-348.55,201.22Z"/>
    <path class="cls-4" d="M479.05,513.16c-1.93,1.21-1.12,2.74,0,2.09s348.48-201.25,348.48-201.25l-1.71-1.04"/>
    <line class="cls-4" x1="827.35" y1="311.94" x2="825.52" y2="310.84"/>
  </g>
  <g id="Support_and_stitching" data-name="Support and stitching">
    <g>
      <path class="cls-6" d="M469.5,673.37c.16-1.07.28-2.93.17-3.97.16-.8.12-1.77,0-2.78.18-.94.13-2.06,0-3.26.13-.76.11-1.68,0-2.7.12-.83.13-1.7,0-2.62.18-.91.18-1.89,0-2.94.25-.67.14-1.8,0-2.97.15-.7.12-1.53,0-2.43.16-.73.15-1.67,0-2.77.16-.79.15-1.65,0-2.58.19-.87.15-1.97,0-3.17.19-.53.12-1.42,0-2.4.15-.7.1-1.75,0-2.9.12-.66.08-1.68,0-2.81.18-.67.12-1.69,0-2.8.15-.71.16-1.52,0-2.43.17-.62.12-1.5,0-2.48.16-.68.13-1.58,0-2.59.19-.81.15-1.65,0-2.51.22-.72.17-1.66,0-2.68.22-.74.17-1.66,0-2.66.18-.74.16-1.61,0-2.57.1-.86.08-1.82,0-2.83.19-.8.12-1.91,0-3.11.11-.69.07-1.59,0-2.54.15-.78.1-1.76,0-2.8.15-.71.1-1.59,0-2.52.13-.66.1-1.54,0-2.51.16-.64.1-1.51,0-2.43.17-.66.14-1.5,0-2.45.19-.67.12-1.67,0-2.73.17-.65.11-1.51,0-2.42.14-.69.11-1.51,0-2.4.13-.73.12-1.56,0-2.46.18-.6.16-1.41,0-2.36.14-.82.14-1.62,0-2.42.16-.78.12-1.56,0-2.34.11-.57.09-1.21,0-1.9.12-.61.08-1.44,0-2.36.15-.67.13-1.41,0-2.18.16-.7.12-1.52,0-2.41.11-.65.09-1.38,0-2.16.14-.64.11-1.32,0-2.04.1-.72.07-1.59,0-2.54.11-.71.09-1.52,0-2.36.14-.82.09-1.71,0-2.62.17-.72.12-1.67,0-2.68.14-.98.09-1.85,0-2.7.16-.66.12-1.42,0-2.22.13-.94.12-1.96,0-3.04.16-.63.11-1.44,0-2.32.18-.64.13-1.41,0-2.25.14-.57.09-1.37,0-2.22.15-.78.14-1.6,0-2.44.15-.56.12-1.44,0-2.41.14-.58.12-1.41,0-2.39.07-.6.06-1.47,0-2.47.11-.7.11-1.48,0-2.34.13-.69.12-1.47,0-2.34.17-.63.12-1.53,0-2.51.11-.72.1-1.51,0-2.34.17-.84.14-1.92,0-3.1.15-.71.13-1.56,0-2.52.13-.76.14-1.57,0-2.46.12-.32.09-.93,0-1.64.14-.69.11-1.51,0-2.39.15-.59.1-1.38,0-2.22.14-.73.11-1.64,0-2.61.14-.52.09-1.35,0-2.22.11-.57.08-1.43,0-2.36.1-.65.1-1.48,0-2.5.1-.48.1-1.07,0-1.79.17-.89.14-1.76,0-2.62.1-.66.11-1.32,0-1.98.1-.69.1-1.32,0-1.91.1-.7.1-1.4,0-2.1.12-.58.08-1.43,0-2.33.12-.56.09-1.31,0-2.15.12-.46.21-1.57.08-2.17.15-.77.03-1.16-.08-2.2.18-.43.13-1.1,0-1.88.22-.45.12-1.28,0-2.12.14-.53.09-1.41,0-2.35.17-.62.11-1.46,0-2.37.16-.51.1-1.27,0-2.08.17-.47.14-1.28,0-2.24.16-.65.12-1.45,0-2.31.16-.76.11-1.72,0-2.74.22-1.23.13-2.67,0-4.15.25-1.25.21-2.73,0-4.33.33-1.1.23-2.61,0-4.24.16-1.45.12-2.69,0-3.85,0,0,.3-7.93,0-8.63s-1.07-.97-1.07-.97c-.35-.37-.35-1.99-.7-1.74-.06-.06-1.77,1.14-1.64,2.97.03.42-.76.75-.76.75-.44.7.04,1.68.22,4.04-.55.78-.27,4.18,0,7.51-.39.78-.18,2.87,0,4.89-.52.99-.3,3.2,0,5.52-.23.46-.25,1.52-.06,2.51-.23.79-.15,1.47.06,2.54-.23.54-.22,1.25,0,2.12-.19.56-.18,1.35,0,2.34-.19.7-.15,1.64,0,2.71-.16.71-.15,1.45,0,2.22-.16.7-.15,1.41,0,2.13-.19.82-.22,1.6,0,2.32-.18.61-.18,1.21,0,1.81-.17.76-.17,1.51,0,2.24-.17.83-.19,1.64,0,2.4-.13.44-.1,1.02,0,1.66-.11.57-.13,1.13,0,1.66-.11.74-.12,1.62,0,2.68-.2.69-.32,1.38-.16,2.3-.12.49.04,1.17.16,1.73-.13.74-.1,1.64,0,2.6-.14.53-.09,1.34,0,2.22-.05.51-.06,1.01,0,1.53-.13.73-.11,1.62,0,2.6-.13.72-.1,1.55,0,2.45-.16.43-.1,1.26,0,2.14-.15.35-.17,1.03,0,2.26-.15.53-.15,1.33,0,2.38-.15.63-.13,1.51,0,2.54-.17.54-.15,1.36,0,2.35-.13.67-.13,1.49,0,2.43-.09.77-.1,1.67,0,2.71-.13.74-.15,1.53,0,2.39-.17.6-.14,1.44,0,2.42-.18.53-.18,1.25,0,2.14-.18.46-.14,1.27,0,2.24-.13.67-.12,1.58,0,2.68-.12.5-.12,1.19,0,2.06-.18.5-.12,1.39,0,2.37-.14.62-.13,1.41,0,2.32-.17.69-.15,1.46,0,2.29-.14.62-.11,1.48,0,2.44-.09.91-.15,1.8,0,2.51-.1.83-.17,1.68,0,2.62-.14.77-.14,1.72,0,2.84-.14.7-.12,1.62,0,2.68-.14.68-.13,1.57,0,2.61-.16.56-.12,1.42,0,2.39-.11.47-.1,1.17,0,2.02-.17.6-.11,1.55,0,2.58-.15.38-.12,1.05,0,1.86-.18.62-.11,1.51,0,2.44-.15.55-.11,1.37,0,2.31-.17.46-.12,1.37,0,2.43-.16.61-.11,1.42,0,2.29-.16.55-.1,1.39,0,2.29-.14.65-.11,1.46,0,2.36-.12.66-.12,1.38,0,2.15-.14.64-.12,1.41,0,2.26-.17.65-.17,1.5,0,2.55-.18.63-.12,1.58,0,2.6-.15.64-.13,1.48,0,2.45-.16.64-.11,1.57,0,2.59-.11.6-.09,1.45,0,2.43-.16.63-.12,1.5,0,2.45-.16.71-.14,1.64,0,2.73-.2.62-.14,1.55,0,2.59-.17.71-.15,1.75,0,3.04-.17.59-.13,1.63,0,2.85-.1.7-.08,1.64,0,2.71-.13.73-.15,1.5,0,2.33-.11.73-.08,1.73,0,2.84-.15.66-.11,1.63,0,2.69-.13.98-.18,1.9,0,2.69-.15.65-.19,1.44,0,2.55-.16.63-.14,1.38,0,2.22-.15.77-.12,1.68,0,2.65-.16.74-.14,1.64,0,2.65-.14.85-.11,1.93,0,3.12-.16.81-.13,1.72,0,2.7-.14.9-.12,1.94,0,3.06-.15.69-.14,1.57,0,2.61-.16.65-.13,1.49,0,2.44-.14.82-.13,1.76,0,2.78-.17.79-.15,1.82,0,3.02-.14.72-.12,1.6,0,2.57-.12.94-.13,1.9,0,2.89-.15.95-.15,1.9,0,2.86-.16.99-.17,2.01,0,3.07-.12,1.02-.16,1.99,0,2.83-.17,1.13-.08,5.9.13,6.91.22.94.6,1.43-.01,4.68v.72c0,.46.35.72.59.46l.62-.67c.21,1.62.3.68.68.58.69,1.13,1.19,1.52,1.44.91.37-.06.69-.36.71-1.85.13.58,0-.38-.39-2.74Z"/>
      <path class="cls-6" d="M474.15,675.97c-.14-.77.2-2.42.12-3.63.16-.91.1-2.01,0-3.15.21-.52.14-1.59,0-2.78.21-.76.13-1.94,0-3.2.12-.53.07-1.62,0-2.76.19-.64.13-1.67,0-2.8.21-.65.14-1.66,0-2.76.25-.67.14-1.8,0-2.97.15-.7.12-1.53,0-2.43.16-.73.15-1.67,0-2.77.16-.79.15-1.65,0-2.58.19-.87.15-1.97,0-3.17.19-.53.12-1.42,0-2.4.15-.7.1-1.75,0-2.9.12-.66.08-1.68,0-2.81.18-.67.12-1.69,0-2.8.15-.71.16-1.52,0-2.43.17-.62.12-1.5,0-2.48.16-.68.13-1.58,0-2.59.19-.81.15-1.65,0-2.51.22-.72.17-1.66,0-2.68.22-.74.17-1.66,0-2.66.18-.74.16-1.61,0-2.57.1-.86.08-1.82,0-2.83.19-.8.12-1.91,0-3.11.11-.69.07-1.59,0-2.54.15-.78.1-1.76,0-2.8.15-.71.1-1.59,0-2.52.13-.66.1-1.54,0-2.51.16-.64.1-1.51,0-2.43.17-.66.14-1.5,0-2.45.19-.67.12-1.67,0-2.73.17-.65.11-1.51,0-2.42.14-.69.11-1.51,0-2.4.13-.73.12-1.56,0-2.46.18-.6.16-1.41,0-2.36.14-.82.14-1.62,0-2.42.16-.78.12-1.56,0-2.34.11-.57.09-1.21,0-1.9.12-.61.08-1.44,0-2.36.15-.67.13-1.41,0-2.18.16-.7.12-1.52,0-2.41.11-.65.09-1.38,0-2.16.14-.64.11-1.32,0-2.04.1-.72.07-1.59,0-2.54.11-.71.09-1.52,0-2.36.14-.82.09-1.71,0-2.62.17-.72.12-1.67,0-2.68.14-.98.09-1.85,0-2.7.16-.66.12-1.42,0-2.22.13-.94.12-1.96,0-3.04.16-.63.11-1.44,0-2.32.18-.64.13-1.41,0-2.25.14-.57.09-1.37,0-2.22.15-.78.14-1.6,0-2.44.15-.56.12-1.44,0-2.41.14-.58.12-1.41,0-2.39.07-.6.06-1.47,0-2.47.11-.7.11-1.48,0-2.34.13-.69.12-1.47,0-2.34.17-.63.12-1.53,0-2.51.11-.72.1-1.51,0-2.34.17-.84.14-1.92,0-3.1.15-.71.13-1.56,0-2.52.13-.76.14-1.57,0-2.46.12-.32.09-.93,0-1.64.14-.69.11-1.51,0-2.39.15-.59.1-1.38,0-2.22.14-.73.11-1.64,0-2.61.14-.52.09-1.35,0-2.22.11-.57.08-1.43,0-2.36.1-.65.1-1.48,0-2.5.1-.48.1-1.07,0-1.79.17-.89.14-1.76,0-2.62.1-.66.11-1.32,0-1.98.1-.69.1-1.32,0-1.91.1-.7.1-1.4,0-2.1.12-.58.08-1.43,0-2.33.12-.56.09-1.31,0-2.15.12-.46.21-1.57.08-2.17.15-.77.03-1.16-.08-2.2.18-.43.13-1.1,0-1.88.22-.45.12-1.28,0-2.12.14-.53.09-1.41,0-2.35.17-.62.11-1.46,0-2.37.16-.51.1-1.27,0-2.08.17-.47.14-1.28,0-2.24.15-.88.11-1.71,0-2.52.27-.85.16-2.01,0-3.2.13-1.18.15-2.32,0-3.39.2-1.31.17-2.73,0-4.21.17-1.05.11-2.49,0-4.01.19-.6.14-1.6,0-2.74.22-.89.19-2.17,0-3.69,0,0-.03-4.41,0-5.12s-1.01.53-1.01.53c-.3-.74-.77-.94-1.2-.68-1.17-2.08-1.25-1.26-1.17-.45,0,0-.16-.71-.57-.54s0,3.86,0,3.86c-.34,1.54-.21,4.19,0,7.03-.32,1.17-.18,3.44,0,5.81-.32.87-.17,2.91,0,5.02v.22c-.31.65-.19,2.14,0,3.39-.23.79-.22,1.4,0,2.47-.23.54-.22,1.25,0,2.12-.19.56-.18,1.35,0,2.34-.19.7-.15,1.64,0,2.71-.16.71-.15,1.45,0,2.22-.16.7-.15,1.41,0,2.13-.19.82-.22,1.6,0,2.32-.18.61-.18,1.21,0,1.81-.17.76-.17,1.51,0,2.24-.17.83-.19,1.64,0,2.4-.13.44-.1,1.02,0,1.66-.11.57-.13,1.13,0,1.66-.11.74-.12,1.62,0,2.68-.2.69-.16,1.53,0,2.45-.12.49-.12,1.02,0,1.59-.13.74-.1,1.64,0,2.6-.14.53-.09,1.34,0,2.22-.05.51-.06,1.01,0,1.53-.13.73-.11,1.62,0,2.6-.13.72-.1,1.55,0,2.45-.16.43-.1,1.26,0,2.14-.15.35-.17,1.03,0,2.26-.15.53-.15,1.33,0,2.38-.15.63-.13,1.51,0,2.54-.17.54-.15,1.36,0,2.35-.13.67-.13,1.49,0,2.43-.09.77-.1,1.67,0,2.71-.13.74-.15,1.53,0,2.39-.17.6-.14,1.44,0,2.42-.18.53-.18,1.25,0,2.14-.18.46-.14,1.27,0,2.24-.13.67-.12,1.58,0,2.68-.12.5-.12,1.19,0,2.06-.18.5-.12,1.39,0,2.37-.14.62-.13,1.41,0,2.32-.17.69-.15,1.46,0,2.29-.14.62-.11,1.48,0,2.44-.09.91-.15,1.8,0,2.51-.1.83-.17,1.68,0,2.62-.14.77-.14,1.72,0,2.84-.14.7-.12,1.62,0,2.68-.14.68-.13,1.57,0,2.61-.16.56-.12,1.42,0,2.39-.11.47-.1,1.17,0,2.02-.17.6-.11,1.55,0,2.58-.15.38-.12,1.05,0,1.86-.18.62-.11,1.51,0,2.44-.15.55-.11,1.37,0,2.31-.17.46-.12,1.37,0,2.43-.16.61-.11,1.42,0,2.29-.16.55-.1,1.39,0,2.29-.14.65-.11,1.46,0,2.36-.12.66-.12,1.38,0,2.15-.14.64-.12,1.41,0,2.26-.17.65-.17,1.5,0,2.55-.18.63-.12,1.58,0,2.6-.15.64-.13,1.48,0,2.45-.16.64-.11,1.57,0,2.59-.11.6-.09,1.45,0,2.43-.16.63-.12,1.5,0,2.45-.16.71-.14,1.64,0,2.73-.2.62-.14,1.55,0,2.59-.17.71-.15,1.75,0,3.04-.17.59-.13,1.63,0,2.85-.1.7-.08,1.64,0,2.71-.13.73-.15,1.5,0,2.33-.11.73-.08,1.73,0,2.84-.15.66-.11,1.63,0,2.69-.13.98-.18,1.9,0,2.69-.15.65-.19,1.44,0,2.55-.16.63-.14,1.38,0,2.22-.15.77-.12,1.68,0,2.65-.16.74-.14,1.64,0,2.65-.14.85-.11,1.93,0,3.12-.16.81-.13,1.72,0,2.7-.14.9-.12,1.94,0,3.06-.15.69-.14,1.57,0,2.61-.16.65-.13,1.49,0,2.44-.14.82-.13,1.76,0,2.78-.17.79-.15,1.82,0,3.02-.14.72-.12,1.6,0,2.57-.17.68-.13,1.66,0,2.78-.15.77-.12,1.74,0,2.81-.18.76-.12,1.95,0,3.23-.19.42-.1,1.61,0,2.83-.22.76-.14,1.93,0,3.2-.2.61-.11,1.94,0,3.32-.21.65-.43,2.02-.33,2.97v4.13c-.05,3.12.57,4.48,1.45,5.18-.05,1.16.15,1.66.63,1.43.99.5,1.69-.7,2.16-3.3.56.73,1.51-2.38.83-3.31-.05-.07-.77-1.05-.91-1.82Z"/>
    </g>
    <path class="cls-5" d="M465.82,460.35c.84,2.11,2.1,3.49,3.75,4.56"/>
    <path class="cls-5" d="M465.82,462.7c1.06,1.74,2.31,3.55,3.87,4.6"/>
    <path class="cls-5" d="M465.82,465.39c1,1.55,2.29,3.09,3.85,4.27"/>
    <path class="cls-5" d="M465.73,467.53c.82,1.53,2.3,3.16,3.95,4.25"/>
    <path class="cls-5" d="M465.82,469.66c.79,1.35,2.02,2.73,3.69,3.88"/>
    <path class="cls-5" d="M465.82,472.05c.73,1.4,2.22,2.37,3.93,3.67"/>
    <path class="cls-5" d="M465.73,473.74c.65,1.38,2.07,2.86,3.78,4.22"/>
    <path class="cls-5" d="M465.73,480.21c.67,1.46,2.27,3.22,3.95,4.63"/>
    <path class="cls-5" d="M465.82,481.78c.84,1.63,2.05,3.66,3.7,4.68"/>
    <path class="cls-2" d="M465.82,484.52c.61,1.43,2,3.02,3.85,3.93"/>
    <path class="cls-5" d="M465.55,486.71c.74,1.53,2.38,3.11,4.04,4.34"/>
    <path class="cls-5" d="M465.64,478.45c.9,1.55,2.37,3.02,4.03,4.46"/>
    <path class="cls-5" d="M465.71,476.72c.77,1.26,2.3,2.65,3.97,4.07"/>
    <path class="cls-2" d="M465.73,488.38c.72,2.28,2.19,3.51,3.95,4.37"/>
    <path class="cls-5" d="M465.73,491.05c1.02,1.74,2.39,3.78,3.95,5.11"/>
    <path class="cls-5" d="M465.8,493.24c.72,2.16,2.1,3.11,3.87,4.37"/>
    <path class="cls-5" d="M465.68,500.5c.93,1.85,2.23,2.49,3.87,4.12"/>
    <path class="cls-2" d="M465.73,502.14c.89,1.97,2.27,3.78,3.95,4.92"/>
    <path class="cls-5" d="M465.73,504.4c.96,2.04,2.22,3.32,3.82,4.33"/>
    <path class="cls-2" d="M465.84,506.72c.98,1.93,2.05,3.52,3.71,4.49"/>
    <path class="cls-5" d="M465.77,497.47c1.03,1.94,2.22,3.72,3.78,4.97"/>
    <path class="cls-5" d="M465.59,495.25c.88,1.85,2.4,3.41,4,4.68"/>
    <path class="cls-2" d="M465.79,509.1c.93,2.19,2.08,3.38,3.76,4.64"/>
    <path class="cls-5" d="M465.84,511.57c1.2,2.15,2.31,4.07,3.79,5.33"/>
    <path class="cls-5" d="M465.73,454c1.12,1.92,2.47,3.54,3.95,4.99"/>
    <path class="cls-2" d="M465.6,452.56c.96,1.75,2.47,2.34,4.07,3.93"/>
    <path class="cls-2" d="M465.81,447.55c.47,2.75,2.09,3.7,3.9,6.24"/>
    <path class="cls-5" d="M470.32,450.22c.73,1.87,2.21,2.5,3.89,4.49"/>
    <path class="cls-2" d="M470.32,446.5c.69,2.79,2.17,3.85,3.9,6.21"/>
    <path class="cls-5" d="M470.32,440.64c1.35,4.04,2.68,3.89,3.89,6.4"/>
    <path class="cls-5" d="M470.32,432.14c.16,2.93,2,7.97,3.95,13.14"/>
    <path class="cls-2" d="M470.89,430.48c.6,4.64,1.16,8.74,3.33,10.61"/>
    <path class="cls-2" d="M465.67,442.09c.9,3.16,2.38,4.71,4,7.37"/>
    <path class="cls-2" d="M465.51,433.51c.92,4.47,2.52,8.17,4.2,11.93"/>
    <path class="cls-2" d="M466.26,430.48c.46,3.93,1.43,5.6,3.41,10.61"/>
    <path class="cls-2" d="M467.9,427.51c-.09,2.97.42,5.99,1.79,9.77"/>
    <path class="cls-2" d="M468.59,428.9c-.49,2.33.43,3.39,1.18,6.29"/>
    <path class="cls-5" d="M474.13,657.74c-1.12-1.92-2.28-3.98-3.76-5.42"/>
    <path class="cls-2" d="M474.13,660.45c-.96-1.75-2.21-3.56-3.81-5.15"/>
    <path class="cls-2" d="M474.23,663.75c-.47-2.75-2.09-3.34-3.89-5.88"/>
    <path class="cls-2" d="M474.24,666.83c-.9-3.16-2.29-2.83-3.92-5.49"/>
    <path class="cls-2" d="M469.61,666.96c-.9-3.16-2.38-3.29-4-5.95"/>
    <path class="cls-2" d="M474.3,673.13c-.92-4.47-2.3-2.55-3.98-6.3"/>
    <path class="cls-2" d="M474.23,669.75c-.92-4.47-2.18-2.24-3.86-5.99"/>
    <path class="cls-2" d="M474.13,681.24c-.46-3.93-1.78-6.03-3.76-11.03"/>
    <path class="cls-2" d="M472.13,684.08c.09-2.97-.66-6.79-2.03-10.57"/>
    <path class="cls-2" d="M471.59,682.87c.49-2.33-.76-4.37-1.51-7.27"/>
    <path class="cls-2" d="M472.29,431.23c-.58,1.87.52,4.4,1.92,7.05"/>
    <path class="cls-2" d="M473.11,431.69c-.4,1.48.35,3.48,1.32,5.58"/>
    <path class="cls-5" d="M465.73,458.01c1.04,1.89,2.22,3.69,3.79,4.78"/>
    <path class="cls-5" d="M465.73,455.6c1.25,1.94,2.56,4.21,3.95,5.39"/>
    <path class="cls-2" d="M465.72,627.37c1.37,2.51,2.56,4.73,3.82,5.67"/>
    <path class="cls-2" d="M465.71,622.3c1.19,2.52,2.65,4.73,3.87,5.54"/>
    <path class="cls-5" d="M465.74,619.8c1.17,2.1,2.33,4.28,3.84,5.52"/>
    <path class="cls-5" d="M465.74,617.18c1.46,2.32,2.87,4.4,3.95,5.14"/>
    <path class="cls-2" d="M465.74,513.92c1.15,2.01,2.3,4.14,3.81,5.3"/>
    <path class="cls-2" d="M465.74,521.51c1.38,2.29,2.72,4,3.93,4.79"/>
    <path class="cls-2" d="M465.79,630.28c.93,2.35,2.13,4.28,3.83,5.75"/>
    <path class="cls-2" d="M465.85,614.89c1.27,2.27,2.41,4.12,3.73,5.38"/>
    <path class="cls-5" d="M465.82,523.66c.83,1.99,2,3.57,3.7,5.09"/>
    <path class="cls-2" d="M465.73,624.7c1.38,2.41,2.72,4.8,3.94,5.56"/>
    <path class="cls-2" d="M465.82,525.87c.82,2.17,2.2,4.11,3.86,5.37"/>
    <path class="cls-2" d="M465.73,528.48c.73,1.75,2.21,3.31,3.83,5.05"/>
    <path class="cls-2" d="M465.71,576.13c1.41,2.08,2.65,1.87,3.84,2.72"/>
    <path class="cls-2" d="M465.73,578.41c1.29,2.11,2.47,4.18,3.85,5.29"/>
    <path class="cls-2" d="M465.65,577.04c1.29,2.11,2.62,3.07,3.99,4.18"/>
    <path class="cls-5" d="M470.42,460.16c1.22,1.95,2.54,3.42,3.95,4.49"/>
    <path class="cls-5" d="M470.42,462.35c1.06,1.78,2.3,3.58,3.84,4.61"/>
    <path class="cls-5" d="M470.42,465.19c1.15,1.67,2.39,3.5,3.84,4.58"/>
    <path class="cls-5" d="M470.42,467.37c.77,1.51,2.2,3.18,3.84,4.29"/>
    <path class="cls-2" d="M465.83,580.69c1.15,2.23,2.39,4.27,3.86,5.43"/>
    <path class="cls-2" d="M465.77,583.16c1.4,2.52,2.71,5,3.83,5.26"/>
    <path class="cls-5" d="M470.32,469.55c.82,1.36,2.37,3.19,4.02,4.32"/>
    <path class="cls-5" d="M470.35,471.72c.96,1.64,2.3,2.65,3.82,3.82"/>
    <path class="cls-5" d="M470.42,473.54c.76,1.56,2.19,2.97,3.79,4.22"/>
    <path class="cls-5" d="M470.32,479.81c.99,1.67,2.42,3.35,3.92,4.63"/>
    <path class="cls-5" d="M470.32,481.49c.73,1.33,2.23,3.55,3.83,4.8"/>
    <path class="cls-5" d="M470.42,484.23c.92,1.54,2.42,2.76,4.01,3.94"/>
    <path class="cls-5" d="M470.32,486.85c.9,1.83,2.32,3.13,3.95,4.2"/>
    <path class="cls-2" d="M470.32,478.08c.9,1.62,2.27,2.78,3.92,4.18"/>
    <path class="cls-5" d="M470.32,475.93c.91,1.57,2.36,3.43,3.95,4.65"/>
    <path class="cls-5" d="M470.42,488.29c.49,2.04,1.98,4.23,3.84,5.28"/>
    <path class="cls-5" d="M470.42,490.93c.7,2,2.11,3.83,3.84,5.02"/>
    <path class="cls-5" d="M470.34,492.95c.96,2,2.37,3.04,3.92,4.45"/>
    <path class="cls-5" d="M470.34,499.67c.89,1.96,2.26,3.36,3.91,4.92"/>
    <path class="cls-2" d="M470.34,501.84c.98,1.93,2.26,3.91,3.92,5"/>
    <path class="cls-5" d="M470.32,505.19c1.06,2.02,2.3,2.44,3.87,3.39"/>
    <path class="cls-2" d="M470.34,506.4c1.22,3.71,2.32,3.7,3.92,4.54"/>
    <path class="cls-2" d="M465.77,585.68c1.28,2.51,2.42,4.64,3.74,5.39"/>
    <path class="cls-5" d="M470.34,497.17c1.21,2.17,2.53,4.11,3.91,5.21"/>
    <path class="cls-5" d="M470.34,494.59c1.21,1.92,2.52,3.77,3.94,5.15"/>
    <path class="cls-5" d="M470.32,509.1c.89,2.44,2.23,3.31,3.95,4.36"/>
    <path class="cls-2" d="M465.83,588.21c1.25,2.22,2.44,4.29,3.8,5.47"/>
    <path class="cls-5" d="M465.68,590.55c1.32,2.36,2.65,4.47,3.99,5.47"/>
    <path class="cls-5" d="M465.77,593.08c1.2,2.22,2.39,4.3,3.86,5.63"/>
    <path class="cls-2" d="M470.38,511.28c.52,1.66,1.94,3.48,3.88,5.28"/>
    <path class="cls-2" d="M470.43,513.75c.41,2.19,2.24,4.68,3.74,5.16"/>
    <path class="cls-2" d="M465.75,595.57c1,1.97,2.2,4.01,3.78,5.54"/>
    <path class="cls-2" d="M465.73,519.05c1.48,2.16,2.83,4.11,3.95,4.9"/>
    <path class="cls-5" d="M465.73,516.68c1.32,2.11,2.67,4.11,3.95,4.94"/>
    <path class="cls-2" d="M465.82,530.61c.93,2.04,2.21,4.09,3.8,5.58"/>
    <path class="cls-5" d="M465.71,532.95c.91,1.93,2.35,4.91,3.96,6.43"/>
    <path class="cls-5" d="M465.82,535.28c1.16,2.19,2.46,4.01,3.87,5.35"/>
    <path class="cls-5" d="M465.73,545.02c.97,1.97,2.34,4.14,3.92,5.9"/>
    <path class="cls-2" d="M465.77,597.97c1.38,2.33,2.69,4.91,3.9,5.88"/>
    <path class="cls-2" d="M465.7,600.82c1.24,2.35,2.55,4.51,3.97,5.58"/>
    <path class="cls-2" d="M465.77,604.04c1.37,2.6,2.45,4.53,3.81,5.51"/>
    <path class="cls-2" d="M465.75,606.79c1.12,2.21,2.26,4.15,3.78,5.58"/>
    <path class="cls-2" d="M465.85,609.68c1.17,2.3,2.13,3.88,3.68,5.26"/>
    <path class="cls-5" d="M465.78,548.04c1.01,1.87,2.29,3.72,3.81,5.54"/>
    <path class="cls-5" d="M465.74,550.33c.69,2.13,2.15,4.39,3.93,5.75"/>
    <path class="cls-2" d="M465.71,635.91c1.07,2.23,2.28,4.1,3.83,5.31"/>
    <path class="cls-2" d="M465.67,633.11c1.22,2.3,2.45,4.54,3.87,5.67"/>
    <path class="cls-5" d="M465.8,539.8c1.12,2.11,2.31,4.65,3.82,6.24"/>
    <path class="cls-5" d="M465.8,537.68c1.14,2.06,2.43,3.82,3.89,5.2"/>
    <path class="cls-2" d="M465.72,644.09c1,2.17,2.22,4.36,3.81,5.64"/>
    <path class="cls-5" d="M465.74,646.89c.98,2.21,2.3,3.9,3.89,5.19"/>
    <path class="cls-2" d="M465.78,553.23c.64,1.66,2.16,3.52,3.9,5.21"/>
    <path class="cls-5" d="M465.76,554.85c.76,1.59,2.23,3.36,3.91,5.19"/>
    <path class="cls-5" d="M465.73,556.89c.72,1.96,2.18,3.64,3.95,5.2"/>
    <path class="cls-5" d="M465.74,563.83c.89,2.1,2.38,3.62,3.95,5.06"/>
    <path class="cls-2" d="M465.72,641.62c1.05,2.11,1.99,4.42,3.81,5.32"/>
    <path class="cls-5" d="M465.73,566.15c.95,2.09,2.35,3.7,3.95,5.11"/>
    <path class="cls-2" d="M465.71,569.03c.92,2.06,2.31,1.97,3.87,3.24"/>
    <path class="cls-5" d="M465.72,571.43c.97,1.98,2.25,3.78,3.85,4.95"/>
    <path class="cls-5" d="M465.67,561.77c.96,2.06,2.29,1.94,3.87,3.51"/>
    <path class="cls-5" d="M465.7,559.29c1.01,1.96,2.27,2.47,3.84,3.93"/>
    <path class="cls-2" d="M465.72,562.93c1.01,1.96,2.37,3.18,3.95,4.64"/>
    <path class="cls-5" d="M465.72,639c.92,1.84,2.3,3.51,3.95,5.09"/>
    <path class="cls-5" d="M465.73,573.23c.79,1.7,2.27,3.25,3.95,4.75"/>
    <path class="cls-2" d="M465.73,611.61c1.35,2.37,2.57,4.73,3.85,5.94"/>
    <path class="cls-5" d="M470.32,451.96c1.06,1.88,2.33,4.39,3.84,5.88"/>
    <path class="cls-2" d="M469.54,658.07c-.73-1.87-2.06-3.37-3.73-5.36"/>
    <path class="cls-2" d="M469.74,661.42c-.69-2.79-2.21-3.54-3.93-5.89"/>
    <path class="cls-2" d="M469.68,663.9c-1.35-4.04-2.68-3.08-3.88-5.6"/>
    <path class="cls-2" d="M469.74,675.77c-.16-2.93-1.95-6.32-3.9-11.5"/>
    <path class="cls-2" d="M474.01,675.97c-.16-2.93-1.76-2.23-3.71-7.41"/>
    <path class="cls-2" d="M469.14,677.79c-.6-4.64-1.22-9.09-3.39-10.96"/>
    <path class="cls-2" d="M467.79,676.98c.58-1.87-.54-4.69-1.95-7.34"/>
    <path class="cls-2" d="M467.06,676.29c.4-1.48-.17-3.04-1.13-5.14"/>
    <path class="cls-5" d="M469.63,655.21c-1.06-1.88-2.35-3.64-3.86-5.14"/>
    <path class="cls-5" d="M470.42,458.01c.79,1.75,2.01,3.29,3.73,4.51"/>
    <path class="cls-5" d="M470.37,455.43c.95,1.82,2.2,3.58,3.79,4.97"/>
    <path class="cls-2" d="M470.31,627.15c1.21,2.24,2.41,4.4,3.85,5.68"/>
    <path class="cls-2" d="M470.3,622.08c1.4,2.38,2.7,4.94,3.86,5.53"/>
    <path class="cls-5" d="M470.34,619.58c1.2,2.27,2.51,4.04,3.95,5.14"/>
    <path class="cls-5" d="M470.33,616.97c1.29,2.23,2.58,4.52,3.93,5.58"/>
    <path class="cls-2" d="M470.33,521.3c1.28,2.29,2.58,4.15,3.93,5.04"/>
    <path class="cls-2" d="M470.26,629.67c1.01,2.37,2.28,4.58,3.9,6.03"/>
    <path class="cls-2" d="M470.35,614.51c.92,1.98,2.19,3.87,3.81,5.58"/>
    <path class="cls-2" d="M470.38,523.42c1.3,2.28,2.46,4.3,3.79,5.26"/>
    <path class="cls-2" d="M470.32,624.49c1.38,2.32,2.64,4.84,3.84,5.56"/>
    <path class="cls-5" d="M470.36,525.66c.72,1.42,2.2,3.72,3.89,5.49"/>
    <path class="cls-5" d="M470.34,528.31c.6,1.66,2.2,3.44,3.9,5.22"/>
    <path class="cls-5" d="M470.33,575.9c1.18,2.16,2.45,4.08,3.93,5.02"/>
    <path class="cls-2" d="M470.4,578.17c1.13,2.05,2.35,3.88,3.86,5.2"/>
    <path class="cls-2" d="M470.4,580.45c1.33,2.18,2.49,4.34,3.74,5.43"/>
    <path class="cls-5" d="M470.33,582.91c1.09,2.13,2.28,3.99,3.81,5.29"/>
    <path class="cls-2" d="M470.33,585.33c1.05,2.14,2.25,4.34,3.81,5.66"/>
    <path class="cls-2" d="M470.34,587.97c1.3,2.21,2.62,4.24,3.92,5.41"/>
    <path class="cls-2" d="M470.28,590.39c.96,2.22,2.21,4.02,3.87,5.36"/>
    <path class="cls-5" d="M470.3,592.82c1.05,2.05,2.4,3.95,3.96,5.5"/>
    <path class="cls-5" d="M470.3,595.28c.92,2.08,2.19,4.11,3.84,5.54"/>
    <path class="cls-2" d="M470.36,518.9c1.43,2.18,2.67,4.44,3.81,4.92"/>
    <path class="cls-2" d="M470.38,516.5c1.5,2.3,2.85,4.81,3.79,4.99"/>
    <path class="cls-2" d="M470.38,530.42c1.04,1.94,2.23,3.93,3.79,5.45"/>
    <path class="cls-5" d="M470.42,532.78c.86,1.76,2.11,3.68,3.79,5.33"/>
    <path class="cls-5" d="M470.29,535.04c1.12,1.94,2.5,3.81,3.95,5.36"/>
    <path class="cls-5" d="M470.38,544.9c1.14,2.27,2.43,4.22,3.88,5.66"/>
    <path class="cls-5" d="M470.3,598.05c.87,2.02,1.97,4.09,3.84,5.53"/>
    <path class="cls-5" d="M470.28,600.65c.98,2.07,2.36,3.92,3.99,5.53"/>
    <path class="cls-2" d="M470.22,603.58c1.27,2.24,2.44,4.33,3.93,5.78"/>
    <path class="cls-2" d="M470.35,606.63c1.3,2.36,3.56,5.88,3.91,5.49"/>
    <path class="cls-2" d="M470.3,609.36c1.37,2.46,2.54,4.37,3.84,5.35"/>
    <path class="cls-5" d="M470.35,547.73c.98,2.09,2.35,4.07,3.91,5.7"/>
    <path class="cls-5" d="M470.32,550.42c.88,2.13,2.37,4.12,3.98,5.62"/>
    <path class="cls-2" d="M470.31,635.7c1.2,2.66,2.32,4.95,3.8,5.23"/>
    <path class="cls-2" d="M470.26,632.9c.83,2.06,2.33,4.16,4,5.66"/>
    <path class="cls-5" d="M470.38,539.8c1.08,2.04,2.32,4.31,3.83,6.01"/>
    <path class="cls-2" d="M470.35,542.28c1.12,2.6,2.42,4.88,3.86,5.69"/>
    <path class="cls-2" d="M465.64,541.98c1.12,2.6,2.59,5.28,4.04,6.09"/>
    <path class="cls-5" d="M470.42,537.44c.89,1.84,2.33,3.77,3.95,5.72"/>
    <path class="cls-2" d="M470.32,643.87c1.24,2.45,2.58,4.79,3.95,5.62"/>
    <path class="cls-2" d="M470.34,646.68c1.35,2.75,2.66,4.75,3.89,5.19"/>
    <path class="cls-5" d="M470.35,649.72c1.33,2.47,2.65,4.55,3.89,5.19"/>
    <path class="cls-2" d="M470.32,553.03c.9,2.13,2.63,4.46,3.94,4.23"/>
    <path class="cls-5" d="M470.37,555.1c.7,1.89,2.18,4.09,3.9,5.66"/>
    <path class="cls-5" d="M470.21,554.06c.77,2.33,2.4,3.81,3.96,4.38"/>
    <path class="cls-2" d="M470.35,557.33c.74,1.9,2.07,3.81,3.75,5.44"/>
    <path class="cls-5" d="M470.34,563.61c1.26,1.9,2.57,3.59,3.95,5.06"/>
    <path class="cls-2" d="M470.34,641.46c1.42,2.49,2.78,4.82,3.93,5.25"/>
    <path class="cls-5" d="M470.32,566.41c.85,1.81,2.29,3.02,3.95,4.65"/>
    <path class="cls-5" d="M470.4,564.32c.85,1.81,2.1,3.7,3.76,5.33"/>
    <path class="cls-5" d="M470.29,569.03c1.01,1.64,2.37,1.82,3.97,3.01"/>
    <path class="cls-2" d="M470.4,571.43c1.27,2.36,2.4,1.53,3.9,2.49"/>
    <path class="cls-5" d="M470.32,561.77c.93,2.05,2.34,4.02,3.95,5.59"/>
    <path class="cls-5" d="M470.3,559.07c.79,1.73,2.3,4.21,3.97,5.88"/>
    <path class="cls-2" d="M470.31,638.78c1.06,2.02,2.25,4.19,3.9,5.47"/>
    <path class="cls-5" d="M470.4,573.67c1.16,1.97,2.38,2.92,3.86,4.09"/>
    <path class="cls-2" d="M470.31,574.6c1.2,2.36,2.55,3.79,3.92,4.09"/>
    <path class="cls-2" d="M470.32,611.39c1.36,2.5,2.56,4.98,3.83,6.01"/>
    <path class="cls-5" d="M465.73,571.43c.85,2.07,2.15,3.85,3.85,4.95"/>
    <path class="cls-2" d="M465.6,569.97c.85,2.07,2.36,3.05,4.07,4.15"/>
    <g>
      <path class="cls-7" d="M469.81,487.34c.58,2.24,4.78-.48,5.21-1.42.27-.84-.44-1.91-.51-1.24-.1.57-4.47,2.96-4.35,1.51.02-.22-.47.81-.36,1.16Z"/>
      <path class="cls-2" d="M469.81,487.34c.58,2.24,4.78-.48,5.21-1.42.27-.84-.44-1.91-.51-1.24-.1.57-4.47,2.96-4.35,1.51.02-.22-.47.81-.36,1.16Z"/>
    </g>
    <g>
      <path class="cls-7" d="M469.74,485.15c.46,2.41,4.59-.26,5.17-1.24.35-.82-.3-1.93-.41-1.27-.19.56-4.54,2.86-4.35,1.36.03-.22-.5.79-.41,1.15Z"/>
      <path class="cls-2" d="M469.74,485.15c.46,2.41,4.59-.26,5.17-1.24.35-.82-.3-1.93-.41-1.27-.19.56-4.54,2.86-4.35,1.36.03-.22-.5.79-.41,1.15Z"/>
    </g>
    <g>
      <path class="cls-7" d="M469.72,483.71c.52,1.57,4.2-.61,4.94-1.41.7-.95-.03-1.64-.03-1.41-.36.55-4.56,2.83-4.36,1.21.05-.3-.74,1.2-.55,1.61Z"/>
      <path class="cls-2" d="M469.72,483.71c.52,1.57,4.2-.61,4.94-1.41.7-.95-.03-1.64-.03-1.41-.36.55-4.56,2.83-4.36,1.21.05-.3-.74,1.2-.55,1.61Z"/>
    </g>
    <g>
      <path class="cls-7" d="M469.81,499.41c.58,2.24,4.78-.48,5.21-1.42.27-.84-.44-1.91-.51-1.24-.1.57-4.47,2.96-4.35,1.51.02-.22-.47.81-.36,1.16Z"/>
      <path class="cls-2" d="M469.81,499.41c.58,2.24,4.78-.48,5.21-1.42.27-.84-.44-1.91-.51-1.24-.1.57-4.47,2.96-4.35,1.51.02-.22-.47.81-.36,1.16Z"/>
    </g>
    <g>
      <path class="cls-7" d="M469.74,497.22c.46,2.41,4.59-.26,5.17-1.24.35-.82-.3-1.93-.41-1.27-.19.56-4.54,2.86-4.35,1.36.03-.22-.5.79-.41,1.15Z"/>
      <path class="cls-2" d="M469.74,497.22c.46,2.41,4.59-.26,5.17-1.24.35-.82-.3-1.93-.41-1.27-.19.56-4.54,2.86-4.35,1.36.03-.22-.5.79-.41,1.15Z"/>
    </g>
    <g>
      <path class="cls-7" d="M469.71,495.78c.52,1.57,4.2-.61,4.94-1.41.7-.95-.03-1.64-.03-1.41-.36.55-4.56,2.83-4.36,1.21.04-.3-.74,1.2-.55,1.61Z"/>
      <path class="cls-2" d="M469.71,495.78c.52,1.57,4.2-.61,4.94-1.41.7-.95-.03-1.64-.03-1.41-.36.55-4.56,2.83-4.36,1.21.04-.3-.74,1.2-.55,1.61Z"/>
    </g>
    <g>
      <path class="cls-7" d="M469.81,493.8c.52,1.57,4.2-.61,4.94-1.41.7-.95-.03-1.64-.03-1.41-.36.55-4.56,2.83-4.36,1.21.05-.3-.74,1.2-.55,1.61Z"/>
      <path class="cls-2" d="M469.81,493.8c.52,1.57,4.2-.61,4.94-1.41.7-.95-.03-1.64-.03-1.41-.36.55-4.56,2.83-4.36,1.21.05-.3-.74,1.2-.55,1.61Z"/>
    </g>
    <g>
      <path class="cls-7" d="M469.74,489.55c.57,2.26,4.76-.45,5.21-1.4.28-.84-.42-1.92-.5-1.25-.11.57-4.48,2.95-4.35,1.49.02-.22-.47.81-.36,1.15Z"/>
      <path class="cls-2" d="M469.74,489.55c.57,2.26,4.76-.45,5.21-1.4.28-.84-.42-1.92-.5-1.25-.11.57-4.48,2.95-4.35,1.49.02-.22-.47.81-.36,1.15Z"/>
    </g>
    <g>
      <path class="cls-7" d="M469.72,491.48c.46,2.41,4.59-.26,5.17-1.24.35-.82-.3-1.93-.41-1.27-.19.56-4.54,2.86-4.35,1.36.03-.22-.5.79-.41,1.15Z"/>
      <path class="cls-2" d="M469.72,491.48c.46,2.41,4.59-.26,5.17-1.24.35-.82-.3-1.93-.41-1.27-.19.56-4.54,2.86-4.35,1.36.03-.22-.5.79-.41,1.15Z"/>
    </g>
    <g>
      <path class="cls-7" d="M469.75,505.45c.58,2.24,4.78-.47,5.21-1.42.27-.84-.44-1.91-.51-1.24-.1.57-4.47,2.96-4.35,1.51.02-.22-.47.81-.36,1.16Z"/>
      <path class="cls-2" d="M469.75,505.45c.58,2.24,4.78-.47,5.21-1.42.27-.84-.44-1.91-.51-1.24-.1.57-4.47,2.96-4.35,1.51.02-.22-.47.81-.36,1.16Z"/>
    </g>
    <g>
      <path class="cls-7" d="M469.68,503.26c.46,2.41,4.59-.26,5.17-1.24.35-.82-.3-1.93-.41-1.27-.19.56-4.54,2.86-4.35,1.36.03-.22-.5.79-.41,1.15Z"/>
      <path class="cls-2" d="M469.68,503.26c.46,2.41,4.59-.26,5.17-1.24.35-.82-.3-1.93-.41-1.27-.19.56-4.54,2.86-4.35,1.36.03-.22-.5.79-.41,1.15Z"/>
    </g>
    <g>
      <path class="cls-7" d="M469.65,501.82c.52,1.57,4.2-.61,4.94-1.41.7-.95-.03-1.64-.03-1.41-.36.55-4.56,2.83-4.36,1.21.05-.3-.74,1.2-.55,1.61Z"/>
      <path class="cls-2" d="M469.65,501.82c.52,1.57,4.2-.61,4.94-1.41.7-.95-.03-1.64-.03-1.41-.36.55-4.56,2.83-4.36,1.21.05-.3-.74,1.2-.55,1.61Z"/>
    </g>
    <g>
      <path class="cls-7" d="M469.67,515.33c.46,2.41,4.59-.26,5.17-1.24.35-.82-.3-1.93-.41-1.27-.19.56-4.54,2.86-4.35,1.36.03-.22-.5.79-.41,1.15Z"/>
      <path class="cls-2" d="M469.67,515.33c.46,2.41,4.59-.26,5.17-1.24.35-.82-.3-1.93-.41-1.27-.19.56-4.54,2.86-4.35,1.36.03-.22-.5.79-.41,1.15Z"/>
    </g>
    <g>
      <path class="cls-7" d="M469.65,513.89c.52,1.57,4.2-.61,4.94-1.41.7-.95-.03-1.64-.03-1.41-.36.55-4.56,2.83-4.36,1.21.05-.3-.74,1.2-.55,1.61Z"/>
      <path class="cls-2" d="M469.65,513.89c.52,1.57,4.2-.61,4.94-1.41.7-.95-.03-1.64-.03-1.41-.36.55-4.56,2.83-4.36,1.21.05-.3-.74,1.2-.55,1.61Z"/>
    </g>
    <g>
      <path class="cls-7" d="M469.75,511.91c.52,1.57,4.2-.61,4.94-1.41.7-.95-.03-1.64-.03-1.41-.36.55-4.56,2.83-4.36,1.21.05-.3-.74,1.2-.55,1.61Z"/>
      <path class="cls-2" d="M469.75,511.91c.52,1.57,4.2-.61,4.94-1.41.7-.95-.03-1.64-.03-1.41-.36.55-4.56,2.83-4.36,1.21.05-.3-.74,1.2-.55,1.61Z"/>
    </g>
    <g>
      <path class="cls-7" d="M469.68,507.65c.57,2.26,4.76-.45,5.21-1.4.28-.84-.42-1.92-.5-1.25-.11.57-4.48,2.95-4.35,1.49.02-.22-.47.81-.36,1.15Z"/>
      <path class="cls-2" d="M469.68,507.65c.57,2.26,4.76-.45,5.21-1.4.28-.84-.42-1.92-.5-1.25-.11.57-4.48,2.95-4.35,1.49.02-.22-.47.81-.36,1.15Z"/>
    </g>
    <g>
      <path class="cls-7" d="M469.71,527.52c.58,2.24,4.78-.47,5.21-1.42.27-.84-.44-1.91-.51-1.24-.1.57-4.47,2.96-4.35,1.51.02-.22-.47.81-.36,1.16Z"/>
      <path class="cls-2" d="M469.71,527.52c.58,2.24,4.78-.47,5.21-1.42.27-.84-.44-1.91-.51-1.24-.1.57-4.47,2.96-4.35,1.51.02-.22-.47.81-.36,1.16Z"/>
    </g>
    <g>
      <path class="cls-7" d="M469.64,525.32c.46,2.41,4.59-.26,5.17-1.24.35-.82-.3-1.93-.41-1.27-.19.56-4.54,2.86-4.35,1.36.03-.22-.5.79-.41,1.15Z"/>
      <path class="cls-2" d="M469.64,525.32c.46,2.41,4.59-.26,5.17-1.24.35-.82-.3-1.93-.41-1.27-.19.56-4.54,2.86-4.35,1.36.03-.22-.5.79-.41,1.15Z"/>
    </g>
    <g>
      <path class="cls-7" d="M469.61,523.88c.52,1.57,4.2-.61,4.94-1.41.7-.95-.03-1.64-.03-1.41-.36.55-4.56,2.83-4.36,1.21.05-.3-.74,1.2-.55,1.61Z"/>
      <path class="cls-2" d="M469.61,523.88c.52,1.57,4.2-.61,4.94-1.41.7-.95-.03-1.64-.03-1.41-.36.55-4.56,2.83-4.36,1.21.05-.3-.74,1.2-.55,1.61Z"/>
    </g>
    <g>
      <path class="cls-7" d="M469.71,521.91c.52,1.57,4.2-.61,4.94-1.41.7-.95-.03-1.64-.03-1.41-.36.55-4.56,2.83-4.36,1.21.04-.3-.74,1.2-.55,1.61Z"/>
      <path class="cls-2" d="M469.71,521.91c.52,1.57,4.2-.61,4.94-1.41.7-.95-.03-1.64-.03-1.41-.36.55-4.56,2.83-4.36,1.21.04-.3-.74,1.2-.55,1.61Z"/>
    </g>
    <g>
      <path class="cls-7" d="M469.64,517.65c.57,2.26,4.76-.45,5.21-1.4.28-.84-.43-1.91-.5-1.25-.11.57-4.48,2.94-4.35,1.49.02-.22-.47.81-.36,1.15Z"/>
      <path class="cls-2" d="M469.64,517.65c.57,2.26,4.76-.45,5.21-1.4.28-.84-.43-1.91-.5-1.25-.11.57-4.48,2.94-4.35,1.49.02-.22-.47.81-.36,1.15Z"/>
    </g>
    <g>
      <path class="cls-7" d="M469.62,519.58c.46,2.41,4.59-.26,5.17-1.24.35-.82-.3-1.93-.41-1.27-.19.56-4.54,2.86-4.35,1.36.03-.22-.5.79-.41,1.15Z"/>
      <path class="cls-2" d="M469.62,519.58c.46,2.41,4.59-.26,5.17-1.24.35-.82-.3-1.93-.41-1.27-.19.56-4.54,2.86-4.35,1.36.03-.22-.5.79-.41,1.15Z"/>
    </g>
    <g>
      <path class="cls-7" d="M469.65,533.56c.58,2.24,4.78-.48,5.21-1.42.27-.84-.44-1.91-.51-1.24-.1.57-4.47,2.96-4.35,1.51.02-.22-.47.81-.36,1.16Z"/>
      <path class="cls-2" d="M469.65,533.56c.58,2.24,4.78-.48,5.21-1.42.27-.84-.44-1.91-.51-1.24-.1.57-4.47,2.96-4.35,1.51.02-.22-.47.81-.36,1.16Z"/>
    </g>
    <g>
      <path class="cls-7" d="M469.58,531.36c.46,2.41,4.59-.26,5.17-1.24.35-.82-.3-1.93-.41-1.27-.19.56-4.54,2.86-4.35,1.36.03-.22-.5.79-.41,1.15Z"/>
      <path class="cls-2" d="M469.58,531.36c.46,2.41,4.59-.26,5.17-1.24.35-.82-.3-1.93-.41-1.27-.19.56-4.54,2.86-4.35,1.36.03-.22-.5.79-.41,1.15Z"/>
    </g>
    <g>
      <path class="cls-7" d="M469.55,529.92c.52,1.57,4.2-.61,4.94-1.41.7-.95-.03-1.64-.03-1.41-.36.55-4.56,2.83-4.36,1.21.04-.3-.74,1.2-.55,1.61Z"/>
      <path class="cls-2" d="M469.55,529.92c.52,1.57,4.2-.61,4.94-1.41.7-.95-.03-1.64-.03-1.41-.36.55-4.56,2.83-4.36,1.21.04-.3-.74,1.2-.55,1.61Z"/>
    </g>
    <g>
      <path class="cls-7" d="M469.58,535.76c.57,2.26,4.76-.45,5.21-1.4.28-.84-.42-1.91-.5-1.25-.11.57-4.48,2.95-4.35,1.49.02-.22-.47.81-.36,1.15Z"/>
      <path class="cls-2" d="M469.58,535.76c.57,2.26,4.76-.45,5.21-1.4.28-.84-.42-1.91-.5-1.25-.11.57-4.48,2.95-4.35,1.49.02-.22-.47.81-.36,1.15Z"/>
    </g>
    <g>
      <path class="cls-7" d="M469.65,509.59c.46,2.41,4.59-.26,5.17-1.24.35-.82-.3-1.93-.41-1.27-.19.56-4.54,2.86-4.35,1.36.03-.22-.5.79-.41,1.15Z"/>
      <path class="cls-2" d="M469.65,509.59c.46,2.41,4.59-.26,5.17-1.24.35-.82-.3-1.93-.41-1.27-.19.56-4.54,2.86-4.35,1.36.03-.22-.5.79-.41,1.15Z"/>
    </g>
    <g>
      <path class="cls-7" d="M469.57,543.67c.46,2.41,4.59-.26,5.17-1.24.35-.82-.3-1.93-.41-1.27-.19.56-4.54,2.86-4.35,1.36.03-.22-.5.79-.41,1.15Z"/>
      <path class="cls-3" d="M469.57,543.67c.46,2.41,4.59-.26,5.17-1.24.35-.82-.3-1.93-.41-1.27-.19.56-4.54,2.86-4.35,1.36.03-.22-.5.79-.41,1.15Z"/>
    </g>
    <g>
      <path class="cls-7" d="M469.54,542.23c.52,1.57,4.2-.61,4.94-1.41.7-.95-.03-1.64-.03-1.41-.36.55-4.56,2.83-4.36,1.21.04-.3-.74,1.2-.55,1.61Z"/>
      <path class="cls-3" d="M469.54,542.23c.52,1.57,4.2-.61,4.94-1.41.7-.95-.03-1.64-.03-1.41-.36.55-4.56,2.83-4.36,1.21.04-.3-.74,1.2-.55,1.61Z"/>
    </g>
    <g>
      <path class="cls-7" d="M469.65,540.26c.52,1.57,4.2-.61,4.94-1.41.7-.95-.03-1.64-.03-1.41-.36.55-4.56,2.83-4.36,1.21.04-.3-.74,1.2-.55,1.61Z"/>
      <path class="cls-3" d="M469.65,540.26c.52,1.57,4.2-.61,4.94-1.41.7-.95-.03-1.64-.03-1.41-.36.55-4.56,2.83-4.36,1.21.04-.3-.74,1.2-.55,1.61Z"/>
    </g>
    <g>
      <path class="cls-7" d="M469.61,555.86c.58,2.24,4.78-.47,5.21-1.42.27-.84-.44-1.91-.51-1.24-.1.57-4.47,2.96-4.35,1.51.02-.22-.47.81-.36,1.16Z"/>
      <path class="cls-3" d="M469.61,555.86c.58,2.24,4.78-.47,5.21-1.42.27-.84-.44-1.91-.51-1.24-.1.57-4.47,2.96-4.35,1.51.02-.22-.47.81-.36,1.16Z"/>
    </g>
    <g>
      <path class="cls-7" d="M469.54,553.67c.46,2.41,4.59-.26,5.17-1.24.35-.82-.3-1.93-.41-1.27-.19.56-4.54,2.86-4.35,1.36.03-.22-.5.79-.41,1.15Z"/>
      <path class="cls-3" d="M469.54,553.67c.46,2.41,4.59-.26,5.17-1.24.35-.82-.3-1.93-.41-1.27-.19.56-4.54,2.86-4.35,1.36.03-.22-.5.79-.41,1.15Z"/>
    </g>
    <g>
      <path class="cls-7" d="M469.51,552.23c.52,1.57,4.2-.61,4.94-1.41.7-.95-.03-1.64-.03-1.41-.36.55-4.56,2.83-4.36,1.21.04-.3-.74,1.2-.55,1.61Z"/>
      <path class="cls-3" d="M469.51,552.23c.52,1.57,4.2-.61,4.94-1.41.7-.95-.03-1.64-.03-1.41-.36.55-4.56,2.83-4.36,1.21.04-.3-.74,1.2-.55,1.61Z"/>
    </g>
    <g>
      <path class="cls-7" d="M469.61,550.25c.52,1.57,4.2-.61,4.94-1.41.7-.95-.03-1.64-.03-1.41-.36.55-4.56,2.83-4.36,1.21.04-.3-.74,1.2-.55,1.61Z"/>
      <path class="cls-3" d="M469.61,550.25c.52,1.57,4.2-.61,4.94-1.41.7-.95-.03-1.64-.03-1.41-.36.55-4.56,2.83-4.36,1.21.04-.3-.74,1.2-.55,1.61Z"/>
    </g>
    <g>
      <path class="cls-7" d="M469.54,545.99c.57,2.26,4.76-.45,5.21-1.4.28-.84-.42-1.92-.5-1.25-.11.57-4.48,2.95-4.35,1.49.02-.22-.47.81-.36,1.15Z"/>
      <path class="cls-3" d="M469.54,545.99c.57,2.26,4.76-.45,5.21-1.4.28-.84-.42-1.92-.5-1.25-.11.57-4.48,2.95-4.35,1.49.02-.22-.47.81-.36,1.15Z"/>
    </g>
    <g>
      <path class="cls-7" d="M469.52,547.93c.46,2.41,4.59-.26,5.17-1.24.35-.82-.3-1.93-.41-1.27-.19.56-4.54,2.86-4.35,1.36.03-.22-.5.79-.41,1.15Z"/>
      <path class="cls-3" d="M469.52,547.93c.46,2.41,4.59-.26,5.17-1.24.35-.82-.3-1.93-.41-1.27-.19.56-4.54,2.86-4.35,1.36.03-.22-.5.79-.41,1.15Z"/>
    </g>
    <g>
      <path class="cls-7" d="M469.45,558.27c.52,1.57,4.2-.61,4.94-1.41.7-.95-.03-1.64-.03-1.41-.36.55-4.56,2.83-4.36,1.21.04-.3-.74,1.2-.55,1.61Z"/>
      <path class="cls-3" d="M469.45,558.27c.52,1.57,4.2-.61,4.94-1.41.7-.95-.03-1.64-.03-1.41-.36.55-4.56,2.83-4.36,1.21.04-.3-.74,1.2-.55,1.61Z"/>
    </g>
    <g>
      <path class="cls-7" d="M469.55,537.93c.46,2.41,4.59-.26,5.17-1.24.35-.82-.3-1.93-.41-1.27-.19.56-4.54,2.86-4.35,1.36.03-.22-.5.79-.41,1.15Z"/>
      <path class="cls-2" d="M469.55,537.93c.46,2.41,4.59-.26,5.17-1.24.35-.82-.3-1.93-.41-1.27-.19.56-4.54,2.86-4.35,1.36.03-.22-.5.79-.41,1.15Z"/>
    </g>
    <g>
      <path class="cls-7" d="M469.67,562.1c.58,2.24,4.78-.47,5.21-1.42.27-.84-.44-1.91-.51-1.24-.1.57-4.47,2.96-4.35,1.51.02-.22-.47.81-.36,1.16Z"/>
      <path class="cls-3" d="M469.67,562.1c.58,2.24,4.78-.47,5.21-1.42.27-.84-.44-1.91-.51-1.24-.1.57-4.47,2.96-4.35,1.51.02-.22-.47.81-.36,1.16Z"/>
    </g>
    <g>
      <path class="cls-7" d="M469.6,559.91c.46,2.41,4.59-.26,5.17-1.24.35-.82-.3-1.93-.41-1.27-.19.56-4.54,2.86-4.35,1.36.03-.22-.5.79-.41,1.15Z"/>
      <path class="cls-3" d="M469.6,559.91c.46,2.41,4.59-.26,5.17-1.24.35-.82-.3-1.93-.41-1.27-.19.56-4.54,2.86-4.35,1.36.03-.22-.5.79-.41,1.15Z"/>
    </g>
    <g>
      <path class="cls-7" d="M469.6,564.31c.57,2.26,4.76-.45,5.21-1.4.28-.84-.42-1.92-.5-1.25-.11.57-4.48,2.95-4.35,1.49.02-.22-.47.81-.36,1.15Z"/>
      <path class="cls-3" d="M469.6,564.31c.57,2.26,4.76-.45,5.21-1.4.28-.84-.42-1.92-.5-1.25-.11.57-4.48,2.95-4.35,1.49.02-.22-.47.81-.36,1.15Z"/>
    </g>
    <g>
      <path class="cls-7" d="M469.59,572.22c.46,2.41,4.59-.26,5.17-1.24.35-.82-.3-1.93-.41-1.27-.19.56-4.54,2.86-4.35,1.36.03-.22-.5.79-.41,1.15Z"/>
      <path class="cls-3" d="M469.59,572.22c.46,2.41,4.59-.26,5.17-1.24.35-.82-.3-1.93-.41-1.27-.19.56-4.54,2.86-4.35,1.36.03-.22-.5.79-.41,1.15Z"/>
    </g>
    <g>
      <path class="cls-7" d="M469.57,570.78c.52,1.57,4.2-.61,4.94-1.41.7-.95-.03-1.64-.03-1.41-.36.55-4.56,2.83-4.36,1.21.04-.3-.74,1.2-.55,1.61Z"/>
      <path class="cls-3" d="M469.57,570.78c.52,1.57,4.2-.61,4.94-1.41.7-.95-.03-1.64-.03-1.41-.36.55-4.56,2.83-4.36,1.21.04-.3-.74,1.2-.55,1.61Z"/>
    </g>
    <g>
      <path class="cls-7" d="M469.67,568.81c.52,1.57,4.2-.61,4.94-1.41.7-.95-.03-1.64-.03-1.41-.36.55-4.56,2.83-4.36,1.21.04-.3-.74,1.2-.55,1.61Z"/>
      <path class="cls-3" d="M469.67,568.81c.52,1.57,4.2-.61,4.94-1.41.7-.95-.03-1.64-.03-1.41-.36.55-4.56,2.83-4.36,1.21.04-.3-.74,1.2-.55,1.61Z"/>
    </g>
    <g>
      <path class="cls-7" d="M469.53,580.77c.52,1.57,4.2-.61,4.94-1.41.7-.95-.03-1.64-.03-1.41-.36.55-4.56,2.83-4.36,1.21.04-.3-.74,1.2-.55,1.61Z"/>
      <path class="cls-3" d="M469.53,580.77c.52,1.57,4.2-.61,4.94-1.41.7-.95-.03-1.64-.03-1.41-.36.55-4.56,2.83-4.36,1.21.04-.3-.74,1.2-.55,1.61Z"/>
    </g>
    <g>
      <path class="cls-7" d="M469.63,578.8c.52,1.57,4.2-.61,4.94-1.41.7-.95-.03-1.64-.03-1.41-.36.55-4.56,2.83-4.36,1.21.04-.3-.74,1.2-.55,1.61Z"/>
      <path class="cls-3" d="M469.63,578.8c.52,1.57,4.2-.61,4.94-1.41.7-.95-.03-1.64-.03-1.41-.36.55-4.56,2.83-4.36,1.21.04-.3-.74,1.2-.55,1.61Z"/>
    </g>
    <g>
      <path class="cls-7" d="M469.56,574.54c.57,2.26,4.76-.45,5.21-1.4.28-.84-.42-1.92-.5-1.25-.11.57-4.48,2.95-4.35,1.49.02-.22-.47.81-.36,1.15Z"/>
      <path class="cls-3" d="M469.56,574.54c.57,2.26,4.76-.45,5.21-1.4.28-.84-.42-1.92-.5-1.25-.11.57-4.48,2.95-4.35,1.49.02-.22-.47.81-.36,1.15Z"/>
    </g>
    <g>
      <path class="cls-7" d="M469.54,576.47c.46,2.41,4.59-.26,5.17-1.24.35-.82-.3-1.93-.41-1.27-.19.56-4.54,2.86-4.35,1.36.03-.22-.5.79-.41,1.15Z"/>
      <path class="cls-3" d="M469.54,576.47c.46,2.41,4.59-.26,5.17-1.24.35-.82-.3-1.93-.41-1.27-.19.56-4.54,2.86-4.35,1.36.03-.22-.5.79-.41,1.15Z"/>
    </g>
    <g>
      <path class="cls-7" d="M469.57,566.48c.46,2.41,4.59-.26,5.17-1.24.35-.82-.3-1.93-.41-1.27-.19.56-4.54,2.86-4.35,1.36.03-.22-.5.79-.41,1.15Z"/>
      <path class="cls-3" d="M469.57,566.48c.46,2.41,4.59-.26,5.17-1.24.35-.82-.3-1.93-.41-1.27-.19.56-4.54,2.86-4.35,1.36.03-.22-.5.79-.41,1.15Z"/>
    </g>
    <g>
      <path class="cls-7" d="M469.74,590.44c.58,2.24,4.78-.47,5.21-1.42.27-.84-.44-1.91-.51-1.24-.1.57-4.47,2.96-4.35,1.51.02-.22-.47.81-.36,1.16Z"/>
      <path class="cls-3" d="M469.74,590.44c.58,2.24,4.78-.47,5.21-1.42.27-.84-.44-1.91-.51-1.24-.1.57-4.47,2.96-4.35,1.51.02-.22-.47.81-.36,1.16Z"/>
    </g>
    <g>
      <path class="cls-7" d="M469.67,588.24c.46,2.41,4.59-.26,5.17-1.24.35-.82-.3-1.93-.41-1.27-.19.56-4.54,2.86-4.35,1.36.03-.22-.5.79-.41,1.15Z"/>
      <path class="cls-3" d="M469.67,588.24c.46,2.41,4.59-.26,5.17-1.24.35-.82-.3-1.93-.41-1.27-.19.56-4.54,2.86-4.35,1.36.03-.22-.5.79-.41,1.15Z"/>
    </g>
    <g>
      <path class="cls-7" d="M469.64,586.8c.52,1.57,4.2-.61,4.94-1.41.7-.95-.03-1.64-.03-1.41-.36.55-4.56,2.83-4.36,1.21.04-.3-.74,1.2-.55,1.61Z"/>
      <path class="cls-3" d="M469.64,586.8c.52,1.57,4.2-.61,4.94-1.41.7-.95-.03-1.64-.03-1.41-.36.55-4.56,2.83-4.36,1.21.04-.3-.74,1.2-.55,1.61Z"/>
    </g>
    <g>
      <path class="cls-7" d="M469.74,584.83c.52,1.57,4.2-.61,4.94-1.41.7-.95-.03-1.64-.03-1.41-.36.55-4.56,2.83-4.36,1.21.04-.3-.74,1.2-.55,1.61Z"/>
      <path class="cls-3" d="M469.74,584.83c.52,1.57,4.2-.61,4.94-1.41.7-.95-.03-1.64-.03-1.41-.36.55-4.56,2.83-4.36,1.21.04-.3-.74,1.2-.55,1.61Z"/>
    </g>
    <g>
      <path class="cls-7" d="M469.65,582.5c.46,2.41,4.59-.26,5.17-1.24.35-.82-.3-1.93-.41-1.27-.19.56-4.54,2.86-4.35,1.36.03-.22-.5.79-.41,1.15Z"/>
      <path class="cls-3" d="M469.65,582.5c.46,2.41,4.59-.26,5.17-1.24.35-.82-.3-1.93-.41-1.27-.19.56-4.54,2.86-4.35,1.36.03-.22-.5.79-.41,1.15Z"/>
    </g>
    <g>
      <path class="cls-7" d="M469.59,592.84c.52,1.57,4.2-.61,4.94-1.41.7-.95-.03-1.64-.03-1.41-.36.55-4.56,2.83-4.36,1.21.04-.3-.74,1.2-.55,1.61Z"/>
      <path class="cls-3" d="M469.59,592.84c.52,1.57,4.2-.61,4.94-1.41.7-.95-.03-1.64-.03-1.41-.36.55-4.56,2.83-4.36,1.21.04-.3-.74,1.2-.55,1.61Z"/>
    </g>
    <g>
      <path class="cls-7" d="M469.81,596.68c.58,2.24,4.78-.47,5.21-1.42.27-.84-.44-1.91-.51-1.24-.1.57-4.47,2.96-4.35,1.51.02-.22-.47.81-.36,1.16Z"/>
      <path class="cls-3" d="M469.81,596.68c.58,2.24,4.78-.47,5.21-1.42.27-.84-.44-1.91-.51-1.24-.1.57-4.47,2.96-4.35,1.51.02-.22-.47.81-.36,1.16Z"/>
    </g>
    <g>
      <path class="cls-7" d="M469.74,594.48c.46,2.41,4.59-.26,5.17-1.24.35-.82-.3-1.93-.41-1.27-.19.56-4.54,2.86-4.35,1.36.03-.22-.5.79-.41,1.15Z"/>
      <path class="cls-3" d="M469.74,594.48c.46,2.41,4.59-.26,5.17-1.24.35-.82-.3-1.93-.41-1.27-.19.56-4.54,2.86-4.35,1.36.03-.22-.5.79-.41,1.15Z"/>
    </g>
    <g>
      <path class="cls-7" d="M469.73,598.88c.57,2.26,4.76-.45,5.21-1.4.28-.84-.42-1.92-.5-1.25-.11.57-4.48,2.95-4.35,1.49.02-.22-.47.81-.36,1.15Z"/>
      <path class="cls-3" d="M469.73,598.88c.57,2.26,4.76-.45,5.21-1.4.28-.84-.42-1.92-.5-1.25-.11.57-4.48,2.95-4.35,1.49.02-.22-.47.81-.36,1.15Z"/>
    </g>
    <g>
      <path class="cls-7" d="M469.66,615.31c.52,1.57,4.2-.61,4.94-1.41.7-.95-.03-1.64-.03-1.41-.36.55-4.56,2.83-4.36,1.21.04-.3-.74,1.2-.55,1.61Z"/>
      <path class="cls-2" d="M469.66,615.31c.52,1.57,4.2-.61,4.94-1.41.7-.95-.03-1.64-.03-1.41-.36.55-4.56,2.83-4.36,1.21.04-.3-.74,1.2-.55,1.61Z"/>
    </g>
    <g>
      <path class="cls-7" d="M469.76,613.33c.52,1.57,4.2-.61,4.94-1.41.7-.95-.03-1.64-.03-1.41-.36.55-4.56,2.83-4.36,1.21.04-.3-.74,1.2-.55,1.61Z"/>
      <path class="cls-2" d="M469.76,613.33c.52,1.57,4.2-.61,4.94-1.41.7-.95-.03-1.64-.03-1.41-.36.55-4.56,2.83-4.36,1.21.04-.3-.74,1.2-.55,1.61Z"/>
    </g>
    <g>
      <path class="cls-7" d="M469.69,609.07c.57,2.26,4.76-.45,5.21-1.4.28-.84-.43-1.92-.5-1.25-.11.57-4.48,2.95-4.35,1.49.02-.22-.47.81-.36,1.15Z"/>
      <path class="cls-2" d="M469.69,609.07c.57,2.26,4.76-.45,5.21-1.4.28-.84-.43-1.92-.5-1.25-.11.57-4.48,2.95-4.35,1.49.02-.22-.47.81-.36,1.15Z"/>
    </g>
    <g>
      <path class="cls-7" d="M469.66,611.01c.46,2.41,4.59-.26,5.17-1.24.35-.82-.3-1.93-.41-1.27-.19.56-4.54,2.86-4.35,1.36.03-.22-.5.79-.41,1.15Z"/>
      <path class="cls-2" d="M469.66,611.01c.46,2.41,4.59-.26,5.17-1.24.35-.82-.3-1.93-.41-1.27-.19.56-4.54,2.86-4.35,1.36.03-.22-.5.79-.41,1.15Z"/>
    </g>
    <g>
      <path class="cls-7" d="M469.86,624.97c.58,2.24,4.78-.47,5.21-1.42.27-.84-.44-1.91-.51-1.24-.1.57-4.47,2.96-4.35,1.51.02-.22-.47.81-.36,1.16Z"/>
      <path class="cls-2" d="M469.86,624.97c.58,2.24,4.78-.47,5.21-1.42.27-.84-.44-1.91-.51-1.24-.1.57-4.47,2.96-4.35,1.51.02-.22-.47.81-.36,1.16Z"/>
    </g>
    <g>
      <path class="cls-7" d="M469.79,622.78c.46,2.41,4.59-.26,5.17-1.24.35-.82-.3-1.93-.41-1.27-.19.56-4.54,2.86-4.35,1.36.03-.22-.5.79-.41,1.15Z"/>
      <path class="cls-2" d="M469.79,622.78c.46,2.41,4.59-.26,5.17-1.24.35-.82-.3-1.93-.41-1.27-.19.56-4.54,2.86-4.35,1.36.03-.22-.5.79-.41,1.15Z"/>
    </g>
    <g>
      <path class="cls-7" d="M469.77,621.34c.52,1.57,4.2-.61,4.94-1.41.7-.95-.03-1.63-.03-1.41-.36.55-4.56,2.83-4.36,1.21.04-.3-.74,1.2-.55,1.61Z"/>
      <path class="cls-2" d="M469.77,621.34c.52,1.57,4.2-.61,4.94-1.41.7-.95-.03-1.63-.03-1.41-.36.55-4.56,2.83-4.36,1.21.04-.3-.74,1.2-.55,1.61Z"/>
    </g>
    <g>
      <path class="cls-7" d="M469.87,619.36c.52,1.57,4.2-.61,4.94-1.41.7-.95-.03-1.64-.03-1.41-.36.55-4.56,2.83-4.36,1.21.04-.3-.74,1.2-.55,1.61Z"/>
      <path class="cls-2" d="M469.87,619.36c.52,1.57,4.2-.61,4.94-1.41.7-.95-.03-1.64-.03-1.41-.36.55-4.56,2.83-4.36,1.21.04-.3-.74,1.2-.55,1.61Z"/>
    </g>
    <g>
      <path class="cls-7" d="M469.77,617.04c.46,2.41,4.59-.26,5.17-1.24.35-.82-.3-1.93-.41-1.27-.19.56-4.54,2.86-4.35,1.36.03-.22-.5.79-.41,1.15Z"/>
      <path class="cls-2" d="M469.77,617.04c.46,2.41,4.59-.26,5.17-1.24.35-.82-.3-1.93-.41-1.27-.19.56-4.54,2.86-4.35,1.36.03-.22-.5.79-.41,1.15Z"/>
    </g>
    <g>
      <path class="cls-7" d="M469.71,627.37c.52,1.57,4.2-.61,4.94-1.41.7-.95-.03-1.64-.03-1.41-.36.55-4.56,2.83-4.36,1.21.04-.3-.74,1.2-.55,1.61Z"/>
      <path class="cls-2" d="M469.71,627.37c.52,1.57,4.2-.61,4.94-1.41.7-.95-.03-1.64-.03-1.41-.36.55-4.56,2.83-4.36,1.21.04-.3-.74,1.2-.55,1.61Z"/>
    </g>
    <g>
      <path class="cls-7" d="M469.93,631.21c.59,2.24,4.78-.47,5.21-1.42.27-.84-.44-1.91-.51-1.24-.1.57-4.47,2.96-4.35,1.51.02-.22-.47.81-.36,1.16Z"/>
      <path class="cls-2" d="M469.93,631.21c.59,2.24,4.78-.47,5.21-1.42.27-.84-.44-1.91-.51-1.24-.1.57-4.47,2.96-4.35,1.51.02-.22-.47.81-.36,1.16Z"/>
    </g>
    <g>
      <path class="cls-7" d="M469.86,629.02c.46,2.41,4.59-.26,5.17-1.24.35-.82-.3-1.93-.41-1.27-.19.56-4.54,2.86-4.35,1.36.03-.22-.5.79-.41,1.15Z"/>
      <path class="cls-2" d="M469.86,629.02c.46,2.41,4.59-.26,5.17-1.24.35-.82-.3-1.93-.41-1.27-.19.56-4.54,2.86-4.35,1.36.03-.22-.5.79-.41,1.15Z"/>
    </g>
    <g>
      <path class="cls-7" d="M469.86,633.41c.57,2.26,4.76-.45,5.21-1.4.28-.84-.42-1.91-.5-1.25-.11.57-4.48,2.95-4.35,1.49.02-.22-.47.81-.36,1.15Z"/>
      <path class="cls-2" d="M469.86,633.41c.57,2.26,4.76-.45,5.21-1.4.28-.84-.42-1.91-.5-1.25-.11.57-4.48,2.95-4.35,1.49.02-.22-.47.81-.36,1.15Z"/>
    </g>
    <g>
      <path class="cls-7" d="M469.96,639.43c.58,2.24,4.78-.48,5.21-1.42.27-.84-.44-1.91-.51-1.24-.1.57-4.47,2.96-4.35,1.51.02-.22-.47.81-.36,1.16Z"/>
      <path class="cls-2" d="M469.96,639.43c.58,2.24,4.78-.48,5.21-1.42.27-.84-.44-1.91-.51-1.24-.1.57-4.47,2.96-4.35,1.51.02-.22-.47.81-.36,1.16Z"/>
    </g>
    <g>
      <path class="cls-7" d="M469.88,637.23c.46,2.41,4.59-.26,5.17-1.24.35-.82-.3-1.93-.41-1.27-.19.56-4.54,2.86-4.35,1.36.03-.22-.5.79-.41,1.15Z"/>
      <path class="cls-2" d="M469.88,637.23c.46,2.41,4.59-.26,5.17-1.24.35-.82-.3-1.93-.41-1.27-.19.56-4.54,2.86-4.35,1.36.03-.22-.5.79-.41,1.15Z"/>
    </g>
    <g>
      <path class="cls-7" d="M469.86,635.79c.52,1.57,4.2-.61,4.94-1.41.7-.95-.03-1.64-.03-1.41-.36.55-4.56,2.83-4.36,1.21.05-.3-.74,1.2-.55,1.61Z"/>
      <path class="cls-2" d="M469.86,635.79c.52,1.57,4.2-.61,4.94-1.41.7-.95-.03-1.64-.03-1.41-.36.55-4.56,2.83-4.36,1.21.05-.3-.74,1.2-.55,1.61Z"/>
    </g>
    <g>
      <path class="cls-7" d="M469.8,641.83c.52,1.57,4.2-.61,4.94-1.41.7-.95-.03-1.64-.03-1.41-.36.55-4.56,2.83-4.36,1.21.04-.3-.74,1.2-.55,1.61Z"/>
      <path class="cls-2" d="M469.8,641.83c.52,1.57,4.2-.61,4.94-1.41.7-.95-.03-1.64-.03-1.41-.36.55-4.56,2.83-4.36,1.21.04-.3-.74,1.2-.55,1.61Z"/>
    </g>
    <g>
      <path class="cls-7" d="M470.02,645.67c.58,2.24,4.78-.48,5.21-1.42.27-.84-.44-1.91-.51-1.24-.1.57-4.48,2.96-4.35,1.51.02-.22-.47.81-.36,1.16Z"/>
      <path class="cls-2" d="M470.02,645.67c.58,2.24,4.78-.48,5.21-1.42.27-.84-.44-1.91-.51-1.24-.1.57-4.48,2.96-4.35,1.51.02-.22-.47.81-.36,1.16Z"/>
    </g>
    <g>
      <path class="cls-7" d="M469.95,643.47c.46,2.41,4.59-.26,5.17-1.24.35-.82-.3-1.93-.41-1.27-.19.56-4.54,2.86-4.35,1.36.03-.22-.5.79-.41,1.15Z"/>
      <path class="cls-2" d="M469.95,643.47c.46,2.41,4.59-.26,5.17-1.24.35-.82-.3-1.93-.41-1.27-.19.56-4.54,2.86-4.35,1.36.03-.22-.5.79-.41,1.15Z"/>
    </g>
    <g>
      <path class="cls-7" d="M469.73,606.79c.46,2.41,4.59-.26,5.17-1.24.35-.82-.3-1.93-.41-1.27-.19.56-4.54,2.86-4.35,1.36.03-.22-.5.79-.41,1.15Z"/>
      <path class="cls-2" d="M469.73,606.79c.46,2.41,4.59-.26,5.17-1.24.35-.82-.3-1.93-.41-1.27-.19.56-4.54,2.86-4.35,1.36.03-.22-.5.79-.41,1.15Z"/>
    </g>
    <g>
      <path class="cls-7" d="M469.7,605.35c.52,1.57,4.2-.61,4.94-1.41.7-.95-.03-1.64-.03-1.41-.36.55-4.56,2.83-4.36,1.21.04-.3-.74,1.2-.55,1.61Z"/>
      <path class="cls-2" d="M469.7,605.35c.52,1.57,4.2-.61,4.94-1.41.7-.95-.03-1.64-.03-1.41-.36.55-4.56,2.83-4.36,1.21.04-.3-.74,1.2-.55,1.61Z"/>
    </g>
    <g>
      <path class="cls-7" d="M469.8,603.38c.52,1.57,4.2-.61,4.94-1.41.7-.95-.03-1.64-.03-1.41-.36.55-4.56,2.83-4.36,1.21.04-.3-.74,1.2-.55,1.61Z"/>
      <path class="cls-2" d="M469.8,603.38c.52,1.57,4.2-.61,4.94-1.41.7-.95-.03-1.64-.03-1.41-.36.55-4.56,2.83-4.36,1.21.04-.3-.74,1.2-.55,1.61Z"/>
    </g>
    <g>
      <path class="cls-7" d="M469.71,601.05c.46,2.41,4.59-.26,5.17-1.24.35-.82-.3-1.93-.41-1.27-.19.56-4.54,2.86-4.35,1.36.03-.22-.5.79-.41,1.15Z"/>
      <path class="cls-3" d="M469.71,601.05c.46,2.41,4.59-.26,5.17-1.24.35-.82-.3-1.93-.41-1.27-.19.56-4.54,2.86-4.35,1.36.03-.22-.5.79-.41,1.15Z"/>
    </g>
    <g>
      <path class="cls-7" d="M465.61,489.1c.58,2.24,4.78-.48,5.21-1.42.27-.84-.44-1.91-.51-1.24-.1.57-4.47,2.96-4.35,1.51.02-.22-.47.81-.36,1.16Z"/>
      <path class="cls-2" d="M465.61,489.1c.58,2.24,4.78-.48,5.21-1.42.27-.84-.44-1.91-.51-1.24-.1.57-4.47,2.96-4.35,1.51.02-.22-.47.81-.36,1.16Z"/>
    </g>
    <g>
      <path class="cls-7" d="M465.53,486.9c.46,2.41,4.59-.26,5.17-1.24.35-.82-.3-1.93-.41-1.27-.19.56-4.54,2.86-4.35,1.36.03-.22-.5.79-.41,1.15Z"/>
      <path class="cls-2" d="M465.53,486.9c.46,2.41,4.59-.26,5.17-1.24.35-.82-.3-1.93-.41-1.27-.19.56-4.54,2.86-4.35,1.36.03-.22-.5.79-.41,1.15Z"/>
    </g>
    <g>
      <path class="cls-7" d="M465.6,501.17c.58,2.24,4.78-.48,5.21-1.42.27-.84-.44-1.91-.51-1.24-.1.57-4.47,2.96-4.35,1.51.02-.22-.47.81-.36,1.16Z"/>
      <path class="cls-2" d="M465.6,501.17c.58,2.24,4.78-.48,5.21-1.42.27-.84-.44-1.91-.51-1.24-.1.57-4.47,2.96-4.35,1.51.02-.22-.47.81-.36,1.16Z"/>
    </g>
    <g>
      <path class="cls-7" d="M465.53,498.98c.46,2.41,4.59-.26,5.17-1.24.35-.82-.3-1.93-.41-1.27-.19.56-4.54,2.86-4.35,1.36.03-.22-.5.79-.41,1.15Z"/>
      <path class="cls-2" d="M465.53,498.98c.46,2.41,4.59-.26,5.17-1.24.35-.82-.3-1.93-.41-1.27-.19.56-4.54,2.86-4.35,1.36.03-.22-.5.79-.41,1.15Z"/>
    </g>
    <g>
      <path class="cls-7" d="M465.5,497.53c.52,1.57,4.2-.61,4.94-1.41.7-.95-.03-1.63-.03-1.41-.36.55-4.56,2.83-4.36,1.21.04-.3-.74,1.2-.55,1.61Z"/>
      <path class="cls-2" d="M465.5,497.53c.52,1.57,4.2-.61,4.94-1.41.7-.95-.03-1.63-.03-1.41-.36.55-4.56,2.83-4.36,1.21.04-.3-.74,1.2-.55,1.61Z"/>
    </g>
    <g>
      <path class="cls-7" d="M465.6,495.56c.52,1.57,4.2-.61,4.94-1.41.7-.95-.03-1.64-.03-1.41-.36.55-4.56,2.83-4.36,1.21.04-.3-.74,1.2-.55,1.61Z"/>
      <path class="cls-2" d="M465.6,495.56c.52,1.57,4.2-.61,4.94-1.41.7-.95-.03-1.64-.03-1.41-.36.55-4.56,2.83-4.36,1.21.04-.3-.74,1.2-.55,1.61Z"/>
    </g>
    <g>
      <path class="cls-7" d="M465.53,491.3c.57,2.26,4.76-.45,5.21-1.4.28-.84-.42-1.91-.5-1.25-.11.57-4.48,2.95-4.35,1.49.02-.22-.47.81-.36,1.15Z"/>
      <path class="cls-2" d="M465.53,491.3c.57,2.26,4.76-.45,5.21-1.4.28-.84-.42-1.91-.5-1.25-.11.57-4.48,2.95-4.35,1.49.02-.22-.47.81-.36,1.15Z"/>
    </g>
    <g>
      <path class="cls-7" d="M465.51,493.24c.46,2.41,4.59-.26,5.17-1.24.35-.82-.3-1.93-.41-1.27-.19.56-4.54,2.86-4.35,1.36.03-.22-.5.79-.41,1.15Z"/>
      <path class="cls-2" d="M465.51,493.24c.46,2.41,4.59-.26,5.17-1.24.35-.82-.3-1.93-.41-1.27-.19.56-4.54,2.86-4.35,1.36.03-.22-.5.79-.41,1.15Z"/>
    </g>
    <g>
      <path class="cls-7" d="M465.54,507.21c.58,2.24,4.78-.47,5.21-1.42.27-.84-.44-1.91-.51-1.24-.1.57-4.47,2.96-4.35,1.51.02-.22-.47.81-.36,1.16Z"/>
      <path class="cls-2" d="M465.54,507.21c.58,2.24,4.78-.47,5.21-1.42.27-.84-.44-1.91-.51-1.24-.1.57-4.47,2.96-4.35,1.51.02-.22-.47.81-.36,1.16Z"/>
    </g>
    <g>
      <path class="cls-7" d="M465.47,505.01c.46,2.41,4.59-.26,5.17-1.24.35-.82-.3-1.93-.41-1.27-.19.56-4.54,2.86-4.35,1.36.03-.22-.5.79-.41,1.15Z"/>
      <path class="cls-2" d="M465.47,505.01c.46,2.41,4.59-.26,5.17-1.24.35-.82-.3-1.93-.41-1.27-.19.56-4.54,2.86-4.35,1.36.03-.22-.5.79-.41,1.15Z"/>
    </g>
    <g>
      <path class="cls-7" d="M465.45,503.57c.52,1.57,4.2-.61,4.94-1.41.7-.95-.03-1.64-.03-1.41-.36.55-4.56,2.83-4.36,1.21.04-.3-.74,1.2-.55,1.61Z"/>
      <path class="cls-2" d="M465.45,503.57c.52,1.57,4.2-.61,4.94-1.41.7-.95-.03-1.64-.03-1.41-.36.55-4.56,2.83-4.36,1.21.04-.3-.74,1.2-.55,1.61Z"/>
    </g>
    <g>
      <path class="cls-7" d="M465.46,517.08c.46,2.41,4.59-.26,5.17-1.24.35-.82-.3-1.93-.41-1.27-.19.56-4.54,2.86-4.35,1.36.03-.22-.5.79-.41,1.15Z"/>
      <path class="cls-2" d="M465.46,517.08c.46,2.41,4.59-.26,5.17-1.24.35-.82-.3-1.93-.41-1.27-.19.56-4.54,2.86-4.35,1.36.03-.22-.5.79-.41,1.15Z"/>
    </g>
    <g>
      <path class="cls-7" d="M465.44,515.64c.52,1.57,4.2-.61,4.94-1.41.7-.95-.03-1.64-.03-1.41-.36.55-4.56,2.83-4.36,1.21.04-.3-.74,1.2-.55,1.61Z"/>
      <path class="cls-2" d="M465.44,515.64c.52,1.57,4.2-.61,4.94-1.41.7-.95-.03-1.64-.03-1.41-.36.55-4.56,2.83-4.36,1.21.04-.3-.74,1.2-.55,1.61Z"/>
    </g>
    <g>
      <path class="cls-7" d="M465.54,513.67c.52,1.57,4.2-.61,4.94-1.41.7-.95-.03-1.64-.03-1.41-.36.55-4.56,2.83-4.36,1.21.04-.3-.74,1.2-.55,1.61Z"/>
      <path class="cls-2" d="M465.54,513.67c.52,1.57,4.2-.61,4.94-1.41.7-.95-.03-1.64-.03-1.41-.36.55-4.56,2.83-4.36,1.21.04-.3-.74,1.2-.55,1.61Z"/>
    </g>
    <g>
      <path class="cls-7" d="M465.47,509.41c.57,2.26,4.76-.45,5.21-1.4.28-.84-.42-1.92-.5-1.25-.11.57-4.48,2.95-4.35,1.49.02-.22-.47.81-.36,1.15Z"/>
      <path class="cls-2" d="M465.47,509.41c.57,2.26,4.76-.45,5.21-1.4.28-.84-.42-1.92-.5-1.25-.11.57-4.48,2.95-4.35,1.49.02-.22-.47.81-.36,1.15Z"/>
    </g>
    <g>
      <path class="cls-7" d="M465.5,529.27c.58,2.24,4.78-.48,5.21-1.42.27-.84-.44-1.91-.51-1.24-.1.57-4.47,2.96-4.35,1.51.02-.22-.47.81-.36,1.16Z"/>
      <path class="cls-2" d="M465.5,529.27c.58,2.24,4.78-.48,5.21-1.42.27-.84-.44-1.91-.51-1.24-.1.57-4.47,2.96-4.35,1.51.02-.22-.47.81-.36,1.16Z"/>
    </g>
    <g>
      <path class="cls-7" d="M465.43,527.08c.46,2.41,4.59-.26,5.17-1.24.35-.82-.3-1.93-.41-1.27-.19.56-4.54,2.86-4.35,1.36.03-.22-.5.79-.41,1.15Z"/>
      <path class="cls-2" d="M465.43,527.08c.46,2.41,4.59-.26,5.17-1.24.35-.82-.3-1.93-.41-1.27-.19.56-4.54,2.86-4.35,1.36.03-.22-.5.79-.41,1.15Z"/>
    </g>
    <g>
      <path class="cls-7" d="M465.4,525.64c.52,1.57,4.2-.61,4.94-1.41.7-.95-.03-1.63-.03-1.41-.36.55-4.56,2.83-4.36,1.21.04-.3-.74,1.2-.55,1.61Z"/>
      <path class="cls-2" d="M465.4,525.64c.52,1.57,4.2-.61,4.94-1.41.7-.95-.03-1.63-.03-1.41-.36.55-4.56,2.83-4.36,1.21.04-.3-.74,1.2-.55,1.61Z"/>
    </g>
    <g>
      <path class="cls-7" d="M465.51,523.67c.52,1.57,4.2-.61,4.94-1.41.7-.95-.03-1.63-.03-1.41-.36.55-4.56,2.83-4.36,1.21.04-.3-.74,1.2-.55,1.61Z"/>
      <path class="cls-2" d="M465.51,523.67c.52,1.57,4.2-.61,4.94-1.41.7-.95-.03-1.63-.03-1.41-.36.55-4.56,2.83-4.36,1.21.04-.3-.74,1.2-.55,1.61Z"/>
    </g>
    <g>
      <path class="cls-7" d="M465.43,519.41c.57,2.26,4.76-.45,5.21-1.4.28-.84-.43-1.92-.5-1.25-.11.57-4.48,2.95-4.35,1.49.02-.22-.47.81-.36,1.15Z"/>
      <path class="cls-2" d="M465.43,519.41c.57,2.26,4.76-.45,5.21-1.4.28-.84-.43-1.92-.5-1.25-.11.57-4.48,2.95-4.35,1.49.02-.22-.47.81-.36,1.15Z"/>
    </g>
    <g>
      <path class="cls-7" d="M465.41,521.34c.46,2.41,4.59-.26,5.17-1.24.35-.82-.3-1.93-.41-1.27-.19.56-4.54,2.86-4.35,1.36.03-.22-.5.79-.41,1.15Z"/>
      <path class="cls-2" d="M465.41,521.34c.46,2.41,4.59-.26,5.17-1.24.35-.82-.3-1.93-.41-1.27-.19.56-4.54,2.86-4.35,1.36.03-.22-.5.79-.41,1.15Z"/>
    </g>
    <g>
      <path class="cls-7" d="M465.44,535.31c.58,2.24,4.78-.47,5.21-1.42.27-.84-.44-1.91-.51-1.24-.1.57-4.47,2.96-4.35,1.51.02-.22-.47.81-.36,1.16Z"/>
      <path class="cls-2" d="M465.44,535.31c.58,2.24,4.78-.47,5.21-1.42.27-.84-.44-1.91-.51-1.24-.1.57-4.47,2.96-4.35,1.51.02-.22-.47.81-.36,1.16Z"/>
    </g>
    <g>
      <path class="cls-7" d="M465.37,533.12c.46,2.41,4.59-.26,5.17-1.24.35-.82-.3-1.93-.41-1.27-.19.56-4.54,2.86-4.35,1.36.03-.22-.5.79-.41,1.15Z"/>
      <path class="cls-3" d="M465.37,533.12c.46,2.41,4.59-.26,5.17-1.24.35-.82-.3-1.93-.41-1.27-.19.56-4.54,2.86-4.35,1.36.03-.22-.5.79-.41,1.15Z"/>
    </g>
    <g>
      <path class="cls-7" d="M465.35,531.68c.52,1.57,4.2-.61,4.94-1.41.7-.95-.03-1.64-.03-1.41-.36.55-4.56,2.83-4.36,1.21.04-.3-.74,1.2-.55,1.61Z"/>
      <path class="cls-2" d="M465.35,531.68c.52,1.57,4.2-.61,4.94-1.41.7-.95-.03-1.64-.03-1.41-.36.55-4.56,2.83-4.36,1.21.04-.3-.74,1.2-.55,1.61Z"/>
    </g>
    <g>
      <path class="cls-7" d="M465.37,537.52c.57,2.26,4.76-.45,5.21-1.4.28-.84-.43-1.91-.5-1.25-.11.57-4.48,2.95-4.35,1.49.02-.22-.47.81-.36,1.15Z"/>
      <path class="cls-2" d="M465.37,537.52c.57,2.26,4.76-.45,5.21-1.4.28-.84-.43-1.91-.5-1.25-.11.57-4.48,2.95-4.35,1.49.02-.22-.47.81-.36,1.15Z"/>
    </g>
    <g>
      <path class="cls-7" d="M465.44,511.35c.46,2.41,4.59-.26,5.17-1.24.35-.82-.3-1.93-.41-1.27-.19.56-4.54,2.86-4.35,1.36.03-.22-.5.79-.41,1.15Z"/>
      <path class="cls-2" d="M465.44,511.35c.46,2.41,4.59-.26,5.17-1.24.35-.82-.3-1.93-.41-1.27-.19.56-4.54,2.86-4.35,1.36.03-.22-.5.79-.41,1.15Z"/>
    </g>
    <g>
      <path class="cls-7" d="M465.36,545.43c.46,2.41,4.59-.26,5.17-1.24.35-.82-.3-1.93-.41-1.27-.19.56-4.54,2.86-4.35,1.36.03-.22-.5.79-.41,1.15Z"/>
      <path class="cls-3" d="M465.36,545.43c.46,2.41,4.59-.26,5.17-1.24.35-.82-.3-1.93-.41-1.27-.19.56-4.54,2.86-4.35,1.36.03-.22-.5.79-.41,1.15Z"/>
    </g>
    <g>
      <path class="cls-7" d="M465.34,543.99c.52,1.57,4.2-.61,4.94-1.41.7-.95-.03-1.64-.03-1.41-.36.55-4.56,2.83-4.36,1.21.04-.3-.74,1.2-.55,1.61Z"/>
      <path class="cls-3" d="M465.34,543.99c.52,1.57,4.2-.61,4.94-1.41.7-.95-.03-1.64-.03-1.41-.36.55-4.56,2.83-4.36,1.21.04-.3-.74,1.2-.55,1.61Z"/>
    </g>
    <g>
      <path class="cls-7" d="M465.44,542.02c.52,1.57,4.2-.61,4.94-1.41.7-.95-.03-1.64-.03-1.41-.36.55-4.56,2.83-4.36,1.21.04-.3-.74,1.2-.55,1.61Z"/>
      <path class="cls-3" d="M465.44,542.02c.52,1.57,4.2-.61,4.94-1.41.7-.95-.03-1.64-.03-1.41-.36.55-4.56,2.83-4.36,1.21.04-.3-.74,1.2-.55,1.61Z"/>
    </g>
    <g>
      <path class="cls-7" d="M465.4,557.62c.58,2.24,4.78-.47,5.21-1.42.27-.84-.44-1.91-.51-1.24-.1.57-4.47,2.96-4.35,1.51.02-.22-.47.81-.36,1.16Z"/>
      <path class="cls-3" d="M465.4,557.62c.58,2.24,4.78-.47,5.21-1.42.27-.84-.44-1.91-.51-1.24-.1.57-4.47,2.96-4.35,1.51.02-.22-.47.81-.36,1.16Z"/>
    </g>
    <g>
      <path class="cls-7" d="M465.33,555.42c.46,2.41,4.59-.26,5.17-1.24.35-.82-.3-1.93-.41-1.27-.19.56-4.54,2.86-4.35,1.36.03-.22-.5.79-.41,1.15Z"/>
      <path class="cls-3" d="M465.33,555.42c.46,2.41,4.59-.26,5.17-1.24.35-.82-.3-1.93-.41-1.27-.19.56-4.54,2.86-4.35,1.36.03-.22-.5.79-.41,1.15Z"/>
    </g>
    <g>
      <path class="cls-7" d="M465.3,553.98c.52,1.57,4.2-.61,4.94-1.41.7-.95-.03-1.64-.03-1.41-.36.55-4.56,2.83-4.36,1.21.04-.3-.74,1.2-.55,1.61Z"/>
      <path class="cls-3" d="M465.3,553.98c.52,1.57,4.2-.61,4.94-1.41.7-.95-.03-1.64-.03-1.41-.36.55-4.56,2.83-4.36,1.21.04-.3-.74,1.2-.55,1.61Z"/>
    </g>
    <g>
      <path class="cls-7" d="M465.4,552.01c.52,1.57,4.2-.61,4.94-1.41.7-.95-.03-1.64-.03-1.41-.36.55-4.56,2.83-4.36,1.21.04-.3-.74,1.2-.55,1.61Z"/>
      <path class="cls-3" d="M465.4,552.01c.52,1.57,4.2-.61,4.94-1.41.7-.95-.03-1.64-.03-1.41-.36.55-4.56,2.83-4.36,1.21.04-.3-.74,1.2-.55,1.61Z"/>
    </g>
    <g>
      <path class="cls-7" d="M465.33,547.75c.57,2.26,4.76-.45,5.21-1.4.28-.84-.42-1.92-.5-1.25-.11.57-4.48,2.95-4.35,1.49.02-.22-.47.81-.36,1.15Z"/>
      <path class="cls-3" d="M465.33,547.75c.57,2.26,4.76-.45,5.21-1.4.28-.84-.42-1.92-.5-1.25-.11.57-4.48,2.95-4.35,1.49.02-.22-.47.81-.36,1.15Z"/>
    </g>
    <g>
      <path class="cls-7" d="M465.31,549.69c.46,2.41,4.59-.26,5.17-1.24.35-.82-.3-1.93-.41-1.27-.19.56-4.54,2.86-4.35,1.36.03-.22-.5.79-.41,1.15Z"/>
      <path class="cls-3" d="M465.31,549.69c.46,2.41,4.59-.26,5.17-1.24.35-.82-.3-1.93-.41-1.27-.19.56-4.54,2.86-4.35,1.36.03-.22-.5.79-.41,1.15Z"/>
    </g>
    <g>
      <path class="cls-7" d="M465.24,560.02c.52,1.57,4.2-.61,4.94-1.41.7-.95-.03-1.64-.03-1.41-.36.55-4.56,2.83-4.36,1.21.04-.3-.74,1.2-.55,1.61Z"/>
      <path class="cls-3" d="M465.24,560.02c.52,1.57,4.2-.61,4.94-1.41.7-.95-.03-1.64-.03-1.41-.36.55-4.56,2.83-4.36,1.21.04-.3-.74,1.2-.55,1.61Z"/>
    </g>
    <g>
      <path class="cls-7" d="M465.34,539.69c.46,2.41,4.59-.26,5.17-1.24.35-.82-.3-1.93-.41-1.27-.19.56-4.54,2.86-4.35,1.36.03-.22-.5.79-.41,1.15Z"/>
      <path class="cls-2" d="M465.34,539.69c.46,2.41,4.59-.26,5.17-1.24.35-.82-.3-1.93-.41-1.27-.19.56-4.54,2.86-4.35,1.36.03-.22-.5.79-.41,1.15Z"/>
    </g>
    <g>
      <path class="cls-7" d="M465.47,563.86c.58,2.24,4.78-.47,5.21-1.42.27-.84-.44-1.91-.51-1.24-.1.57-4.47,2.96-4.35,1.51.02-.22-.47.81-.36,1.16Z"/>
      <path class="cls-3" d="M465.47,563.86c.58,2.24,4.78-.47,5.21-1.42.27-.84-.44-1.91-.51-1.24-.1.57-4.47,2.96-4.35,1.51.02-.22-.47.81-.36,1.16Z"/>
    </g>
    <g>
      <path class="cls-7" d="M465.39,561.66c.46,2.41,4.59-.26,5.17-1.24.35-.82-.3-1.93-.41-1.27-.19.56-4.54,2.86-4.35,1.36.03-.22-.5.79-.41,1.15Z"/>
      <path class="cls-3" d="M465.39,561.66c.46,2.41,4.59-.26,5.17-1.24.35-.82-.3-1.93-.41-1.27-.19.56-4.54,2.86-4.35,1.36.03-.22-.5.79-.41,1.15Z"/>
    </g>
    <g>
      <path class="cls-7" d="M465.39,566.06c.57,2.26,4.76-.45,5.21-1.4.28-.84-.42-1.92-.5-1.25-.11.57-4.48,2.95-4.35,1.49.02-.22-.47.81-.36,1.15Z"/>
      <path class="cls-3" d="M465.39,566.06c.57,2.26,4.76-.45,5.21-1.4.28-.84-.42-1.92-.5-1.25-.11.57-4.48,2.95-4.35,1.49.02-.22-.47.81-.36,1.15Z"/>
    </g>
    <g>
      <path class="cls-7" d="M465.39,573.98c.46,2.41,4.59-.26,5.17-1.24.35-.82-.3-1.93-.41-1.27-.19.56-4.54,2.86-4.35,1.36.03-.22-.5.79-.41,1.15Z"/>
      <path class="cls-3" d="M465.39,573.98c.46,2.41,4.59-.26,5.17-1.24.35-.82-.3-1.93-.41-1.27-.19.56-4.54,2.86-4.35,1.36.03-.22-.5.79-.41,1.15Z"/>
    </g>
    <g>
      <path class="cls-7" d="M465.36,572.54c.52,1.57,4.2-.61,4.94-1.41.7-.95-.03-1.64-.03-1.41-.36.55-4.56,2.83-4.36,1.21.04-.3-.74,1.2-.55,1.61Z"/>
      <path class="cls-3" d="M465.36,572.54c.52,1.57,4.2-.61,4.94-1.41.7-.95-.03-1.64-.03-1.41-.36.55-4.56,2.83-4.36,1.21.04-.3-.74,1.2-.55,1.61Z"/>
    </g>
    <g>
      <path class="cls-7" d="M465.46,570.56c.52,1.57,4.2-.61,4.94-1.41.7-.95-.03-1.64-.03-1.41-.36.55-4.56,2.83-4.36,1.21.04-.3-.74,1.2-.55,1.61Z"/>
      <path class="cls-3" d="M465.46,570.56c.52,1.57,4.2-.61,4.94-1.41.7-.95-.03-1.64-.03-1.41-.36.55-4.56,2.83-4.36,1.21.04-.3-.74,1.2-.55,1.61Z"/>
    </g>
    <g>
      <path class="cls-7" d="M465.33,582.53c.52,1.57,4.2-.61,4.94-1.41.7-.95-.03-1.64-.03-1.41-.36.55-4.56,2.83-4.36,1.21.04-.3-.74,1.2-.55,1.61Z"/>
      <path class="cls-3" d="M465.33,582.53c.52,1.57,4.2-.61,4.94-1.41.7-.95-.03-1.64-.03-1.41-.36.55-4.56,2.83-4.36,1.21.04-.3-.74,1.2-.55,1.61Z"/>
    </g>
    <g>
      <path class="cls-7" d="M465.43,580.56c.52,1.57,4.2-.61,4.94-1.41.7-.95-.03-1.64-.03-1.41-.36.55-4.56,2.83-4.36,1.21.04-.3-.74,1.2-.55,1.61Z"/>
      <path class="cls-3" d="M465.43,580.56c.52,1.57,4.2-.61,4.94-1.41.7-.95-.03-1.64-.03-1.41-.36.55-4.56,2.83-4.36,1.21.04-.3-.74,1.2-.55,1.61Z"/>
    </g>
    <g>
      <path class="cls-7" d="M465.35,576.3c.57,2.26,4.76-.45,5.21-1.4.28-.84-.42-1.92-.5-1.25-.11.57-4.48,2.95-4.35,1.49.02-.22-.47.81-.36,1.15Z"/>
      <path class="cls-3" d="M465.35,576.3c.57,2.26,4.76-.45,5.21-1.4.28-.84-.42-1.92-.5-1.25-.11.57-4.48,2.95-4.35,1.49.02-.22-.47.81-.36,1.15Z"/>
    </g>
    <g>
      <path class="cls-7" d="M465.33,578.23c.46,2.41,4.59-.26,5.17-1.24.35-.82-.3-1.93-.41-1.27-.19.56-4.54,2.86-4.35,1.36.03-.22-.5.79-.41,1.15Z"/>
      <path class="cls-3" d="M465.33,578.23c.46,2.41,4.59-.26,5.17-1.24.35-.82-.3-1.93-.41-1.27-.19.56-4.54,2.86-4.35,1.36.03-.22-.5.79-.41,1.15Z"/>
    </g>
    <g>
      <path class="cls-7" d="M465.37,568.24c.46,2.41,4.59-.26,5.17-1.24.35-.82-.3-1.93-.41-1.27-.19.56-4.54,2.86-4.35,1.36.03-.22-.5.79-.41,1.15Z"/>
      <path class="cls-3" d="M465.37,568.24c.46,2.41,4.59-.26,5.17-1.24.35-.82-.3-1.93-.41-1.27-.19.56-4.54,2.86-4.35,1.36.03-.22-.5.79-.41,1.15Z"/>
    </g>
    <g>
      <path class="cls-7" d="M465.53,592.19c.58,2.24,4.78-.47,5.21-1.42.27-.84-.44-1.91-.51-1.24-.1.57-4.47,2.96-4.35,1.51.02-.22-.47.81-.36,1.16Z"/>
      <path class="cls-3" d="M465.53,592.19c.58,2.24,4.78-.47,5.21-1.42.27-.84-.44-1.91-.51-1.24-.1.57-4.47,2.96-4.35,1.51.02-.22-.47.81-.36,1.16Z"/>
    </g>
    <g>
      <path class="cls-7" d="M465.46,590c.46,2.41,4.59-.26,5.17-1.24.35-.82-.3-1.93-.41-1.27-.19.56-4.54,2.86-4.35,1.36.03-.22-.5.79-.41,1.15Z"/>
      <path class="cls-3" d="M465.46,590c.46,2.41,4.59-.26,5.17-1.24.35-.82-.3-1.93-.41-1.27-.19.56-4.54,2.86-4.35,1.36.03-.22-.5.79-.41,1.15Z"/>
    </g>
    <g>
      <path class="cls-7" d="M465.44,588.56c.52,1.57,4.2-.61,4.94-1.41.7-.95-.03-1.64-.03-1.41-.36.55-4.56,2.83-4.36,1.21.04-.3-.74,1.2-.55,1.61Z"/>
      <path class="cls-3" d="M465.44,588.56c.52,1.57,4.2-.61,4.94-1.41.7-.95-.03-1.64-.03-1.41-.36.55-4.56,2.83-4.36,1.21.04-.3-.74,1.2-.55,1.61Z"/>
    </g>
    <g>
      <path class="cls-7" d="M465.54,586.59c.52,1.57,4.2-.61,4.94-1.41.7-.95-.03-1.64-.03-1.41-.36.55-4.56,2.83-4.36,1.21.04-.3-.74,1.2-.55,1.61Z"/>
      <path class="cls-3" d="M465.54,586.59c.52,1.57,4.2-.61,4.94-1.41.7-.95-.03-1.64-.03-1.41-.36.55-4.56,2.83-4.36,1.21.04-.3-.74,1.2-.55,1.61Z"/>
    </g>
    <g>
      <path class="cls-7" d="M465.44,584.26c.46,2.41,4.59-.26,5.17-1.24.35-.82-.3-1.93-.41-1.27-.19.56-4.54,2.86-4.35,1.36.03-.22-.5.79-.41,1.15Z"/>
      <path class="cls-3" d="M465.44,584.26c.46,2.41,4.59-.26,5.17-1.24.35-.82-.3-1.93-.41-1.27-.19.56-4.54,2.86-4.35,1.36.03-.22-.5.79-.41,1.15Z"/>
    </g>
    <g>
      <path class="cls-7" d="M465.38,594.6c.52,1.57,4.2-.61,4.94-1.41.7-.95-.03-1.64-.03-1.41-.36.55-4.56,2.83-4.36,1.21.04-.3-.74,1.2-.55,1.61Z"/>
      <path class="cls-3" d="M465.38,594.6c.52,1.57,4.2-.61,4.94-1.41.7-.95-.03-1.64-.03-1.41-.36.55-4.56,2.83-4.36,1.21.04-.3-.74,1.2-.55,1.61Z"/>
    </g>
    <g>
      <path class="cls-7" d="M465.6,598.44c.58,2.24,4.78-.47,5.21-1.42.27-.84-.44-1.91-.51-1.24-.1.57-4.47,2.96-4.35,1.51.02-.22-.47.81-.36,1.16Z"/>
      <path class="cls-3" d="M465.6,598.44c.58,2.24,4.78-.47,5.21-1.42.27-.84-.44-1.91-.51-1.24-.1.57-4.47,2.96-4.35,1.51.02-.22-.47.81-.36,1.16Z"/>
    </g>
    <g>
      <path class="cls-7" d="M465.53,596.24c.46,2.41,4.59-.26,5.17-1.24.35-.82-.3-1.93-.41-1.27-.19.56-4.54,2.86-4.35,1.36.03-.22-.5.79-.41,1.15Z"/>
      <path class="cls-3" d="M465.53,596.24c.46,2.41,4.59-.26,5.17-1.24.35-.82-.3-1.93-.41-1.27-.19.56-4.54,2.86-4.35,1.36.03-.22-.5.79-.41,1.15Z"/>
    </g>
    <g>
      <path class="cls-7" d="M465.52,600.64c.57,2.26,4.76-.45,5.21-1.4.28-.84-.42-1.92-.5-1.25-.11.57-4.48,2.95-4.35,1.49.02-.22-.47.81-.36,1.15Z"/>
      <path class="cls-3" d="M465.52,600.64c.57,2.26,4.76-.45,5.21-1.4.28-.84-.42-1.92-.5-1.25-.11.57-4.48,2.95-4.35,1.49.02-.22-.47.81-.36,1.15Z"/>
    </g>
    <g>
      <path class="cls-7" d="M465.45,617.06c.52,1.57,4.2-.61,4.94-1.41.7-.95-.03-1.63-.03-1.41-.36.55-4.56,2.83-4.36,1.21.04-.3-.74,1.2-.55,1.61Z"/>
      <path class="cls-2" d="M465.45,617.06c.52,1.57,4.2-.61,4.94-1.41.7-.95-.03-1.63-.03-1.41-.36.55-4.56,2.83-4.36,1.21.04-.3-.74,1.2-.55,1.61Z"/>
    </g>
    <g>
      <path class="cls-7" d="M465.55,615.09c.52,1.57,4.2-.61,4.94-1.41.7-.95-.03-1.64-.03-1.41-.36.55-4.56,2.83-4.36,1.21.04-.3-.74,1.2-.55,1.61Z"/>
      <path class="cls-2" d="M465.55,615.09c.52,1.57,4.2-.61,4.94-1.41.7-.95-.03-1.64-.03-1.41-.36.55-4.56,2.83-4.36,1.21.04-.3-.74,1.2-.55,1.61Z"/>
    </g>
    <g>
      <path class="cls-7" d="M465.48,610.83c.57,2.26,4.76-.45,5.21-1.4.28-.84-.42-1.91-.5-1.25-.11.57-4.48,2.95-4.35,1.49.02-.22-.47.81-.36,1.15Z"/>
      <path class="cls-2" d="M465.48,610.83c.57,2.26,4.76-.45,5.21-1.4.28-.84-.42-1.91-.5-1.25-.11.57-4.48,2.95-4.35,1.49.02-.22-.47.81-.36,1.15Z"/>
    </g>
    <g>
      <path class="cls-7" d="M465.46,612.77c.46,2.41,4.59-.26,5.17-1.24.35-.82-.3-1.93-.41-1.27-.19.56-4.54,2.86-4.35,1.36.03-.22-.5.79-.41,1.15Z"/>
      <path class="cls-2" d="M465.46,612.77c.46,2.41,4.59-.26,5.17-1.24.35-.82-.3-1.93-.41-1.27-.19.56-4.54,2.86-4.35,1.36.03-.22-.5.79-.41,1.15Z"/>
    </g>
    <g>
      <path class="cls-7" d="M465.66,626.73c.58,2.24,4.78-.48,5.21-1.42.27-.84-.44-1.91-.51-1.24-.1.57-4.47,2.96-4.35,1.51.02-.22-.47.81-.36,1.16Z"/>
      <path class="cls-2" d="M465.66,626.73c.58,2.24,4.78-.48,5.21-1.42.27-.84-.44-1.91-.51-1.24-.1.57-4.47,2.96-4.35,1.51.02-.22-.47.81-.36,1.16Z"/>
    </g>
    <g>
      <path class="cls-7" d="M465.59,624.53c.46,2.41,4.59-.26,5.17-1.24.35-.82-.3-1.93-.41-1.27-.19.56-4.54,2.86-4.35,1.36.03-.22-.5.79-.41,1.15Z"/>
      <path class="cls-2" d="M465.59,624.53c.46,2.41,4.59-.26,5.17-1.24.35-.82-.3-1.93-.41-1.27-.19.56-4.54,2.86-4.35,1.36.03-.22-.5.79-.41,1.15Z"/>
    </g>
    <g>
      <path class="cls-7" d="M465.56,623.09c.52,1.57,4.2-.61,4.94-1.41.7-.95-.03-1.64-.03-1.41-.36.55-4.56,2.83-4.36,1.21.04-.3-.74,1.2-.55,1.61Z"/>
      <path class="cls-2" d="M465.56,623.09c.52,1.57,4.2-.61,4.94-1.41.7-.95-.03-1.64-.03-1.41-.36.55-4.56,2.83-4.36,1.21.04-.3-.74,1.2-.55,1.61Z"/>
    </g>
    <g>
      <path class="cls-7" d="M465.66,621.12c.52,1.57,4.2-.61,4.94-1.41.7-.95-.03-1.64-.03-1.41-.36.55-4.56,2.83-4.36,1.21.04-.3-.74,1.2-.55,1.61Z"/>
      <path class="cls-2" d="M465.66,621.12c.52,1.57,4.2-.61,4.94-1.41.7-.95-.03-1.64-.03-1.41-.36.55-4.56,2.83-4.36,1.21.04-.3-.74,1.2-.55,1.61Z"/>
    </g>
    <g>
      <path class="cls-7" d="M465.57,618.79c.46,2.41,4.59-.26,5.17-1.24.35-.82-.3-1.93-.41-1.27-.19.56-4.54,2.86-4.35,1.36.03-.22-.5.79-.41,1.15Z"/>
      <path class="cls-2" d="M465.57,618.79c.46,2.41,4.59-.26,5.17-1.24.35-.82-.3-1.93-.41-1.27-.19.56-4.54,2.86-4.35,1.36.03-.22-.5.79-.41,1.15Z"/>
    </g>
    <g>
      <path class="cls-7" d="M465.5,629.13c.52,1.57,4.2-.61,4.94-1.41.7-.95-.03-1.64-.03-1.41-.36.55-4.56,2.83-4.36,1.21.04-.3-.74,1.2-.55,1.61Z"/>
      <path class="cls-2" d="M465.5,629.13c.52,1.57,4.2-.61,4.94-1.41.7-.95-.03-1.64-.03-1.41-.36.55-4.56,2.83-4.36,1.21.04-.3-.74,1.2-.55,1.61Z"/>
    </g>
    <g>
      <path class="cls-7" d="M465.72,632.97c.58,2.24,4.78-.47,5.21-1.42.27-.84-.44-1.91-.51-1.24-.1.57-4.47,2.96-4.35,1.51.02-.22-.47.81-.36,1.16Z"/>
      <path class="cls-2" d="M465.72,632.97c.58,2.24,4.78-.47,5.21-1.42.27-.84-.44-1.91-.51-1.24-.1.57-4.47,2.96-4.35,1.51.02-.22-.47.81-.36,1.16Z"/>
    </g>
    <g>
      <path class="cls-7" d="M465.65,630.77c.46,2.41,4.59-.26,5.17-1.24.35-.82-.3-1.93-.41-1.27-.19.56-4.54,2.86-4.35,1.36.03-.22-.5.79-.41,1.15Z"/>
      <path class="cls-2" d="M465.65,630.77c.46,2.41,4.59-.26,5.17-1.24.35-.82-.3-1.93-.41-1.27-.19.56-4.54,2.86-4.35,1.36.03-.22-.5.79-.41,1.15Z"/>
    </g>
    <g>
      <path class="cls-7" d="M465.65,635.17c.57,2.26,4.76-.45,5.21-1.4.28-.84-.42-1.91-.5-1.25-.11.57-4.48,2.95-4.35,1.49.02-.22-.47.81-.36,1.15Z"/>
      <path class="cls-2" d="M465.65,635.17c.57,2.26,4.76-.45,5.21-1.4.28-.84-.42-1.91-.5-1.25-.11.57-4.48,2.95-4.35,1.49.02-.22-.47.81-.36,1.15Z"/>
    </g>
    <g>
      <path class="cls-7" d="M465.75,641.19c.58,2.24,4.78-.47,5.21-1.42.27-.84-.44-1.91-.51-1.24-.1.57-4.47,2.96-4.35,1.51.02-.22-.47.81-.36,1.16Z"/>
      <path class="cls-2" d="M465.75,641.19c.58,2.24,4.78-.47,5.21-1.42.27-.84-.44-1.91-.51-1.24-.1.57-4.47,2.96-4.35,1.51.02-.22-.47.81-.36,1.16Z"/>
    </g>
    <g>
      <path class="cls-7" d="M465.68,638.99c.46,2.41,4.59-.26,5.17-1.24.35-.82-.3-1.93-.41-1.27-.19.56-4.54,2.86-4.35,1.36.03-.22-.5.79-.41,1.15Z"/>
      <path class="cls-2" d="M465.68,638.99c.46,2.41,4.59-.26,5.17-1.24.35-.82-.3-1.93-.41-1.27-.19.56-4.54,2.86-4.35,1.36.03-.22-.5.79-.41,1.15Z"/>
    </g>
    <g>
      <path class="cls-7" d="M465.65,637.55c.52,1.57,4.2-.61,4.94-1.41.7-.95-.03-1.64-.03-1.41-.36.55-4.56,2.83-4.36,1.21.05-.3-.74,1.2-.55,1.61Z"/>
      <path class="cls-2" d="M465.65,637.55c.52,1.57,4.2-.61,4.94-1.41.7-.95-.03-1.64-.03-1.41-.36.55-4.56,2.83-4.36,1.21.05-.3-.74,1.2-.55,1.61Z"/>
    </g>
    <g>
      <path class="cls-7" d="M465.59,643.59c.52,1.57,4.2-.61,4.94-1.41.7-.95-.03-1.64-.03-1.41-.36.55-4.56,2.83-4.36,1.21.05-.3-.74,1.2-.55,1.61Z"/>
      <path class="cls-2" d="M465.59,643.59c.52,1.57,4.2-.61,4.94-1.41.7-.95-.03-1.64-.03-1.41-.36.55-4.56,2.83-4.36,1.21.05-.3-.74,1.2-.55,1.61Z"/>
    </g>
    <g>
      <path class="cls-7" d="M465.81,647.43c.58,2.24,4.78-.47,5.21-1.42.27-.84-.44-1.91-.51-1.24-.1.57-4.48,2.96-4.35,1.51.02-.22-.47.81-.36,1.16Z"/>
      <path class="cls-2" d="M465.81,647.43c.58,2.24,4.78-.47,5.21-1.42.27-.84-.44-1.91-.51-1.24-.1.57-4.48,2.96-4.35,1.51.02-.22-.47.81-.36,1.16Z"/>
    </g>
    <g>
      <path class="cls-7" d="M465.74,645.23c.46,2.41,4.59-.26,5.17-1.24.35-.82-.3-1.93-.41-1.27-.19.56-4.54,2.86-4.35,1.36.03-.22-.5.79-.41,1.15Z"/>
      <path class="cls-2" d="M465.74,645.23c.46,2.41,4.59-.26,5.17-1.24.35-.82-.3-1.93-.41-1.27-.19.56-4.54,2.86-4.35,1.36.03-.22-.5.79-.41,1.15Z"/>
    </g>
    <g>
      <path class="cls-7" d="M465.52,608.55c.46,2.41,4.59-.26,5.17-1.24.35-.82-.3-1.93-.41-1.27-.19.56-4.54,2.86-4.35,1.36.03-.22-.5.79-.41,1.15Z"/>
      <path class="cls-2" d="M465.52,608.55c.46,2.41,4.59-.26,5.17-1.24.35-.82-.3-1.93-.41-1.27-.19.56-4.54,2.86-4.35,1.36.03-.22-.5.79-.41,1.15Z"/>
    </g>
    <g>
      <path class="cls-7" d="M465.49,607.11c.52,1.57,4.2-.61,4.94-1.41.7-.95-.03-1.64-.03-1.41-.36.55-4.56,2.83-4.36,1.21.04-.3-.74,1.2-.55,1.61Z"/>
      <path class="cls-2" d="M465.49,607.11c.52,1.57,4.2-.61,4.94-1.41.7-.95-.03-1.64-.03-1.41-.36.55-4.56,2.83-4.36,1.21.04-.3-.74,1.2-.55,1.61Z"/>
    </g>
    <g>
      <path class="cls-7" d="M465.59,605.14c.52,1.57,4.2-.61,4.94-1.41.7-.95-.03-1.64-.03-1.41-.36.55-4.56,2.83-4.36,1.21.05-.3-.74,1.2-.55,1.61Z"/>
      <path class="cls-2" d="M465.59,605.14c.52,1.57,4.2-.61,4.94-1.41.7-.95-.03-1.64-.03-1.41-.36.55-4.56,2.83-4.36,1.21.05-.3-.74,1.2-.55,1.61Z"/>
    </g>
    <g>
      <path class="cls-7" d="M465.5,602.81c.46,2.4,4.59-.26,5.17-1.24.35-.82-.3-1.93-.41-1.27-.19.56-4.54,2.86-4.35,1.36.03-.22-.5.79-.41,1.15Z"/>
      <path class="cls-2" d="M465.5,602.81c.46,2.4,4.59-.26,5.17-1.24.35-.82-.3-1.93-.41-1.27-.19.56-4.54,2.86-4.35,1.36.03-.22-.5.79-.41,1.15Z"/>
    </g>
  </g>
  <g id="Embroidery">
    <g>
      <path class="cls-6" d="M468.97,544.79l-.9,2.1c-3.05-5.29-5.86-18.48-3.25-19.3"/>
      <path class="cls-6" d="M469.59,541.9c.29,0,5.41-14.63,5.17-15.26-.28-.73,1.39,1.45.86,3.65-.36,1.48-5.21,14.51-5.21,14.51l-.82-2.9Z"/>
      <path class="cls-6" d="M469.78,551.64l5.24,17.09c1.51-2.75-1.58-13.58-4.47-19.02l-.77,1.93Z"/>
      <path class="cls-6" d="M475.1,532.17c1.83-1.15-3.04,14.84-3.75,15.77l-.93-3.14,4.69-12.63Z"/>
      <path class="cls-6" d="M472.32,551.22c.49-.43,4.46-15.63,2.69-14.64l-3.66,11.36.97,3.28Z"/>
      <path class="cls-6" d="M473.31,554.57c.36.02,3.1-12.81,1.64-12.54l-2.63,9.18.99,3.35Z"/>
      <path class="cls-6" d="M474.65,556.06c.31,0,1.45-9.78.48-8.58l-1.46,5.26.98,3.32Z"/>
      <path class="cls-6" d="M475.03,560.4s.58-1.91.96-3.07.36-6.78-.48-6.52l-1.22,7.08.74,2.51Z"/>
      <path class="cls-6" d="M465.09,556.39c-.67-.28-3.2-8.84-1.34-8.45l2.24,5.65-.9,2.8Z"/>
      <path class="cls-6" d="M464.23,558.6c-.14,0-1.79-5.57-.45-5.54l.98,3.21-.53,2.32Z"/>
      <path class="cls-6" d="M470.58,554.26l-5.8,17.24c-1.89-.44,4.31-20.18,5.02-19.79l.78,2.54Z"/>
      <path class="cls-6" d="M469.42,557.29l5.43,16.76c2-.16-3.48-20.32-4.3-19.86l-1.13,3.11Z"/>
      <path class="cls-6" d="M470.32,560.15l-5.45,16.73c-2.18.04,4.03-19.13,4.52-19.52l.93,2.79Z"/>
      <path class="cls-6" d="M469.39,562.74l5.42,18.18c2.05-1.15-3.76-21.49-4.5-20.77l-.93,2.58Z"/>
      <path class="cls-6" d="M470.32,565.68l-5.26,14.69c-2.14,1.74,3.54-16.89,4.33-17.63l.93,2.94Z"/>
      <path class="cls-6" d="M469.31,568.61l5.56,16.71c1.42-1.21-3.23-17.32-4.55-19.65l-1.01,2.93Z"/>
      <path class="cls-6" d="M470.18,571.14l-4.94,14.85c-2.15-.66,1.92-13.06,4.06-17.37l.88,2.52Z"/>
      <path class="cls-6" d="M469.23,574.09l5.65,16.85c1.93-1.22-3.46-18.1-4.69-19.81l-.96,2.95Z"/>
      <path class="cls-6" d="M470.18,576.94l-4.98,14.13c-1.6-1.67,3-15.81,4.03-16.98l.96,2.85Z"/>
      <path class="cls-6" d="M469.18,580.23l5.76,15.78c1.96.15-3.87-17.84-4.76-19.07l-1,3.29Z"/>
      <path class="cls-6" d="M470.32,583.66l-5.07,15.13c-2.09-2.4,2.39-16.27,3.93-18.56l1.14,3.43Z"/>
      <path class="cls-6" d="M469.31,586.59c2.4,4.33,4.02,10.27,5.64,15.09,2.23-.23-2.32-14.05-4.63-18.01l-1.01,2.92Z"/>
      <path class="cls-6" d="M470.62,589.51l-5.6,15.85c-1.82.45,2.39-15.01,4.28-18.78l1.32,2.92Z"/>
      <path class="cls-6" d="M469.38,592.95l5.47,13.62c2.01.02-2.64-13.97-4.23-16.91l-1.24,3.29Z"/>
      <path class="cls-6" d="M470.4,595.51c.14,1.56-4.8,16.23-5.15,15.89-1.66-1.64,2.68-15.83,4.16-18.56l.99,2.67Z"/>
      <path class="cls-6" d="M469.63,598.71s4.7,10.58,5.35,11.24c1.47,1.48-1.42-8.95-4.68-14.44l-.67,3.2Z"/>
      <path class="cls-6" d="M466.68,550.85c-1.71-2.99-2.86-6.24-3.66-9.92-.22-1.4-.38-3.04.56-2.97l4,10.66-.9,2.22Z"/>
      <path class="cls-6" d="M464.8,523.18c-1.88,1.78,5.06,25.39,10.2,38.35.23.57.17,1.17.23,1.23.43.43.67-3.2.07-4.89-1.92-5.41-7.89-27.85-9.98-33.2-.31-.79.26-2.24-.53-1.5Z"/>
      <path class="cls-6" d="M467.48,548.91c-1.69-3.11-2.98-7.36-4.17-11.89-.19-.73-.26-1.48-.19-2.23s.23-1.58.61-1.81c.81,3.47,2.42,8.5,4.33,13.92l-.59,2.02Z"/>
      <path class="cls-6" d="M465.54,553.43c-.46-.04-3.34-10.67-1.89-9.95l2.7,7-.81,2.95Z"/>
      <path class="cls-6" d="M464.4,563.36c1.52-4.63,2.9-9.74,5.46-16.27l-.9-2.79c-1.13-.23-6.88,18.91-4.57,19.06Z"/>
      <path class="cls-6" d="M470.66,549.71l-6.12,17.39c-1.47-.76,3.05-16.17,5.24-20.09l.89,2.69Z"/>
    </g>
  </g>
</svg>