<?xml version="1.0" encoding="UTF-8"?>
<svg xmlns="http://www.w3.org/2000/svg" viewBox="0 0 1809.83 1112.94">
  <defs>
    <style>
      .cls-1, .cls-2, .cls-3, .cls-4 {
        fill: none;
      }

      .cls-1, .cls-2, .cls-3, .cls-4, .cls-5, .cls-6, .cls-7, .cls-8 {
        stroke: #231f20;
        stroke-miterlimit: 10;
      }

      .cls-2 {
        stroke-width: .2px;
      }

      .cls-3, .cls-8 {
        stroke-width: .3px;
      }

      .cls-4, .cls-7 {
        stroke-width: .5px;
      }

      .cls-5, .cls-6, .cls-7, .cls-8 {
        fill: #fff;
      }

      .cls-6 {
        stroke-width: .75px;
      }
    </style>
  </defs>
  <g id="Bookblock_view_2" data-name="Bookblock view 2">
    <polyline class="cls-5" points="1315.19 673.39 964.04 876.67 491.49 605.91 845.57 402.15"/>
    <polyline class="cls-7" points="1314.38 671.8 964.12 874.72 491.23 604.21 846.35 400.91"/>
    <polyline class="cls-7" points="1312.33 671.26 964.04 873.21 490.99 602.5 844.59 398.46"/>
    <polyline class="cls-7" points="1312.68 666.75 962.13 870.43 490.88 599.78 845.57 394.06"/>
    <polyline class="cls-7" points="1311.7 665.51 963.37 866.7 490.99 597.41 846.51 391.24"/>
    <polyline class="cls-7" points="1310.47 663.36 962.38 865.11 490.58 594.78 843.9 390.59"/>
    <polyline class="cls-7" points="1309.52 661.45 963.37 861.46 490.99 592.18 844.32 387.99"/>
    <polyline class="cls-5" points="1315.09 655.56 963.72 859.9 491.93 589.58 845.25 385.38"/>
    <polyline class="cls-7" points="1311.23 655.56 963.34 859.27 491.19 587.17 846.45 380.15"/>
    <polyline class="cls-7" points="1311.99 652.1 963.37 854.85 490.99 584.19 844.32 380"/>
    <polyline class="cls-7" points="1313.2 647.82 963.37 852.84 490.96 582.16 845.44 375.49"/>
    <polyline class="cls-7" points="1312.75 645.84 963.37 850.26 490.88 578.84 844.04 372.68"/>
    <polyline class="cls-7" points="1312.05 644.47 962.79 846.66 490.99 576.34 844.32 372.14"/>
    <polyline class="cls-7" points="1310.27 643.1 963.23 844.01 491.43 573.68 844.75 369.49"/>
    <polyline class="cls-5" points="1315.38 637.82 963.23 840.61 491.43 570.29 844.75 366.09"/>
    <polyline class="cls-7" points="1312.32 636.76 963.37 838.25 491.23 568.19 845.35 363.99"/>
    <polyline class="cls-7" points="1312.33 634.61 963.37 836.58 491.19 566.35 845.25 362.26"/>
    <polyline class="cls-7" points="1312.23 631.9 963.37 834.21 490.96 563.9 844.28 359.7"/>
    <polyline class="cls-7" points="1312.05 630.63 963.23 832.57 491.43 562.24 844.75 358.05"/>
    <polyline class="cls-7" points="1310.91 629.12 963.23 830.4 491.43 560.07 844.75 355.88"/>
    <polyline class="cls-7" points="1310.44 627.07 963.49 827.93 491.33 557.53 845.25 353.28"/>
    <polyline class="cls-5" points="1315.19 621.1 963.72 825 491.49 554.67 845.25 350.48"/>
    <polyline class="cls-7" points="1311.19 620.14 963.37 822.02 490.99 551.51 844.32 347.32"/>
    <polyline class="cls-7" points="1312.24 616.96 963.37 819.75 490.99 549.53 844.04 345.18"/>
    <polyline class="cls-7" points="1312.33 614.5 963.37 818.02 491.19 547.61 843.08 343.06"/>
    <polyline class="cls-7" points="1311.45 613.28 963.13 816.38 490.72 545.53 843.08 341.33"/>
    <polyline class="cls-7" points="1310.02 612.04 963.18 814.09 490.61 543.21 843.93 339.01"/>
    <polyline class="cls-7" points="1309.04 610.31 963.25 811.82 490.72 540.31 844.04 336.12"/>
    <polyline class="cls-5" points="1315.38 603.61 962.41 807.65 491.19 537.34 843.93 333.13"/>
    <polyline class="cls-7" points="1313.66 600.99 963.37 805.43 490.7 535.21 844.04 329.76"/>
    <polyline class="cls-7" points="1313.66 599.06 963.2 803.22 490.44 532.87 844.04 327.83"/>
    <polyline class="cls-7" points="1312.7 596.75 963.37 800.8 490.87 530.24 843.08 325.52"/>
    <polyline class="cls-7" points="1312.7 594.63 963.37 798.16 490.61 527.66 843.08 323.4"/>
    <polyline class="cls-7" points="1311.03 593.28 963.37 796.39 490.72 525.37 843.08 321.08"/>
    <polyline class="cls-7" points="1309.04 591.93 963.37 794.14 490.72 522.96 843.08 318.58"/>
    <polyline class="cls-5" points="1315.38 586.33 963.37 792.21 490.99 520.96 843.08 316.65"/>
    <polyline class="cls-7" points="1310.91 585.57 962.38 789.18 490.58 518.85 843.93 312.8"/>
    <polyline class="cls-7" points="1311.72 582.88 963.37 786.55 490.72 516.23 844.04 310.87"/>
    <polyline class="cls-7" points="1311.45 580.9 963.37 784.5 490.61 513.37 843.08 308.94"/>
    <polyline class="cls-7" points="1310.36 578.77 963.37 782.06 490.7 510.86 842.31 306.63"/>
    <polyline class="cls-7" points="1310.11 576.47 962.99 779.08 490.72 508.16 843.08 303.73"/>
    <polyline class="cls-7" points="1308.68 575.28 963.37 776.3 490.61 505.42 843.93 301.23"/>
    <polyline class="cls-5" points="1315.38 570.39 963.37 772.81 491.43 502.47 846.35 298.3"/>
    <polyline class="cls-7" points="1311.23 567.83 963.28 770.38 490.96 500.02 845.57 294.29"/>
    <polyline class="cls-7" points="1311.72 564.69 963.32 768.38 490.99 497.99 844.65 291.98"/>
    <polyline class="cls-7" points="1312.7 560.51 963.37 765.73 490.88 495.32 843.08 289.28"/>
    <polyline class="cls-7" points="1311.56 559.55 963.13 763.46 490.72 492.47 843.93 287.16"/>
    <polyline class="cls-7" points="1311.23 558.09 963.23 759.56 490.96 490.02 844.28 285.83"/>
    <polyline class="cls-7" points="1310.11 556.96 963.83 757.44 490.96 487.17 845.35 282.92"/>
    <polyline class="cls-5" points="1315.38 551.75 963.57 754.98 491.43 484.72 845.76 280.52"/>
    <polyline class="cls-7" points="1312.99 549.84 963.25 751.77 490.99 481.68 845.25 277.52"/>
    <polyline class="cls-7" points="1313.3 547.54 962.94 749.97 490.99 479.58 845.25 275.4"/>
    <polyline class="cls-7" points="1313.56 545.11 963.12 747.99 490.72 476.91 844.65 273.47"/>
    <polyline class="cls-7" points="1313.15 543.05 962.98 745.78 491.19 475.45 844.51 271.25"/>
    <polyline class="cls-7" points="1312.99 541.53 963.1 743.78 491.19 473.75 845.25 269.61"/>
    <polyline class="cls-7" points="1312.32 539.82 963.14 741.3 491.23 471.27 845.25 267.11"/>
    <polyline class="cls-5" points="1314.87 534.96 963.72 738.25 491.57 467.85 845.25 263.73"/>
    <polyline class="cls-7" points="1312.32 532.72 963.45 734.69 490.99 464.57 844.65 260.36"/>
    <polyline class="cls-7" points="1312.32 530.84 963.37 732.9 491.06 462.4 844.65 258.24"/>
    <polyline class="cls-7" points="1312.51 528.76 963.41 731.19 491.19 460.62 844.65 256.51"/>
    <polyline class="cls-7" points="1311.03 526.3 963.37 727.94 490.72 458.09 843.93 253.61"/>
    <polyline class="cls-7" points="1312.52 523.39 963.41 726.06 490.72 455.49 844.04 251.3"/>
    <polyline class="cls-7" points="1311.23 522.52 963.37 723.5 490.44 453.03 845.25 249.18"/>
    <polyline class="cls-5" points="1314.98 516.52 963.83 719.81 491.23 449.44 845.35 245.29"/>
    <polyline class="cls-7" points="1312.7 515.41 963.41 717.68 491.06 446.93 846.35 242.33"/>
    <polyline class="cls-7" points="1313.3 511.7 963.1 714.64 490.88 444.31 843.67 240.12"/>
    <polyline class="cls-7" points="1310.79 510.38 963.35 712.02 490.72 441.73 843.26 237.41"/>
    <polyline class="cls-7" points="843.93 234.87 490.61 439.06 963.37 709.49 1310.36 507.95"/>
    <polyline class="cls-7" points="844.65 233.03 491.33 437.22 963.37 707.41 1310.68 506.34"/>
    <polyline class="cls-7" points="843.06 231.28 490.7 435.39 963.41 706.16 1310.66 503.68"/>
    <polygon class="cls-5" points="845.46 228.16 1314.52 498.65 963.37 701.94 492.14 432.36 845.46 228.16"/>
    <path class="cls-5" d="M847.22,211.41l458.62,264.87c4.05,2.34,11.51,5.85,7.46,8.19l-347.61,199.25c-1.18.68-2.63.69-3.82,0l-468.84-268.34c-1.05-.6.27-1.65,1.31-2.25l349.06-201.73c1.18-.68,2.64-.68,3.83,0Z"/>
    <path class="cls-1" d="M1315.09,499.4c3.04,4.26,3.5,9.67,0,16.84,3.97,5.55,3.6,11.74,0,18.41,4.45,5.87,3.14,11.68,0,17.48,4.12,5.69,3.52,11.95,0,18.57,4.34,4.27,3.31,9.8,0,15.85,4.31,5.49,3.38,11.45,0,17.62,3.78,5.05,3.94,10.61,0,16.76,3.5,5.61,4.22,11.34,0,17.25,4.09,5.09,2.61,11.14,0,17.38,4.41,4.63,2.12,11.82-.21,18.01"/>
    <path class="cls-4" d="M1310.36,504.83c6.18-3.38,6.96,7.57,2.15,10.7"/>
    <path class="cls-4" d="M1311.03,522.62c6.18-3.38,6.09,6.98,1.29,10.11"/>
    <path class="cls-4" d="M1312.32,539.82c5.34-2.37,5.67,7.76.67,10.02"/>
    <path class="cls-4" d="M1308.68,575.28c8.26-4.45,10,6.15,2.23,10.29"/>
    <path class="cls-4" d="M1309.04,591.93c6.26-3.85,10.39,5.53,4.63,9.06"/>
    <path class="cls-4" d="M1309.04,610.31c9.22-5.26,10.1,5,1.88,9.63"/>
    <path class="cls-4" d="M1310.44,627.07c6.95-4.2,8.56,5.78,1.88,9.69"/>
    <path class="cls-4" d="M1310.27,643.1c6.95-4.2,7.64,8.55.96,12.46"/>
    <path class="cls-4" d="M1309.52,661.45c4.96-3.29,7.97,8.83,4.14,10.76"/>
    <path class="cls-4" d="M1310.11,556.96c8.26-4.45,8.88,6.73,1.12,10.86"/>
    <path class="cls-4" d="M1310.36,506.53c3.78-2.34,5.27,4.2,2.5,5.42"/>
    <path class="cls-4" d="M1312.32,523.5c3.3-1.1,2.76,6.11,0,7.33"/>
    <path class="cls-4" d="M1312.91,541.61c3.3-1.1,3.15,4.7.38,5.93"/>
    <path class="cls-4" d="M1311.08,558.17c4.75-1.59,4.56,4.91.64,6.53"/>
    <path class="cls-4" d="M1310.11,576.47c4.06-1.94,5.54,4.8,1.61,6.42"/>
    <path class="cls-4" d="M1311.03,593.28c4.06-1.94,5.96,4.49,2.03,6.11"/>
    <path class="cls-4" d="M1310.02,612.04c3.77-2.32,5.74,2.77,2.22,4.92"/>
    <path class="cls-4" d="M1310.91,629.12c5.04-2.92,5.99,2.85,1.42,5.49"/>
    <path class="cls-4" d="M1312.05,644.47c3.33-1.64,3.6,5.68-.06,7.63"/>
    <path class="cls-4" d="M1310.47,663.36c3.33-1.64,5.52,5.94,1.86,7.9"/>
    <path class="cls-4" d="M1309.94,508.19c2.94-1.66,3.58.89.74,2.3"/>
    <path class="cls-4" d="M1311.03,526.3c1.68-1.15,3.14,1.52,1.48,2.45"/>
    <path class="cls-4" d="M1313.15,543.05c1.68-1.15,1.66,1.36,0,2.3"/>
    <path class="cls-4" d="M1311.56,559.55c1.68-1.15,2.8.03,1.14.96"/>
    <path class="cls-4" d="M1310.36,578.77c1.68-1.15,2.75,1.19,1.09,2.13"/>
    <path class="cls-4" d="M1312.33,594.84c1.68-1.15,2.02.98.37,1.91"/>
    <path class="cls-4" d="M1311.45,613.28c1.13-.71,2,.72.88,1.22"/>
    <path class="cls-4" d="M1312.05,630.63c1.97-1.23,1.95.22-.06,1.28"/>
    <path class="cls-4" d="M1310.68,665.44c1.32-.77,3.25.72,1.73,1.43"/>
    <path class="cls-4" d="M1312.75,645.84c1.32-.77,1.28,1.27-.24,1.97"/>
    <path class="cls-5" d="M963.41,700.04l.29-12.66c.05-1.98,1.12-3.79,2.84-4.78l347.14-200.31c.69-.4,1.55.09,1.56.88l.22,14.93c0,.38-.19.73-.52.91l-349.97,201.94c-.7.4-1.58-.11-1.56-.92Z"/>
    <polygon class="cls-5" points="963.37 893.7 963.78 876.01 1315.22 673.23 1315.47 690.53 963.37 893.7"/>
    <path class="cls-5" d="M491.92,416.45l-.5,14.67c-.01.4.2.78.55.98l469.66,269.1c.71.41,1.6-.09,1.63-.91l.5-14.67c.01-.4-.2-.78-.55-.98l-469.66-269.1c-.71-.41-1.6.09-1.63.91Z"/>
    <path class="cls-5" d="M491.33,607.84l.06,15.48,471.8,270.33.59-17.13-471.12-269.46c-.59-.34-1.33.09-1.33.78Z"/>
    <line class="cls-8" x1="963.76" y1="685.63" x2="1315.2" y2="482.87"/>
    <line class="cls-3" x1="492.14" y1="415.84" x2="963.96" y2="686.53"/>
  </g>
  <g id="Gothic_German" data-name="Gothic German">
    <path class="cls-6" d="M1098.6,447.33c.71-1.01-7.86-4.85-16.01-2.9,6.04-4.62,11.1-5.42,17.66-3.54-.98-3.07-.86-5.98.16-8.75,6.08,9.21,8.02,7.69,14.95,3.72l59.13-35.71,21.73,12.58-60.7,34.64c-6.7,5.01-2.7,7.51,5.59,10.58-3.54,1.76-7.31,1.98-11.37.29,2.16,5.89,2.08,10.15-1.83,16.29-.12-6.28-4.14-11.35-5.95-10.88-1.15.3-1.68.69-1.68.69-5.67,3.18-13.35-1.51-10.82-6.7l.62-1.08-1.98.81c-6.56,2.16-14.35-3.75-10.7-8.47,0,0,.48-.54,1.19-1.56Z"/>
    <ellipse class="cls-6" cx="1178.95" cy="410.39" rx="1.62" ry="1.25"/>
    <ellipse class="cls-6" cx="1119.85" cy="457.19" rx="1.62" ry="1.25"/>
    <ellipse class="cls-6" cx="1106.21" cy="449.19" rx="1.62" ry="1.25"/>
    <line class="cls-7" x1="1106.84" y1="448.24" x2="1105.43" y2="450.11"/>
    <path class="cls-2" d="M1186.76,417.92s-45.93,23.96-49.87,25.76c-3.91,1.78-7.65,4.95-7.81,7.71-.06,1.11-.42,2.74,2.02,4.53,2.22,1.62,10.02,2.02,10.02,2.02"/>
    <path class="cls-2" d="M1100.42,432.13s1.88,6.59,3.36,8.08c1.9,1.92,5.17,2.63,7.71,1.64,2.44-.95,15.18-9.3,15.18-9.3l38.48-26.37"/>
    <path class="cls-2" d="M1128.21,474.06s-.12-7.17-1.05-8.98-2.11-4-4.5-3.93c-1.91.06-2.63.35-5.41,1.04-2.45.61-4.87-.78-5.05-2.49-.34-3.17,15.79-19.34,16.01-19.05-8.65,6.52-19.79,13.93-22.84,14.57-3.08.64-6.37-1.82-5.64-4.47.26-.95,1.9-4.27.51-5.47s-6.13-2.84-10.05-2.71-6.19,1.2-6.19,1.2"/>
    <line class="cls-7" x1="1178.24" y1="411.32" x2="1179.65" y2="409.45"/>
    <line class="cls-7" x1="1119.83" y1="456.02" x2="1119.86" y2="458.36"/>
    <path class="cls-6" d="M863.83,310.81c.71-1.01-7.86-4.85-16.01-2.9,6.04-4.62,11.1-5.42,17.66-3.54-.98-3.07-.86-5.98.16-8.75,6.08,9.21,8.02,7.69,14.95,3.72l59.13-35.71,21.73,12.58-60.7,34.64c-6.7,5.01-2.7,7.51,5.59,10.58-3.54,1.76-7.31,1.98-11.37.29,2.16,5.89,2.08,10.15-1.83,16.29-.12-6.28-4.14-11.35-5.95-10.88-1.15.3-1.68.69-1.68.69-5.67,3.18-13.35-1.51-10.82-6.7l.62-1.08-1.98.81c-6.56,2.16-14.35-3.75-10.7-8.47,0,0,.48-.54,1.19-1.56Z"/>
    <ellipse class="cls-6" cx="944.18" cy="273.87" rx="1.62" ry="1.25"/>
    <ellipse class="cls-6" cx="885.07" cy="320.67" rx="1.62" ry="1.25"/>
    <ellipse class="cls-6" cx="871.44" cy="312.68" rx="1.62" ry="1.25"/>
    <line class="cls-7" x1="872.07" y1="311.72" x2="870.66" y2="313.59"/>
    <path class="cls-2" d="M951.99,281.4s-45.93,23.96-49.87,25.76c-3.91,1.78-7.65,4.95-7.81,7.71-.06,1.11-.42,2.74,2.02,4.53,2.22,1.62,10.02,2.02,10.02,2.02"/>
    <path class="cls-2" d="M865.65,295.61s1.88,6.59,3.36,8.08c1.9,1.92,5.17,2.63,7.71,1.64,2.44-.95,15.18-9.3,15.18-9.3l38.48-26.37"/>
    <path class="cls-2" d="M893.44,337.54s-.12-7.17-1.05-8.98-2.11-4-4.5-3.93c-1.91.06-2.63.35-5.41,1.04-2.45.61-4.87-.78-5.05-2.49-.34-3.17,15.79-19.34,16.01-19.05-8.65,6.52-19.79,13.93-22.84,14.57-3.08.64-6.37-1.82-5.64-4.47.26-.95,1.9-4.27.51-5.47s-6.13-2.84-10.05-2.71-6.19,1.2-6.19,1.2"/>
    <line class="cls-7" x1="943.47" y1="274.81" x2="944.88" y2="272.94"/>
    <line class="cls-7" x1="885.06" y1="319.5" x2="885.09" y2="321.84"/>
  </g>
</svg>