<?xml version="1.0" encoding="UTF-8"?>
<svg xmlns="http://www.w3.org/2000/svg" viewBox="0 0 2006.06 1180.98">
  <defs>
    <style>
      .cls-1, .cls-2, .cls-3 {
        fill: none;
      }

      .cls-1, .cls-2, .cls-3, .cls-4, .cls-5, .cls-6, .cls-7, .cls-8, .cls-9 {
        stroke: #231f20;
        stroke-miterlimit: 10;
      }

      .cls-2, .cls-9 {
        stroke-width: .3px;
      }

      .cls-3, .cls-8 {
        stroke-width: .5px;
      }

      .cls-4, .cls-5, .cls-6, .cls-7, .cls-8, .cls-9 {
        fill: #fff;
      }

      .cls-5 {
        stroke-width: .2px;
      }

      .cls-6 {
        stroke-width: .74px;
      }

      .cls-7 {
        stroke-width: .5px;
      }
    </style>
  </defs>
  <g id="Bookblock_view_2" data-name="Bookblock view 2">
    <polyline class="cls-4" points="1599.57 782.02 1248.42 985.31 775.86 714.54 1129.94 510.78"/>
    <polyline class="cls-8" points="1598.76 780.43 1248.49 983.35 775.6 712.84 1130.72 509.55"/>
    <polyline class="cls-8" points="1596.71 779.89 1248.42 981.84 775.37 711.13 1128.96 507.09"/>
    <polyline class="cls-8" points="1597.05 775.38 1246.5 979.06 775.25 708.42 1129.94 502.69"/>
    <polyline class="cls-8" points="1596.07 774.14 1247.74 975.33 775.37 706.05 1130.88 499.87"/>
    <polyline class="cls-8" points="1594.84 771.99 1246.75 973.74 774.95 703.42 1128.27 499.22"/>
    <polyline class="cls-8" points="1593.9 770.09 1247.74 970.09 775.37 700.81 1128.69 496.62"/>
    <polyline class="cls-4" points="1599.46 764.19 1248.09 968.54 776.3 698.21 1129.62 494.01"/>
    <polyline class="cls-8" points="1595.6 764.19 1247.71 967.9 775.56 695.8 1130.83 488.78"/>
    <polyline class="cls-8" points="1596.36 760.73 1247.74 963.49 775.37 692.83 1128.69 488.63"/>
    <polyline class="cls-8" points="1597.57 756.45 1247.74 961.47 775.33 690.79 1129.81 484.13"/>
    <polyline class="cls-8" points="1597.13 754.47 1247.74 958.89 775.25 687.47 1128.41 481.31"/>
    <polyline class="cls-8" points="1596.43 753.1 1247.16 955.3 775.37 684.97 1128.69 480.77"/>
    <polyline class="cls-8" points="1594.64 751.73 1247.6 952.64 775.81 682.31 1129.13 478.12"/>
    <polyline class="cls-4" points="1599.75 746.45 1247.6 949.25 775.81 678.92 1129.13 474.72"/>
    <polyline class="cls-8" points="1596.69 745.4 1247.74 946.88 775.6 676.82 1129.73 472.62"/>
    <polyline class="cls-8" points="1596.71 743.24 1247.74 945.21 775.56 674.99 1129.62 470.89"/>
    <polyline class="cls-8" points="1596.61 740.53 1247.74 942.84 775.33 672.53 1128.66 468.33"/>
    <polyline class="cls-8" points="1596.43 739.26 1247.6 941.2 775.81 670.87 1129.13 466.68"/>
    <polyline class="cls-8" points="1595.29 737.75 1247.6 939.03 775.81 668.7 1129.13 464.51"/>
    <polyline class="cls-8" points="1594.82 735.7 1247.86 936.57 775.7 666.17 1129.62 461.91"/>
    <polyline class="cls-4" points="1599.57 729.73 1248.09 933.63 775.86 663.3 1129.62 459.11"/>
    <polyline class="cls-8" points="1595.56 728.77 1247.74 930.65 775.37 660.14 1128.69 455.95"/>
    <polyline class="cls-8" points="1596.61 725.59 1247.74 928.38 775.37 658.16 1128.41 453.81"/>
    <polyline class="cls-8" points="1596.71 723.14 1247.74 926.65 775.56 656.24 1127.45 451.69"/>
    <polyline class="cls-8" points="1595.82 721.91 1247.5 925.01 775.09 654.17 1127.45 449.96"/>
    <polyline class="cls-8" points="1594.4 720.67 1247.55 922.72 774.99 651.84 1128.31 447.64"/>
    <polyline class="cls-8" points="1593.41 718.94 1247.62 920.45 775.09 648.95 1128.41 444.75"/>
    <polyline class="cls-4" points="1599.75 712.24 1246.78 916.28 775.56 645.97 1128.31 441.76"/>
    <polyline class="cls-8" points="1598.04 709.62 1247.74 914.06 775.08 643.84 1128.41 438.39"/>
    <polyline class="cls-8" points="1598.04 707.7 1247.58 911.85 774.81 641.51 1128.41 436.46"/>
    <polyline class="cls-8" points="1597.07 705.38 1247.74 909.43 775.24 638.87 1127.45 434.15"/>
    <polyline class="cls-8" points="1597.07 703.26 1247.74 906.79 774.99 636.29 1127.45 432.03"/>
    <polyline class="cls-8" points="1595.4 701.92 1247.74 905.02 775.09 634 1127.45 429.72"/>
    <polyline class="cls-8" points="1593.41 700.56 1247.74 902.77 775.09 631.59 1127.45 427.21"/>
    <polyline class="cls-4" points="1599.75 694.96 1247.74 900.84 775.37 629.59 1127.45 425.28"/>
    <polyline class="cls-8" points="1595.29 694.2 1246.75 897.81 774.95 627.48 1128.31 421.43"/>
    <polyline class="cls-8" points="1596.1 691.52 1247.74 895.18 775.09 624.86 1128.41 419.5"/>
    <polyline class="cls-8" points="1595.82 689.53 1247.74 893.14 774.99 622 1127.45 417.57"/>
    <polyline class="cls-8" points="1594.73 687.4 1247.74 890.7 775.08 619.49 1126.68 415.26"/>
    <polyline class="cls-8" points="1594.48 685.1 1247.36 887.71 775.09 616.79 1127.45 412.37"/>
    <polyline class="cls-8" points="1593.05 683.92 1247.74 884.93 774.99 614.05 1128.31 409.86"/>
    <polyline class="cls-4" points="1599.75 679.02 1247.74 881.44 775.81 611.11 1130.72 406.93"/>
    <polyline class="cls-8" points="1595.6 676.46 1247.65 879.01 775.33 608.65 1129.94 402.92"/>
    <polyline class="cls-8" points="1596.1 673.33 1247.7 877.01 775.37 606.62 1129.02 400.61"/>
    <polyline class="cls-8" points="1597.07 669.14 1247.74 874.36 775.25 603.95 1127.45 397.91"/>
    <polyline class="cls-8" points="1595.94 668.18 1247.5 872.09 775.09 601.11 1128.31 395.79"/>
    <polyline class="cls-8" points="1595.6 666.72 1247.6 868.19 775.33 598.65 1128.66 394.46"/>
    <polyline class="cls-8" points="1594.48 665.6 1248.2 866.07 775.33 595.8 1129.73 391.55"/>
    <polyline class="cls-4" points="1599.75 660.38 1247.94 863.61 775.81 593.35 1130.13 389.15"/>
    <polyline class="cls-8" points="1597.36 658.47 1247.62 860.4 775.37 590.31 1129.62 386.15"/>
    <polyline class="cls-8" points="1597.67 656.17 1247.31 858.6 775.37 588.21 1129.62 384.03"/>
    <polyline class="cls-8" points="1597.93 653.75 1247.49 856.62 775.09 585.54 1129.02 382.1"/>
    <polyline class="cls-8" points="1597.53 651.68 1247.36 854.41 775.56 584.08 1128.88 379.88"/>
    <polyline class="cls-8" points="1597.36 650.17 1247.47 852.41 775.56 582.38 1129.62 378.25"/>
    <polyline class="cls-8" points="1596.69 648.45 1247.52 849.93 775.6 579.9 1129.62 375.74"/>
    <polyline class="cls-4" points="1599.24 643.6 1248.09 846.88 775.94 576.48 1129.62 372.36"/>
    <polyline class="cls-8" points="1596.69 641.36 1247.83 843.32 775.37 573.2 1129.02 368.99"/>
    <polyline class="cls-8" points="1596.69 639.47 1247.74 841.54 775.43 571.03 1129.02 366.87"/>
    <polyline class="cls-8" points="1596.88 637.39 1247.78 839.83 775.56 569.25 1129.02 365.14"/>
    <polyline class="cls-8" points="1595.4 634.94 1247.74 836.58 775.09 566.72 1128.31 362.25"/>
    <polyline class="cls-8" points="1596.89 632.02 1247.78 834.7 775.09 564.13 1128.41 359.93"/>
    <polyline class="cls-8" points="1595.6 631.15 1247.74 832.13 774.81 561.66 1129.62 357.81"/>
    <polyline class="cls-4" points="1599.35 625.15 1248.2 828.44 775.6 558.07 1129.73 353.92"/>
    <polyline class="cls-8" points="1597.07 624.05 1247.78 826.31 775.43 555.56 1130.72 350.97"/>
    <polyline class="cls-8" points="1597.67 620.33 1247.47 823.27 775.25 552.94 1128.05 348.75"/>
    <polyline class="cls-8" points="1595.17 619.01 1247.72 820.66 775.09 550.36 1127.63 346.05"/>
    <polyline class="cls-8" points="1128.31 343.5 774.99 547.69 1247.74 818.12 1594.73 616.59"/>
    <polyline class="cls-8" points="1129.02 341.66 775.7 545.85 1247.74 816.04 1595.05 614.97"/>
    <polyline class="cls-8" points="1127.44 339.91 775.08 544.02 1247.78 814.79 1595.04 612.31"/>
    <polygon class="cls-4" points="1129.83 336.8 1598.89 607.28 1247.74 810.57 776.51 540.99 1129.83 336.8"/>
    <path class="cls-4" d="M1131.59,320.05l458.62,264.87c4.05,2.34,11.51,5.85,7.46,8.19l-347.61,199.25c-1.18.68-2.63.69-3.82,0l-468.84-268.34c-1.05-.6.27-1.65,1.31-2.25l349.06-201.73c1.18-.68,2.64-.68,3.83,0Z"/>
    <path class="cls-1" d="M1599.46,608.03c3.04,4.26,3.5,9.67,0,16.84,3.97,5.55,3.6,11.74,0,18.41,4.45,5.87,3.14,11.68,0,17.48,4.12,5.69,3.52,11.95,0,18.57,4.34,4.27,3.31,9.8,0,15.85,4.31,5.49,3.38,11.45,0,17.62,3.78,5.05,3.94,10.61,0,16.76,3.5,5.61,4.22,11.34,0,17.25,4.09,5.09,2.61,11.14,0,17.38,4.41,4.63,2.12,11.82-.21,18.01"/>
    <path class="cls-3" d="M1594.73,613.46c6.18-3.38,6.96,7.57,2.15,10.7"/>
    <path class="cls-3" d="M1595.4,631.25c6.18-3.38,6.09,6.98,1.29,10.11"/>
    <path class="cls-3" d="M1596.69,648.45c5.34-2.37,5.67,7.76.67,10.02"/>
    <path class="cls-3" d="M1593.05,683.92c8.26-4.45,10,6.15,2.23,10.29"/>
    <path class="cls-3" d="M1593.41,700.56c6.26-3.85,10.39,5.53,4.63,9.06"/>
    <path class="cls-3" d="M1593.41,718.94c9.22-5.26,10.1,5,1.88,9.63"/>
    <path class="cls-3" d="M1594.82,735.7c6.95-4.2,8.56,5.78,1.88,9.69"/>
    <path class="cls-3" d="M1594.64,751.73c6.95-4.2,7.64,8.55.96,12.46"/>
    <path class="cls-3" d="M1593.9,770.09c4.96-3.29,7.97,8.83,4.14,10.76"/>
    <path class="cls-3" d="M1594.48,665.6c8.26-4.45,8.88,6.73,1.12,10.86"/>
    <path class="cls-3" d="M1594.73,615.16c3.78-2.34,5.27,4.2,2.5,5.42"/>
    <path class="cls-3" d="M1596.69,632.13c3.3-1.1,2.76,6.11,0,7.33"/>
    <path class="cls-3" d="M1597.28,650.24c3.3-1.1,3.15,4.7.38,5.93"/>
    <path class="cls-3" d="M1595.46,666.8c4.75-1.59,4.56,4.91.64,6.53"/>
    <path class="cls-3" d="M1594.48,685.1c4.06-1.94,5.54,4.8,1.61,6.42"/>
    <path class="cls-3" d="M1595.4,701.92c4.06-1.94,5.96,4.49,2.03,6.11"/>
    <path class="cls-3" d="M1594.4,720.67c3.77-2.32,5.74,2.77,2.22,4.92"/>
    <path class="cls-3" d="M1595.29,737.75c5.04-2.92,5.99,2.85,1.42,5.49"/>
    <path class="cls-3" d="M1596.43,753.1c3.33-1.64,3.6,5.68-.06,7.63"/>
    <path class="cls-3" d="M1594.84,771.99c3.33-1.64,5.52,5.94,1.86,7.9"/>
    <path class="cls-3" d="M1594.32,616.82c2.94-1.66,3.58.89.74,2.3"/>
    <path class="cls-3" d="M1595.4,634.94c1.68-1.15,3.14,1.52,1.48,2.45"/>
    <path class="cls-3" d="M1597.53,651.68c1.68-1.15,1.66,1.36,0,2.3"/>
    <path class="cls-3" d="M1595.94,668.18c1.68-1.15,2.8.03,1.14.96"/>
    <path class="cls-3" d="M1594.73,687.4c1.68-1.15,2.75,1.19,1.09,2.13"/>
    <path class="cls-3" d="M1596.71,703.47c1.68-1.15,2.02.98.37,1.91"/>
    <path class="cls-3" d="M1595.82,721.91c1.13-.71,2,.72.88,1.22"/>
    <path class="cls-3" d="M1596.43,739.26c1.97-1.23,1.95.22-.06,1.28"/>
    <path class="cls-3" d="M1595.05,774.07c1.32-.77,3.25.72,1.73,1.43"/>
    <path class="cls-3" d="M1597.13,754.47c1.32-.77,1.28,1.27-.24,1.97"/>
    <path class="cls-4" d="M1247.78,808.67l.29-12.66c.05-1.98,1.12-3.79,2.84-4.78l347.14-200.31c.69-.4,1.55.09,1.56.88l.22,14.93c0,.38-.19.73-.52.91l-349.97,201.94c-.7.4-1.58-.11-1.56-.92Z"/>
    <polygon class="cls-4" points="1247.74 1002.33 1248.15 984.64 1599.59 781.86 1599.84 799.16 1247.74 1002.33"/>
    <path class="cls-4" d="M776.29,525.08l-.5,14.67c-.01.4.2.78.55.98l469.66,269.1c.71.41,1.6-.09,1.63-.91l.5-14.67c.01-.4-.2-.78-.55-.98l-469.66-269.1c-.71-.41-1.6.09-1.63.91Z"/>
    <path class="cls-4" d="M775.7,716.47l.06,15.48,471.8,270.33.59-17.13-471.12-269.46c-.59-.34-1.33.09-1.33.78Z"/>
    <line class="cls-9" x1="1248.13" y1="794.26" x2="1599.57" y2="591.5"/>
    <line class="cls-2" x1="776.51" y1="524.47" x2="1248.33" y2="795.16"/>
  </g>
  <g id="Gothic_English" data-name="Gothic English">
    <polygon class="cls-6" points="1246.17 387.6 1185.61 420.94 1166.45 420.73 1165.91 409.11 1224.94 374.68 1246.17 387.6"/>
    <ellipse class="cls-6" cx="1175.45" cy="414.94" rx="1.24" ry="1.6" transform="translate(737.61 1582.06) rotate(-88.88)"/>
    <line class="cls-7" x1="1176.96" y1="414.57" x2="1174.21" y2="415.19"/>
    <ellipse class="cls-6" cx="1229.14" cy="384.95" rx="1.24" ry="1.6" transform="translate(820.23 1606.34) rotate(-88.88)"/>
    <line class="cls-7" x1="1230.65" y1="384.58" x2="1227.9" y2="385.2"/>
    <line class="cls-5" x1="1188.59" y1="419.3" x2="1168.4" y2="407.66"/>
    <line class="cls-5" x1="1189.52" y1="418.85" x2="1169.34" y2="407.21"/>
    <line class="cls-5" x1="1190.46" y1="418.1" x2="1170.28" y2="406.47"/>
    <line class="cls-5" x1="1236.71" y1="392.59" x2="1215.59" y2="380.5"/>
    <polygon class="cls-6" points="1493.43 529.3 1434.31 565.13 1415.16 565.71 1414.15 554.13 1471.69 517.27 1493.43 529.3"/>
    <ellipse class="cls-6" cx="1423.92" cy="559.56" rx="1.6" ry="1.24" transform="translate(-12.04 31.65) rotate(-1.27)"/>
    <line class="cls-7" x1="1425.41" y1="559.13" x2="1422.69" y2="559.86"/>
    <ellipse class="cls-6" cx="1476.31" cy="527.36" rx="1.6" ry="1.24" transform="translate(-11.31 32.81) rotate(-1.27)"/>
    <line class="cls-7" x1="1477.81" y1="526.93" x2="1475.08" y2="527.66"/>
    <line class="cls-5" x1="1437.22" y1="563.36" x2="1416.57" y2="552.58"/>
    <line class="cls-5" x1="1438.14" y1="562.88" x2="1417.49" y2="552.09"/>
    <line class="cls-5" x1="1439.05" y1="562.09" x2="1418.39" y2="551.3"/>
    <line class="cls-5" x1="1484.19" y1="534.68" x2="1462.59" y2="523.48"/>
  </g>
</svg>